<mxfile host="Electron" modified="2023-11-25T17:55:14.481Z" agent="Mozilla/5.0 (Windows NT 10.0; Win64; x64) AppleWebKit/537.36 (KHTML, like Gecko) draw.io/22.0.3 Chrome/114.0.5735.289 Electron/25.8.4 Safari/537.36" etag="ZqlhIWujUKdLVCEmUdWA" version="22.0.3" type="device">
  <diagram id="oW3MnLp_1cMdnGVnwum1" name="Page-1">
    <mxGraphModel dx="1151" dy="673" grid="1" gridSize="10" guides="1" tooltips="1" connect="1" arrows="1" fold="1" page="1" pageScale="1" pageWidth="827" pageHeight="1169" math="0" shadow="0">
      <root>
        <mxCell id="0" />
        <mxCell id="1" parent="0" />
        <mxCell id="MKCzWIRwI4Zgw65z_sEB-200" value="" style="rounded=0;whiteSpace=wrap;html=1;fontSize=15;rotation=-90;dashed=1;" parent="1" vertex="1">
          <mxGeometry x="965.74" y="2219.75" width="80.06" height="150.49" as="geometry" />
        </mxCell>
        <mxCell id="MKCzWIRwI4Zgw65z_sEB-197" value="" style="rounded=0;whiteSpace=wrap;html=1;fontSize=15;rotation=-90;dashed=1;" parent="1" vertex="1">
          <mxGeometry x="933.6999999999999" y="2163.5" width="81" height="87.5" as="geometry" />
        </mxCell>
        <mxCell id="MKCzWIRwI4Zgw65z_sEB-194" value="" style="rounded=0;whiteSpace=wrap;html=1;fontSize=15;rotation=-90;dashed=1;" parent="1" vertex="1">
          <mxGeometry x="986.41" y="2032.1" width="80.06" height="190.98" as="geometry" />
        </mxCell>
        <mxCell id="MKCzWIRwI4Zgw65z_sEB-172" style="edgeStyle=none;rounded=0;orthogonalLoop=1;jettySize=auto;html=1;fontSize=15;" parent="1" target="MKCzWIRwI4Zgw65z_sEB-170" edge="1">
          <mxGeometry relative="1" as="geometry">
            <mxPoint x="170" y="2151" as="sourcePoint" />
          </mxGeometry>
        </mxCell>
        <mxCell id="MKCzWIRwI4Zgw65z_sEB-166" value="" style="rounded=0;whiteSpace=wrap;html=1;fontSize=15;rotation=-90;dashed=1;" parent="1" vertex="1">
          <mxGeometry x="-12.09" y="2106.5" width="249" height="88" as="geometry" />
        </mxCell>
        <mxCell id="MKCzWIRwI4Zgw65z_sEB-41" style="edgeStyle=none;rounded=0;orthogonalLoop=1;jettySize=auto;html=1;fontSize=15;" parent="1" source="MKCzWIRwI4Zgw65z_sEB-1" target="MKCzWIRwI4Zgw65z_sEB-35" edge="1">
          <mxGeometry relative="1" as="geometry" />
        </mxCell>
        <mxCell id="MKCzWIRwI4Zgw65z_sEB-3" style="rounded=0;orthogonalLoop=1;jettySize=auto;html=1;" parent="1" source="MKCzWIRwI4Zgw65z_sEB-1" edge="1">
          <mxGeometry relative="1" as="geometry">
            <mxPoint x="378" y="98" as="targetPoint" />
          </mxGeometry>
        </mxCell>
        <mxCell id="MKCzWIRwI4Zgw65z_sEB-30" style="edgeStyle=none;rounded=0;orthogonalLoop=1;jettySize=auto;html=1;entryX=0;entryY=0.5;entryDx=0;entryDy=0;fontSize=15;" parent="1" source="MKCzWIRwI4Zgw65z_sEB-1" target="MKCzWIRwI4Zgw65z_sEB-24" edge="1">
          <mxGeometry relative="1" as="geometry" />
        </mxCell>
        <mxCell id="MKCzWIRwI4Zgw65z_sEB-31" style="edgeStyle=none;rounded=0;orthogonalLoop=1;jettySize=auto;html=1;entryX=0;entryY=0.5;entryDx=0;entryDy=0;fontSize=15;" parent="1" source="MKCzWIRwI4Zgw65z_sEB-1" target="MKCzWIRwI4Zgw65z_sEB-26" edge="1">
          <mxGeometry relative="1" as="geometry" />
        </mxCell>
        <mxCell id="MKCzWIRwI4Zgw65z_sEB-40" style="edgeStyle=none;rounded=0;orthogonalLoop=1;jettySize=auto;html=1;entryX=0.5;entryY=0;entryDx=0;entryDy=0;fontSize=15;" parent="1" source="MKCzWIRwI4Zgw65z_sEB-1" target="MKCzWIRwI4Zgw65z_sEB-33" edge="1">
          <mxGeometry relative="1" as="geometry" />
        </mxCell>
        <mxCell id="MKCzWIRwI4Zgw65z_sEB-32" style="edgeStyle=none;rounded=0;orthogonalLoop=1;jettySize=auto;html=1;entryX=0;entryY=0.5;entryDx=0;entryDy=0;fontSize=15;" parent="1" source="MKCzWIRwI4Zgw65z_sEB-1" target="MKCzWIRwI4Zgw65z_sEB-28" edge="1">
          <mxGeometry relative="1" as="geometry" />
        </mxCell>
        <mxCell id="MKCzWIRwI4Zgw65z_sEB-1" value="游客" style="shape=umlActor;verticalLabelPosition=bottom;verticalAlign=top;html=1;outlineConnect=0;" parent="1" vertex="1">
          <mxGeometry x="90" y="190" width="60" height="80" as="geometry" />
        </mxCell>
        <mxCell id="MKCzWIRwI4Zgw65z_sEB-53" style="edgeStyle=none;rounded=0;orthogonalLoop=1;jettySize=auto;html=1;entryX=0.5;entryY=0;entryDx=0;entryDy=0;fontSize=15;dashed=1;startArrow=none;" parent="1" source="MKCzWIRwI4Zgw65z_sEB-54" target="MKCzWIRwI4Zgw65z_sEB-51" edge="1">
          <mxGeometry relative="1" as="geometry" />
        </mxCell>
        <mxCell id="MKCzWIRwI4Zgw65z_sEB-2" value="" style="ellipse;whiteSpace=wrap;html=1;fillColor=#fff2cc;strokeColor=#d6b656;container=0;" parent="1" vertex="1">
          <mxGeometry x="378" y="73" width="80" height="50" as="geometry" />
        </mxCell>
        <mxCell id="MKCzWIRwI4Zgw65z_sEB-12" value="&lt;p class=&quot;MsoNormal&quot;&gt;预订管理&lt;/p&gt;" style="text;html=1;strokeColor=none;fillColor=none;align=center;verticalAlign=middle;whiteSpace=wrap;rounded=0;fontSize=15;container=0;" parent="1" vertex="1">
          <mxGeometry x="374" y="123" width="80" height="30" as="geometry" />
        </mxCell>
        <mxCell id="MKCzWIRwI4Zgw65z_sEB-55" style="edgeStyle=none;rounded=0;orthogonalLoop=1;jettySize=auto;html=1;dashed=1;fontSize=15;startArrow=none;" parent="1" source="MKCzWIRwI4Zgw65z_sEB-60" target="MKCzWIRwI4Zgw65z_sEB-51" edge="1">
          <mxGeometry relative="1" as="geometry" />
        </mxCell>
        <mxCell id="MKCzWIRwI4Zgw65z_sEB-24" value="" style="ellipse;whiteSpace=wrap;html=1;fillColor=#fff2cc;strokeColor=#d6b656;container=0;" parent="1" vertex="1">
          <mxGeometry x="374" y="160" width="80" height="50" as="geometry" />
        </mxCell>
        <mxCell id="MKCzWIRwI4Zgw65z_sEB-25" value="&lt;p class=&quot;MsoNormal&quot;&gt;&lt;font face=&quot;Segoe UI&quot;&gt;用户管理&lt;/font&gt;&lt;/p&gt;" style="text;html=1;strokeColor=none;fillColor=none;align=center;verticalAlign=middle;whiteSpace=wrap;rounded=0;fontSize=15;container=0;" parent="1" vertex="1">
          <mxGeometry x="366" y="210" width="96" height="30" as="geometry" />
        </mxCell>
        <mxCell id="MKCzWIRwI4Zgw65z_sEB-56" style="edgeStyle=none;rounded=0;orthogonalLoop=1;jettySize=auto;html=1;entryX=1;entryY=1;entryDx=0;entryDy=0;dashed=1;fontSize=15;" parent="1" source="MKCzWIRwI4Zgw65z_sEB-26" target="MKCzWIRwI4Zgw65z_sEB-51" edge="1">
          <mxGeometry relative="1" as="geometry" />
        </mxCell>
        <mxCell id="MKCzWIRwI4Zgw65z_sEB-26" value="" style="ellipse;whiteSpace=wrap;html=1;fillColor=#fff2cc;strokeColor=#d6b656;container=0;" parent="1" vertex="1">
          <mxGeometry x="378" y="260" width="80" height="50" as="geometry" />
        </mxCell>
        <mxCell id="MKCzWIRwI4Zgw65z_sEB-27" value="&lt;p class=&quot;MsoNormal&quot;&gt;&lt;font face=&quot;Segoe UI&quot;&gt;行程规划&lt;/font&gt;&lt;/p&gt;" style="text;html=1;strokeColor=none;fillColor=none;align=center;verticalAlign=middle;whiteSpace=wrap;rounded=0;fontSize=15;container=0;" parent="1" vertex="1">
          <mxGeometry x="378" y="310" width="80" height="30" as="geometry" />
        </mxCell>
        <mxCell id="MKCzWIRwI4Zgw65z_sEB-57" style="edgeStyle=none;rounded=0;orthogonalLoop=1;jettySize=auto;html=1;dashed=1;fontSize=15;startArrow=none;" parent="1" source="MKCzWIRwI4Zgw65z_sEB-68" target="MKCzWIRwI4Zgw65z_sEB-51" edge="1">
          <mxGeometry relative="1" as="geometry" />
        </mxCell>
        <mxCell id="MKCzWIRwI4Zgw65z_sEB-28" value="" style="ellipse;whiteSpace=wrap;html=1;fillColor=#fff2cc;strokeColor=#d6b656;container=0;" parent="1" vertex="1">
          <mxGeometry x="378" y="360" width="80" height="50" as="geometry" />
        </mxCell>
        <mxCell id="MKCzWIRwI4Zgw65z_sEB-29" value="&lt;p class=&quot;MsoNormal&quot;&gt;&lt;font face=&quot;Segoe UI&quot;&gt;支付和结算&lt;/font&gt;&lt;/p&gt;" style="text;html=1;strokeColor=none;fillColor=none;align=center;verticalAlign=middle;whiteSpace=wrap;rounded=0;fontSize=15;container=0;" parent="1" vertex="1">
          <mxGeometry x="378" y="410" width="80" height="30" as="geometry" />
        </mxCell>
        <mxCell id="MKCzWIRwI4Zgw65z_sEB-58" style="edgeStyle=none;rounded=0;orthogonalLoop=1;jettySize=auto;html=1;dashed=1;fontSize=15;startArrow=none;" parent="1" source="MKCzWIRwI4Zgw65z_sEB-63" target="MKCzWIRwI4Zgw65z_sEB-51" edge="1">
          <mxGeometry relative="1" as="geometry" />
        </mxCell>
        <mxCell id="MKCzWIRwI4Zgw65z_sEB-33" value="" style="ellipse;whiteSpace=wrap;html=1;fillColor=#fff2cc;strokeColor=#d6b656;container=0;" parent="1" vertex="1">
          <mxGeometry x="250" y="460" width="80" height="50" as="geometry" />
        </mxCell>
        <mxCell id="MKCzWIRwI4Zgw65z_sEB-34" value="&lt;p class=&quot;MsoNormal&quot;&gt;&lt;font face=&quot;Segoe UI&quot;&gt;景点信息管理&lt;/font&gt;&lt;/p&gt;" style="text;html=1;strokeColor=none;fillColor=none;align=center;verticalAlign=middle;whiteSpace=wrap;rounded=0;fontSize=15;container=0;" parent="1" vertex="1">
          <mxGeometry x="240" y="510" width="100" height="30" as="geometry" />
        </mxCell>
        <mxCell id="MKCzWIRwI4Zgw65z_sEB-59" style="edgeStyle=none;rounded=0;orthogonalLoop=1;jettySize=auto;html=1;dashed=1;fontSize=15;" parent="1" source="MKCzWIRwI4Zgw65z_sEB-35" target="MKCzWIRwI4Zgw65z_sEB-51" edge="1">
          <mxGeometry relative="1" as="geometry" />
        </mxCell>
        <mxCell id="MKCzWIRwI4Zgw65z_sEB-35" value="" style="ellipse;whiteSpace=wrap;html=1;fillColor=#fff2cc;strokeColor=#d6b656;container=0;" parent="1" vertex="1">
          <mxGeometry x="60" y="410" width="80" height="50" as="geometry" />
        </mxCell>
        <mxCell id="MKCzWIRwI4Zgw65z_sEB-37" value="&lt;p class=&quot;MsoNormal&quot;&gt;&lt;font face=&quot;Segoe UI&quot;&gt;客户服务与支持&lt;/font&gt;&lt;/p&gt;" style="text;html=1;align=center;verticalAlign=middle;resizable=0;points=[];autosize=1;strokeColor=none;fillColor=none;fontSize=15;" parent="1" vertex="1">
          <mxGeometry x="30" y="440" width="130" height="60" as="geometry" />
        </mxCell>
        <mxCell id="MKCzWIRwI4Zgw65z_sEB-51" value="" style="ellipse;whiteSpace=wrap;html=1;fillColor=#fff2cc;strokeColor=#d6b656;container=0;" parent="1" vertex="1">
          <mxGeometry x="580" y="310" width="80" height="50" as="geometry" />
        </mxCell>
        <mxCell id="MKCzWIRwI4Zgw65z_sEB-61" value="&amp;lt;&amp;lt;include&amp;gt;&amp;gt;" style="text;html=1;strokeColor=none;fillColor=none;align=center;verticalAlign=middle;whiteSpace=wrap;rounded=0;fontSize=15;" parent="1" vertex="1">
          <mxGeometry x="480" y="300" width="60" height="30" as="geometry" />
        </mxCell>
        <mxCell id="MKCzWIRwI4Zgw65z_sEB-62" value="&amp;lt;&amp;lt;include&amp;gt;&amp;gt;" style="text;html=1;strokeColor=none;fillColor=none;align=center;verticalAlign=middle;whiteSpace=wrap;rounded=0;fontSize=15;" parent="1" vertex="1">
          <mxGeometry x="190" y="390" width="60" height="30" as="geometry" />
        </mxCell>
        <mxCell id="MKCzWIRwI4Zgw65z_sEB-63" value="&amp;lt;&amp;lt;include&amp;gt;&amp;gt;" style="text;html=1;strokeColor=none;fillColor=none;align=center;verticalAlign=middle;whiteSpace=wrap;rounded=0;fontSize=15;" parent="1" vertex="1">
          <mxGeometry x="366" y="440" width="60" height="30" as="geometry" />
        </mxCell>
        <mxCell id="MKCzWIRwI4Zgw65z_sEB-64" value="" style="edgeStyle=none;rounded=0;orthogonalLoop=1;jettySize=auto;html=1;dashed=1;fontSize=15;endArrow=none;" parent="1" source="MKCzWIRwI4Zgw65z_sEB-33" target="MKCzWIRwI4Zgw65z_sEB-63" edge="1">
          <mxGeometry relative="1" as="geometry">
            <mxPoint x="333.5538181987504" y="451.39075905225536" as="sourcePoint" />
            <mxPoint x="586.4622553479744" y="348.6247087648853" as="targetPoint" />
          </mxGeometry>
        </mxCell>
        <mxCell id="MKCzWIRwI4Zgw65z_sEB-65" value="用户登录" style="text;html=1;strokeColor=none;fillColor=none;align=center;verticalAlign=middle;whiteSpace=wrap;rounded=0;fontSize=15;container=0;" parent="1" vertex="1">
          <mxGeometry x="580" y="360" width="80" height="30" as="geometry" />
        </mxCell>
        <mxCell id="MKCzWIRwI4Zgw65z_sEB-54" value="&amp;lt;&amp;lt;include&amp;gt;&amp;gt;" style="text;html=1;strokeColor=none;fillColor=none;align=center;verticalAlign=middle;whiteSpace=wrap;rounded=0;fontSize=15;" parent="1" vertex="1">
          <mxGeometry x="490" y="200" width="60" height="30" as="geometry" />
        </mxCell>
        <mxCell id="MKCzWIRwI4Zgw65z_sEB-66" value="" style="edgeStyle=none;rounded=0;orthogonalLoop=1;jettySize=auto;html=1;entryX=0.5;entryY=0;entryDx=0;entryDy=0;fontSize=15;dashed=1;endArrow=none;" parent="1" source="MKCzWIRwI4Zgw65z_sEB-2" target="MKCzWIRwI4Zgw65z_sEB-54" edge="1">
          <mxGeometry relative="1" as="geometry">
            <mxPoint x="438.46647895156843" y="119.47967097887363" as="sourcePoint" />
            <mxPoint x="620" y="310" as="targetPoint" />
          </mxGeometry>
        </mxCell>
        <mxCell id="MKCzWIRwI4Zgw65z_sEB-60" value="&amp;lt;&amp;lt;include&amp;gt;&amp;gt;" style="text;html=1;strokeColor=none;fillColor=none;align=center;verticalAlign=middle;whiteSpace=wrap;rounded=0;fontSize=15;" parent="1" vertex="1">
          <mxGeometry x="480" y="240" width="60" height="30" as="geometry" />
        </mxCell>
        <mxCell id="MKCzWIRwI4Zgw65z_sEB-67" value="" style="edgeStyle=none;rounded=0;orthogonalLoop=1;jettySize=auto;html=1;dashed=1;fontSize=15;endArrow=none;" parent="1" source="MKCzWIRwI4Zgw65z_sEB-24" target="MKCzWIRwI4Zgw65z_sEB-60" edge="1">
          <mxGeometry relative="1" as="geometry">
            <mxPoint x="439.97663708622554" y="204.01083496254478" as="sourcePoint" />
            <mxPoint x="593.9475211044369" y="316.0297483770171" as="targetPoint" />
          </mxGeometry>
        </mxCell>
        <mxCell id="MKCzWIRwI4Zgw65z_sEB-68" value="&amp;lt;&amp;lt;include&amp;gt;&amp;gt;" style="text;html=1;strokeColor=none;fillColor=none;align=center;verticalAlign=middle;whiteSpace=wrap;rounded=0;fontSize=15;" parent="1" vertex="1">
          <mxGeometry x="462" y="350" width="60" height="30" as="geometry" />
        </mxCell>
        <mxCell id="MKCzWIRwI4Zgw65z_sEB-69" value="" style="edgeStyle=none;rounded=0;orthogonalLoop=1;jettySize=auto;html=1;dashed=1;fontSize=15;endArrow=none;" parent="1" source="MKCzWIRwI4Zgw65z_sEB-28" target="MKCzWIRwI4Zgw65z_sEB-68" edge="1">
          <mxGeometry relative="1" as="geometry">
            <mxPoint x="455.2631047793989" y="375.91143785868326" as="sourcePoint" />
            <mxPoint x="582.8103612356745" y="344.20535612978347" as="targetPoint" />
          </mxGeometry>
        </mxCell>
        <mxCell id="MKCzWIRwI4Zgw65z_sEB-102" value="" style="edgeStyle=none;rounded=0;orthogonalLoop=1;jettySize=auto;html=1;fontSize=15;dashed=1;fillColor=#fff2cc;strokeColor=#d6b656;" parent="1" source="MKCzWIRwI4Zgw65z_sEB-94" target="MKCzWIRwI4Zgw65z_sEB-101" edge="1">
          <mxGeometry relative="1" as="geometry" />
        </mxCell>
        <mxCell id="MKCzWIRwI4Zgw65z_sEB-94" value="SupportAction" style="shape=folder;fontStyle=1;spacingTop=10;tabWidth=40;tabHeight=14;tabPosition=left;html=1;fontSize=15;fillColor=#fff2cc;strokeColor=#d6b656;" parent="1" vertex="1">
          <mxGeometry x="120.91" y="620" width="155" height="59" as="geometry" />
        </mxCell>
        <mxCell id="MKCzWIRwI4Zgw65z_sEB-97" value="DataModel" style="shape=folder;fontStyle=1;spacingTop=10;tabWidth=40;tabHeight=14;tabPosition=left;html=1;fontSize=15;fillColor=#fff2cc;strokeColor=#d6b656;" parent="1" vertex="1">
          <mxGeometry x="765.9100000000001" y="810" width="115" height="59" as="geometry" />
        </mxCell>
        <mxCell id="MKCzWIRwI4Zgw65z_sEB-104" value="" style="edgeStyle=none;rounded=0;orthogonalLoop=1;jettySize=auto;html=1;fontSize=15;dashed=1;fillColor=#fff2cc;strokeColor=#d6b656;" parent="1" source="MKCzWIRwI4Zgw65z_sEB-101" target="MKCzWIRwI4Zgw65z_sEB-103" edge="1">
          <mxGeometry relative="1" as="geometry" />
        </mxCell>
        <mxCell id="MKCzWIRwI4Zgw65z_sEB-101" value="SupportService" style="shape=folder;fontStyle=1;spacingTop=10;tabWidth=40;tabHeight=14;tabPosition=left;html=1;fontSize=15;fillColor=#fff2cc;strokeColor=#d6b656;" parent="1" vertex="1">
          <mxGeometry x="315.91" y="620" width="150" height="59" as="geometry" />
        </mxCell>
        <mxCell id="MKCzWIRwI4Zgw65z_sEB-105" style="edgeStyle=none;rounded=0;orthogonalLoop=1;jettySize=auto;html=1;entryX=0;entryY=0;entryDx=0;entryDy=36.5;entryPerimeter=0;fontSize=15;exitX=0;exitY=0;exitDx=135;exitDy=36.5;exitPerimeter=0;dashed=1;fillColor=#fff2cc;strokeColor=#d6b656;" parent="1" source="MKCzWIRwI4Zgw65z_sEB-103" target="MKCzWIRwI4Zgw65z_sEB-97" edge="1">
          <mxGeometry relative="1" as="geometry" />
        </mxCell>
        <mxCell id="MKCzWIRwI4Zgw65z_sEB-103" value="SupportDao" style="shape=folder;fontStyle=1;spacingTop=10;tabWidth=40;tabHeight=14;tabPosition=left;html=1;fontSize=15;fillColor=#fff2cc;strokeColor=#d6b656;" parent="1" vertex="1">
          <mxGeometry x="510.91" y="620" width="135" height="59" as="geometry" />
        </mxCell>
        <mxCell id="MKCzWIRwI4Zgw65z_sEB-131" value="" style="edgeStyle=none;rounded=0;orthogonalLoop=1;jettySize=auto;html=1;fontSize=15;dashed=1;fillColor=#fff2cc;strokeColor=#d6b656;" parent="1" source="MKCzWIRwI4Zgw65z_sEB-132" target="MKCzWIRwI4Zgw65z_sEB-134" edge="1">
          <mxGeometry relative="1" as="geometry" />
        </mxCell>
        <mxCell id="MKCzWIRwI4Zgw65z_sEB-132" value="PaymentAction" style="shape=folder;fontStyle=1;spacingTop=10;tabWidth=40;tabHeight=14;tabPosition=left;html=1;fontSize=15;fillColor=#fff2cc;strokeColor=#d6b656;" parent="1" vertex="1">
          <mxGeometry x="120.91" y="709" width="155" height="59" as="geometry" />
        </mxCell>
        <mxCell id="MKCzWIRwI4Zgw65z_sEB-133" value="" style="edgeStyle=none;rounded=0;orthogonalLoop=1;jettySize=auto;html=1;fontSize=15;dashed=1;fillColor=#fff2cc;strokeColor=#d6b656;" parent="1" source="MKCzWIRwI4Zgw65z_sEB-134" target="MKCzWIRwI4Zgw65z_sEB-135" edge="1">
          <mxGeometry relative="1" as="geometry" />
        </mxCell>
        <mxCell id="MKCzWIRwI4Zgw65z_sEB-134" value="PaymentService" style="shape=folder;fontStyle=1;spacingTop=10;tabWidth=40;tabHeight=14;tabPosition=left;html=1;fontSize=15;fillColor=#fff2cc;strokeColor=#d6b656;" parent="1" vertex="1">
          <mxGeometry x="315.91" y="709" width="150" height="59" as="geometry" />
        </mxCell>
        <mxCell id="MKCzWIRwI4Zgw65z_sEB-157" style="edgeStyle=none;rounded=0;orthogonalLoop=1;jettySize=auto;html=1;entryX=0;entryY=0;entryDx=0;entryDy=36.5;entryPerimeter=0;fontSize=15;dashed=1;fillColor=#fff2cc;strokeColor=#d6b656;" parent="1" source="MKCzWIRwI4Zgw65z_sEB-135" target="MKCzWIRwI4Zgw65z_sEB-97" edge="1">
          <mxGeometry relative="1" as="geometry" />
        </mxCell>
        <mxCell id="MKCzWIRwI4Zgw65z_sEB-135" value="PaymentDao" style="shape=folder;fontStyle=1;spacingTop=10;tabWidth=40;tabHeight=14;tabPosition=left;html=1;fontSize=15;fillColor=#fff2cc;strokeColor=#d6b656;" parent="1" vertex="1">
          <mxGeometry x="510.91" y="709" width="135" height="59" as="geometry" />
        </mxCell>
        <mxCell id="MKCzWIRwI4Zgw65z_sEB-136" value="" style="edgeStyle=none;rounded=0;orthogonalLoop=1;jettySize=auto;html=1;fontSize=15;dashed=1;fillColor=#fff2cc;strokeColor=#d6b656;" parent="1" source="MKCzWIRwI4Zgw65z_sEB-137" target="MKCzWIRwI4Zgw65z_sEB-139" edge="1">
          <mxGeometry relative="1" as="geometry" />
        </mxCell>
        <mxCell id="MKCzWIRwI4Zgw65z_sEB-137" value="SceneAction" style="shape=folder;fontStyle=1;spacingTop=10;tabWidth=40;tabHeight=14;tabPosition=left;html=1;fontSize=15;fillColor=#fff2cc;strokeColor=#d6b656;" parent="1" vertex="1">
          <mxGeometry x="120.41" y="795" width="155" height="59" as="geometry" />
        </mxCell>
        <mxCell id="MKCzWIRwI4Zgw65z_sEB-138" value="" style="edgeStyle=none;rounded=0;orthogonalLoop=1;jettySize=auto;html=1;fontSize=15;dashed=1;fillColor=#fff2cc;strokeColor=#d6b656;" parent="1" source="MKCzWIRwI4Zgw65z_sEB-139" target="MKCzWIRwI4Zgw65z_sEB-140" edge="1">
          <mxGeometry relative="1" as="geometry" />
        </mxCell>
        <mxCell id="MKCzWIRwI4Zgw65z_sEB-139" value="SenceService" style="shape=folder;fontStyle=1;spacingTop=10;tabWidth=40;tabHeight=14;tabPosition=left;html=1;fontSize=15;fillColor=#fff2cc;strokeColor=#d6b656;" parent="1" vertex="1">
          <mxGeometry x="315.41" y="795" width="150" height="59" as="geometry" />
        </mxCell>
        <mxCell id="MKCzWIRwI4Zgw65z_sEB-158" style="edgeStyle=none;rounded=0;orthogonalLoop=1;jettySize=auto;html=1;entryX=0;entryY=0;entryDx=0;entryDy=36.5;entryPerimeter=0;fontSize=15;dashed=1;fillColor=#fff2cc;strokeColor=#d6b656;" parent="1" source="MKCzWIRwI4Zgw65z_sEB-140" target="MKCzWIRwI4Zgw65z_sEB-97" edge="1">
          <mxGeometry relative="1" as="geometry" />
        </mxCell>
        <mxCell id="MKCzWIRwI4Zgw65z_sEB-140" value="SceneDao" style="shape=folder;fontStyle=1;spacingTop=10;tabWidth=40;tabHeight=14;tabPosition=left;html=1;fontSize=15;fillColor=#fff2cc;strokeColor=#d6b656;" parent="1" vertex="1">
          <mxGeometry x="510.41" y="795" width="135" height="59" as="geometry" />
        </mxCell>
        <mxCell id="MKCzWIRwI4Zgw65z_sEB-141" value="" style="edgeStyle=none;rounded=0;orthogonalLoop=1;jettySize=auto;html=1;fontSize=15;dashed=1;fillColor=#fff2cc;strokeColor=#d6b656;" parent="1" source="MKCzWIRwI4Zgw65z_sEB-142" target="MKCzWIRwI4Zgw65z_sEB-144" edge="1">
          <mxGeometry relative="1" as="geometry" />
        </mxCell>
        <mxCell id="MKCzWIRwI4Zgw65z_sEB-142" value="BookAction" style="shape=folder;fontStyle=1;spacingTop=10;tabWidth=40;tabHeight=14;tabPosition=left;html=1;fontSize=15;fillColor=#fff2cc;strokeColor=#d6b656;" parent="1" vertex="1">
          <mxGeometry x="120.41" y="885" width="155" height="59" as="geometry" />
        </mxCell>
        <mxCell id="MKCzWIRwI4Zgw65z_sEB-143" value="" style="edgeStyle=none;rounded=0;orthogonalLoop=1;jettySize=auto;html=1;fontSize=15;dashed=1;fillColor=#fff2cc;strokeColor=#d6b656;" parent="1" source="MKCzWIRwI4Zgw65z_sEB-144" target="MKCzWIRwI4Zgw65z_sEB-145" edge="1">
          <mxGeometry relative="1" as="geometry" />
        </mxCell>
        <mxCell id="MKCzWIRwI4Zgw65z_sEB-144" value="BookService" style="shape=folder;fontStyle=1;spacingTop=10;tabWidth=40;tabHeight=14;tabPosition=left;html=1;fontSize=15;fillColor=#fff2cc;strokeColor=#d6b656;" parent="1" vertex="1">
          <mxGeometry x="315.41" y="885" width="150" height="59" as="geometry" />
        </mxCell>
        <mxCell id="MKCzWIRwI4Zgw65z_sEB-159" style="edgeStyle=none;rounded=0;orthogonalLoop=1;jettySize=auto;html=1;fontSize=15;entryX=0;entryY=0;entryDx=0;entryDy=36.5;entryPerimeter=0;exitX=0;exitY=0;exitDx=135;exitDy=36.5;exitPerimeter=0;dashed=1;fillColor=#fff2cc;strokeColor=#d6b656;" parent="1" source="MKCzWIRwI4Zgw65z_sEB-145" target="MKCzWIRwI4Zgw65z_sEB-97" edge="1">
          <mxGeometry relative="1" as="geometry">
            <mxPoint x="765.9100000000001" y="900" as="targetPoint" />
          </mxGeometry>
        </mxCell>
        <mxCell id="MKCzWIRwI4Zgw65z_sEB-145" value="BookDao" style="shape=folder;fontStyle=1;spacingTop=10;tabWidth=40;tabHeight=14;tabPosition=left;html=1;fontSize=15;fillColor=#fff2cc;strokeColor=#d6b656;" parent="1" vertex="1">
          <mxGeometry x="510.41" y="885" width="135" height="59" as="geometry" />
        </mxCell>
        <mxCell id="MKCzWIRwI4Zgw65z_sEB-146" value="" style="edgeStyle=none;rounded=0;orthogonalLoop=1;jettySize=auto;html=1;fontSize=15;dashed=1;fillColor=#fff2cc;strokeColor=#d6b656;" parent="1" source="MKCzWIRwI4Zgw65z_sEB-147" target="MKCzWIRwI4Zgw65z_sEB-149" edge="1">
          <mxGeometry relative="1" as="geometry" />
        </mxCell>
        <mxCell id="MKCzWIRwI4Zgw65z_sEB-147" value="DataAction" style="shape=folder;fontStyle=1;spacingTop=10;tabWidth=40;tabHeight=14;tabPosition=left;html=1;fontSize=15;fillColor=#fff2cc;strokeColor=#d6b656;" parent="1" vertex="1">
          <mxGeometry x="120.41" y="965" width="155" height="59" as="geometry" />
        </mxCell>
        <mxCell id="MKCzWIRwI4Zgw65z_sEB-148" value="" style="edgeStyle=none;rounded=0;orthogonalLoop=1;jettySize=auto;html=1;fontSize=15;dashed=1;fillColor=#fff2cc;strokeColor=#d6b656;" parent="1" source="MKCzWIRwI4Zgw65z_sEB-149" target="MKCzWIRwI4Zgw65z_sEB-150" edge="1">
          <mxGeometry relative="1" as="geometry" />
        </mxCell>
        <mxCell id="MKCzWIRwI4Zgw65z_sEB-149" value="DataService" style="shape=folder;fontStyle=1;spacingTop=10;tabWidth=40;tabHeight=14;tabPosition=left;html=1;fontSize=15;fillColor=#fff2cc;strokeColor=#d6b656;" parent="1" vertex="1">
          <mxGeometry x="315.41" y="965" width="150" height="59" as="geometry" />
        </mxCell>
        <mxCell id="MKCzWIRwI4Zgw65z_sEB-162" style="edgeStyle=none;rounded=0;orthogonalLoop=1;jettySize=auto;html=1;fontSize=15;exitX=0;exitY=0;exitDx=135;exitDy=36.5;exitPerimeter=0;entryX=0;entryY=0;entryDx=0;entryDy=47.75;entryPerimeter=0;dashed=1;fillColor=#fff2cc;strokeColor=#d6b656;" parent="1" source="MKCzWIRwI4Zgw65z_sEB-150" target="MKCzWIRwI4Zgw65z_sEB-97" edge="1">
          <mxGeometry relative="1" as="geometry">
            <mxPoint x="765.9100000000001" y="890" as="targetPoint" />
          </mxGeometry>
        </mxCell>
        <mxCell id="MKCzWIRwI4Zgw65z_sEB-150" value="DataDao" style="shape=folder;fontStyle=1;spacingTop=10;tabWidth=40;tabHeight=14;tabPosition=left;html=1;fontSize=15;fillColor=#fff2cc;strokeColor=#d6b656;" parent="1" vertex="1">
          <mxGeometry x="510.41" y="965" width="135" height="59" as="geometry" />
        </mxCell>
        <mxCell id="MKCzWIRwI4Zgw65z_sEB-151" value="" style="edgeStyle=none;rounded=0;orthogonalLoop=1;jettySize=auto;html=1;fontSize=15;dashed=1;fillColor=#fff2cc;strokeColor=#d6b656;" parent="1" source="MKCzWIRwI4Zgw65z_sEB-152" target="MKCzWIRwI4Zgw65z_sEB-154" edge="1">
          <mxGeometry relative="1" as="geometry" />
        </mxCell>
        <mxCell id="MKCzWIRwI4Zgw65z_sEB-152" value="UserAction" style="shape=folder;fontStyle=1;spacingTop=10;tabWidth=40;tabHeight=14;tabPosition=left;html=1;fontSize=15;fillColor=#fff2cc;strokeColor=#d6b656;" parent="1" vertex="1">
          <mxGeometry x="120.41" y="1045" width="155" height="59" as="geometry" />
        </mxCell>
        <mxCell id="MKCzWIRwI4Zgw65z_sEB-153" value="" style="edgeStyle=none;rounded=0;orthogonalLoop=1;jettySize=auto;html=1;fontSize=15;dashed=1;fillColor=#fff2cc;strokeColor=#d6b656;" parent="1" source="MKCzWIRwI4Zgw65z_sEB-154" target="MKCzWIRwI4Zgw65z_sEB-155" edge="1">
          <mxGeometry relative="1" as="geometry" />
        </mxCell>
        <mxCell id="MKCzWIRwI4Zgw65z_sEB-154" value="UserService" style="shape=folder;fontStyle=1;spacingTop=10;tabWidth=40;tabHeight=14;tabPosition=left;html=1;fontSize=15;fillColor=#fff2cc;strokeColor=#d6b656;" parent="1" vertex="1">
          <mxGeometry x="315.41" y="1045" width="150" height="59" as="geometry" />
        </mxCell>
        <mxCell id="MKCzWIRwI4Zgw65z_sEB-161" style="edgeStyle=none;rounded=0;orthogonalLoop=1;jettySize=auto;html=1;entryX=0;entryY=0;entryDx=0;entryDy=47.75;entryPerimeter=0;fontSize=15;exitX=0;exitY=0;exitDx=135;exitDy=36.5;exitPerimeter=0;dashed=1;fillColor=#fff2cc;strokeColor=#d6b656;" parent="1" source="MKCzWIRwI4Zgw65z_sEB-155" target="MKCzWIRwI4Zgw65z_sEB-97" edge="1">
          <mxGeometry relative="1" as="geometry">
            <Array as="points" />
          </mxGeometry>
        </mxCell>
        <mxCell id="MKCzWIRwI4Zgw65z_sEB-155" value="UserDao" style="shape=folder;fontStyle=1;spacingTop=10;tabWidth=40;tabHeight=14;tabPosition=left;html=1;fontSize=15;fillColor=#fff2cc;strokeColor=#d6b656;" parent="1" vertex="1">
          <mxGeometry x="510.41" y="1045" width="135" height="59" as="geometry" />
        </mxCell>
        <mxCell id="MKCzWIRwI4Zgw65z_sEB-163" value="" style="edgeStyle=none;rounded=0;orthogonalLoop=1;jettySize=auto;html=1;fontSize=15;dashed=1;fillColor=#fff2cc;strokeColor=#d6b656;" parent="1" edge="1">
          <mxGeometry relative="1" as="geometry">
            <mxPoint x="275.91" y="738" as="sourcePoint" />
            <mxPoint x="315.91" y="738" as="targetPoint" />
          </mxGeometry>
        </mxCell>
        <mxCell id="MKCzWIRwI4Zgw65z_sEB-164" value="" style="fontColor=#0066CC;verticalAlign=top;verticalLabelPosition=bottom;labelPosition=center;align=center;html=1;outlineConnect=0;fillColor=#CCCCCC;strokeColor=#6881B3;gradientColor=none;gradientDirection=north;strokeWidth=2;shape=mxgraph.networks.pc;fontSize=15;" parent="1" vertex="1">
          <mxGeometry x="84.41" y="2127" width="54" height="40" as="geometry" />
        </mxCell>
        <mxCell id="MKCzWIRwI4Zgw65z_sEB-167" value="" style="endArrow=none;html=1;rounded=0;dashed=1;fontSize=15;" parent="1" edge="1">
          <mxGeometry width="50" height="50" relative="1" as="geometry">
            <mxPoint x="171.41" y="2344" as="sourcePoint" />
            <mxPoint x="171.41" y="1950" as="targetPoint" />
            <Array as="points" />
          </mxGeometry>
        </mxCell>
        <mxCell id="MKCzWIRwI4Zgw65z_sEB-168" value="" style="endArrow=none;html=1;rounded=0;dashed=1;fontSize=15;" parent="1" edge="1">
          <mxGeometry width="50" height="50" relative="1" as="geometry">
            <mxPoint x="280" y="2344" as="sourcePoint" />
            <mxPoint x="280" y="1950" as="targetPoint" />
          </mxGeometry>
        </mxCell>
        <mxCell id="MKCzWIRwI4Zgw65z_sEB-173" style="edgeStyle=none;rounded=0;orthogonalLoop=1;jettySize=auto;html=1;fontSize=15;" parent="1" source="MKCzWIRwI4Zgw65z_sEB-170" edge="1">
          <mxGeometry relative="1" as="geometry">
            <mxPoint x="280" y="2150.5" as="targetPoint" />
          </mxGeometry>
        </mxCell>
        <mxCell id="MKCzWIRwI4Zgw65z_sEB-170" value="" style="shape=image;aspect=fixed;image=data:image/png,iVBORw0KGgoAAAANSUhEUgAABAAAAAQACAYAAAB/HSuDAAAACXBIWXMAAAsTAAALEwEAmpwYAAAgAElEQVR4nOzdedyt91nX+2vvnXlo06Tz3NK5pfNEJ1oaLIVGBIxH5BgVMCgi4aiceBSP4XDECHo0KGqO4DnmCEgUBENLJW1paUvneZ7bdG7SppmTneztuW7v1jbJs/fvGdZav/Vb1/vzer3/6at/PM9a97rXWt/s574jJElSpR6RLkuXp8d1/lkkSZIkSdKCOy1dmG5O/+1rDqaL0907/lySJEmSJGkB7U/npC/EN77439GX03npQKefUZIkSZIk7aFvT++MI3/xv6P3pxd1+UklSZIkSdKOu3+6JB2O7X/5/2bTNQIeuvKfWpIkSZIkbauT0gXpptjdF/9vdku6KJ26yl9AkiRJkiQduX3p7PTJ2PsX/zv6bDo35msJSJIkSZKkTj0lvS4W/8X/jt6SnrWi30mSJEmSJH2t+8R8C79Dsfwv/183XVPg0vTAFfx+kiRJkiSV7riYb9l3Tazui/8d3RDztQZOWO6vKkmSJElSzc5KH4t+X/zv6Ip0zlJ/Y0mSJEmSCvWo9PvR/wv/kfxhesLSfntJkiRJkja802O+Fd+t0f9Lfst0LYJL0j2X8khIkiRJkrSBHRPzrfeujP5f7Hfq6nR+zNcqkCRJkiRJR+iF6T3R/4v8Xn0ovWTBj40kSZIkScP38Jhvsdf7i/uiXZ4eu8DHSZIkSZKkITsl5lvq3Rz9v6wvy8GYr2Vw18U8ZJIkSZIkjdP+mG+h94Xo/wV9Va5K56UDC3j8JEmSJEla+56R3hj9v5D38vb0vD0/ipIkSZIkrWn3j/lWeYej/5fwdXBZesieHlFJkiRJktaok2K+Nd510f9L97q5MV2YTt31oytJkiRJUuf2pbPTJ6P/F+1199l0bszXRpAkSZIkaZiekl4b/b9Yj+bN6Vm7eLwlSZIkSVpp90kXp9ui/5fpUU3XSLg0PWCHj70kSZIkSUvv2JhvcXdN9P8CvSmuTxekE7b/NEiSJEmStLzOSh+N/l+YN9UV6ZxtPxuSJEmSJC24R6WXRf8vyFW8Kj1+W8+MJEmSJEkL6PR0Ubo1+n8pruZQuiTds/ksSZIkSZK0y46J+VZ1X4r+X4Sr+0o6Px131GdMkiRJkqQd9sL07uj/xZfb+2D6nqM8b5IkSZIkbauHxXxLut5fdDm6y9NjjvAcSpIkSZJ0xE6O+RZ0N0f/L7dsz8GYr81w1zs/nZIkSZIk3b59Md9y7vPR/wstu3NVOi8dCEmSJEmStujp6Q3R/wssi/H29LyQJEmSJOlr3S/mW8sdjv5fWlm8y9KDQ5IkSZJUtpNivpXcddH/SyrLdWO6MJ0akiRJkqRSnZU+Ef2/mLJan4n5Gg/TtR4kSZIkSRvck9MfRf8vovT15vRtIUmSJEnauM6I+RZxt0X/L5+sh+maD9O1H+4dkiRJkqThOzbmW8J9Nfp/4WQ9XZ8uSCeEJEmSJGnIzkzvj/5fMBnDR9LZIUmSJEkapkeml0b/L5SM6ZXp8SFJkiRJWtvuFvOt3m6J/l8iGdut6eJ0j5AkSZIkrU3HpHPTl6L/F0c2y1fS+em4kCRJkiR17TvSu6L/F0U22wfTd4ckSZIkaeU9LF0a/b8YUsvl6dEhSZIkSVp6J8d8y7abov+XQWo6mC5KdwlJkiRJ0sLbl85Jn4/+XwBhcmU6Lx0ISZIkSdJCelr64+j/hQ+28rb03JAkSZIk7br7pUvS4ej/JQ9aLksPDkmSJEnStjsx5luvXRv9v9TBTtyQLkynhCRJkiTpqJ2VPh79v8jBXnwm5mtWTNeukCRJkiR9U09Kr4n+X9xgkd6UnhmSJEmSpDgj5luq3Rb9v6zBMkzXsJiuZXHvkCRJkqSCHRvzLdS+Gv2/oMEqXJ8uSMeHJEmSJBXpzPS+6P+FDHr4SDo7JEmSJGmDe2T6vej/BQzWwSvSt4YkSZIkbVB3i/nWaLdE/y9dsE5uTRene4QkSZIkDdz+mG+F9sXo/0UL1tmXY74mxjEhSZIkSYP1gvSu6P/FCkbygfTikCRJkqQBekDMtzzr/UUKRnZZ+paQJEmSpDXs5JhvcXZT9P/yBJvgYLoo3SUkSZIkaQ3aF/MtzT4V/b8wwSb6XDo3HQhJkiRJ6tTT0uuj/xckqOCt6TkhSZIkSSvsvjHfuuxQ9P9SBJUcTpemB4UkSZIkLbET0/np2uj/RQgquyFdmE4JSZIkSVpwZ6WPR/8vPsA3fDqdE/O1OCRJkiRpTz0xvSb6f9EBjuyN6RkhSZIkSbvojJhvQXZb9P9yA7RN1+S4JN0rJEmSJGkbHZvOS1+N/l9ogJ27Ll2Qjg9JkiRJOkJnpvdG/y8wwN59OJ0dkiRJkvRNPSJdFv2/sACL94r0uJAkSZJUutNivpXYzdH/SwqwPLemi9PdQ5IkSVKp9sd867AvRv8vJsDqfDnma3wcCEmSJEkb3/PTO6P/FxGgn/en7wpJkiRJG9kDYr5FWO8vHsD6mK798dCQJEmStBGdFPMtwW6K/l82gPVzS7oo3SUkSZIkDdm+mG8B9qno/wUDWH+fS+fGfI0QSZIkSYP01PT66P+FAhjPW9OzQ5IkSdJad9+Yb/V1KPp/iQDGdThdmh4UkiRJktaq42K+tde10f+LA7A5boj5GiInhCRJkqTunZU+Fv2/KACb69PpnJivLSJJkiRpxT06vTz6fzEA6nh1ekJIkiRJWkmnx3zLrtui/5cBoJ7pGiOXpHuFJEmSpKV0bMy36Loy+n8BALg6nZ+OD0mSJEkL68z0nuj/gR/gjj6UXhKSJEmS9tTDY74VV+8P+AAtl6fHhiRJkqQddUrMt966Ofp/qAfYroMxX6PktJAkSZJ01PbHfKutL0T/D/IAu/XldF46EJIkSZLu1Lend0T/D+4Ai/L+9KKQJEmS9N+7f8y31Doc/T+sAyzDZekhIUmSJBXtpJj/zv/G6P/hHGDZbon5+gCnhiRJklSkfens9Mno/4EcYNU+m86N+ZonkiRJ0sb2lPS66P8BHKC3t6RnhSRJkrRh3SddnA5F/w/dAOtiuvbJpemBIUmSJA3ecTHfCuua6P9BG2BdXR/zNVFOCEmSJGnAzkofi/4frAFGcUU6JyRJkqRBelT6/ej/QRpgVK9KTwhJkiRpTTs95ltc3Rr9PzwDjG66Zsol6Z4hSZIkrUnHxHxLqyuj/wdmgE1zdTo/5muqSJIkSd16YXpP9P+ADLDpPpS+JyRJkqQV9/CYb13V+wMxQDWXp8eGJEmStOROiflWVTdH/w/BAFUdjPmaK3cNSZIkacHtj/nWVF+I/h98AZhdlc5LB0KSJElaQM9Ib4j+H3QB2Nrb0/NCkiRJ2mX3j/kWVIej/4dbANouSw8JSZIkaZudFPMtp66L/h9mAdiZG9OF6dSQJEmSjtJZ6ZPR/wMsAHvz2Ziv3bIvJEmSpG/qyem10f8DKwCL9eb0bSFJkqTy3T3mW0ndFv0/pAKwHNO1XKZrutw7JEmSVK5jY7511DXR/4MpAKtxfbognRCSJEkq0fR3/h+N/h9EAejjipivDyBJkqQN7VHpZdH/gycA6+FV6fEhSZKkjeluMf+d/63R/8MmAOvlUMzXB7hHSJIkadiOSeemL0X/D5gArLevpPPTcSFJkqSh+o707uj/gRKAsXwwfXdIkiRp7XtYujT6f4AEYGyXp8eEJEmS1q6TY761083R/0MjAJvhYMzXkLlrSJIkqXv7Yr6V0+ej/wdFADbTVem8dCAkSZLUpaenN0T/D4YA1PC29NyQJEnSyrpfzLdsOhz9PwwCUM9l6cEhSZKkpXVizLdoui76f/gDoLYb04XplJAkSdJCOyt9Ivp/4AOAb/aZmK9FM12TRpIkSXvoyemPov8HPAA4mjelZ4YkSZJ23Bkx33rptuj/oQ4AtmO6Ns10jZp7hyRJkpodG/Otlr4a/T/IAcBuXJ8uSMeHJEmStuzM9L7o/8ENABbhI+nskCRJ0v/okeml0f+DGgAswyvTt4YkSVLh7hbzLZRuif4fzgBgmW5NF6d7hCRJUqH2x3zLpC9F/w9kALBKX4n5WjfHhCRJ0ob3gvSu6P8BDAB6+mB6cUiSJG1gD4z51ki9P3ABwDq5LH1LSJIkbUAnx3wrpJui/4csAFhHB9NF6S4hSZI0YPti/jv/z0f/D1YAMIIrY74+wIGQJEkapKelP47+H6QAYERvS88JSZKkNe5+Mf+d/+Ho/+EJAEY3XR/gwSFJkrRGnZjOT9dG/w9LALBJbkgXplNCkiSpc2elj0f/D0gAsMk+HfO1daZr7EiSJK20J6XXRP8PRABQyZvSM0OSJGkFnRHzrYpui/4fggCgokMxX3PnXiFJkrSEjo351kRfjf4ffACAiOvTBen4kCRJWlBnpvdG/w86AMCdfTidHZIkSXvoEen3ov8HGwCg7RXpcSFJkrSDTov5lkO3RP8PMwDA9t2aLk53D0mSpKO0P+ZbDH0x+n+AAQB278sxX7vnmJAkSbpDL0jvjP4fWACAxflA+q6QJEnKHhDzrYR6f0ABAJbnsvTQkCRJJTs55lsH3RT9P5QAAMs3XdvnonSXkCRJJdoX862CPhX9P4gAAKv3uXRuzNf+kSRJG9pT0+uj/wcPAKC/t6bnhCRJ2qjuG/MtgQ5F/w8bAMD6OJwuTQ8KSZI0dMfFfAuga6P/BwwAYH3dEPO1gU4MSZI0XGelj0f/DxQAwDg+nc6J+ZpBkiRpzXt0enn0/wABAIzr1emJIUmS1rLTY761z23R/0MDADC+6dpBl6R7hSRJWouOjfnv/K+O/h8UAIDNc13M1wc4PiRJUrfOTO+N/h8MAIDN9+F0dkiSpJX2iHRZ9P8gAADUc3l6XEiSpKV2Wrow3Rz93/wBgLoOpovT3UOSJC20/THfkueL0f8NHwDg674c87WIDoQkSdpzz0/vjP5v8AAAR/L+9KKQJEm76v4x33rncPR/UwcA2I7pGkUPDUmStK1OivlWOzdF/zdxAICduiVdlO4SkiRpy/bFfGudT0X/N24AgL36bDo35msZSZKkr/XU9Lro/0YNALBob0nPDkmSinefmG+hcyj6vzkDACzLdE2jS9MDQ5KkYh0X8y1zron+b8gAAKtyQ8zXOjohJEkq0FnpY9H/DRgAoJcr0jkhSdKG9uj0+9H/DRcAYF38YXpCSJK0IZ0e861wbov+b7IAAOtmuhbSJemeIUnSoB0T861vroz+b6wAAOvu6nR+Oj4kSRqoF6b3RP83UgCA0XwovSQkSVrzHh7zLW56v3ECAIzu8vTYkCRpzTol5lva3Bz93ywBADbFwZivpXTXkCSpc/tjvoXNF6L/GyQAwKa6Kp2XDoQkSR16Rnpj9H9DBACo4h3peSFJ0oq6f8y3qjkc/d8EAQAquiw9JCRJWlInxfx3/jdG/zc9AIDqbon5+gCnhiRJC2pfOjt9Mvq/0QEAcHufTefGfG0mSZJ23VPSa6P/GxsAAEf35vSskCRph90nXZwORf83MwAAtme6RtOl6YEhSVKjY2O+xcw10f8NDACA3bk+5ms3nRCSJG3RWemj0f8NCwCAxbginROSJH2tR6WXRf83KAAAluNV6fEhSSrb6THfOubW6P+mBADAck3Xdrok3TMkSWU6JuZbxXwp+r8RAQCwWl9J56fjQpK00b0wvTv6v/EAANDXh9L3hCRp43pYzLeE6f1GAwDAerk8PSYkScN3csy3gLk5+r+5AACwng7GfG2ou4Ykabj2x3zLl89H/zcUAADGcFU6Lx0ISdIQPT29Ifq/gQAAMKa3p+eFJGltu1/Mt3Y5HP3fNAAAGN9l6SEhSVqbTor5Vi7XRf83CQAANsuN6cJ0akiSunZW+kT0f2MAAGCzfSbma0ztC0nSSnty+qPo/0YAAEAtb07fFpKkpXf3mG/Rclv0P/kDAFDTdM2p6dpT9w5J0sI7NuZbslwT/U/4AAAwuT5dkE4ISdJCOjO9P/qf4AEAYCsfSWeHJGnXPTK9NPqf0AEAYDtemR4fkqRtd7eY/87/1uh/EgcAgJ04FPP1Ae4RkqQjdkw6N30p+p+4AQBgL76Szk/HhSTpdn1Helf0P1EDAMAifTB9d0iS4mHp0uh/YgYAgGW6PD06JKlgJ8d8y5Sbov/JGAAAVuFgzNe6umtIUoH2pXPS56P/CRgAAHq4Kp2XDoQkbWhPS38c/U+4AACwDt6WnhuStEHdL+ZboRyO/idZAABYN5elB4ckDdyJMd/65Lrof1IFAIB1dmO6MJ0SkjRYZ6VPRP8TKQAAjOQzMV8za7p2liStdU9KfxT9T5wAADCyN6VnhiStYWfEfEuT26L/yRIAADbBdA2t6Vpa9w5JWoOOjfkWJl+N/idIAADYRNenC9LxIUmdOjO9L/qfEAEAoIKPpLNDklbYI9NLo/8JEAAAKnpl+taQpCV2t5hvTXJL9D/pAQBAZbemi9M9QpIW2P6Yb0Xyxeh/ogMAAL7hKzFfk+uYkKQ99oL0ruh/YgMAAI7sA+nFIUm76AEx33Kk94kMAADYvsvSt4QkbaOTY77FyE3R/+QFAADs3MF0UbpLSNIW7Yv5liJXRP8TFgAAsHefS+emAyFJX+tp6fXR/wQFAAAs3lvTc0JS6e4b861DDkX/kxIAALA8h9Ol6UEhqVQnpvPTtdH/RAQAAKzODenCdEpI2vjOSh+P/iceAACgn0+nc2K+FpikDetJ6TXR/0QDAACsjzemZ4SkjeiMmG8Bclv0P7kAAADrZ7om2CXpXiFpyI5N56WvRv8TCgAAsP6uSxek40PSMJ2Z3hv9TyAAAMB4PpzODklr3SPSZdH/hAEAAIzvFelxIWmtOi3mW3ncEv1PEgAAwOa4NV2c7h6SurY/5lt3fDH6nxgAAIDN9eWYrzF2TEhaec9P74z+JwIAAKCOD6TvCkkr6QEx36Kj9wsfAACoa7r22END0lI6KeZbctwU/V/sAAAA0zXILkp3CUkLaV/Mt+D4VPR/gQMAANzR59K5MV+jTNIue2p6ffR/QQMAALS8NT07JO2o+8Z8q41D0f9FDAAAsF2H06XpQSHpqB0X8601ro3+L1wAAIDduiHma5idGJLu1FnpY9H/hQoAALAon07nxHxtM6l8j04vj/4vTAAAgGV5dXpiSEU7PeZbZtwW/V+MAAAAyzZd4+ySdK+QinRszLfIuDL6vwABAABW7ep0fjo+pA3uzPTe6P+CAwAA6O3D6SUhbVgPj/lWGL1fYAAAAOvm8vTYkAbvtHRhujn6v6gAAADW1cF0cbp7SIO1P+ZbXXwh+r+QAAAARvHldF46ENIAfXt6R/R/4QAAAIzq/elFIa1p94/5lhaHo/+LBQAAYBNclh4a0pp0Urog3Rj9XxwAAACb5pZ0UTo1pE7tS2enT0b/FwQAAMCm+2w6N+Zrrkkr6ynpddH/BQAAAFDNW9KzQlpy94n51hSHov9BDwAAUNV07bVL0wNDWnDHxXwrimui/4EOAADA7IaYr8l2QkgL6Kz0seh/YAMAALC1K9I5Ie2yR6Xfj/4HMgAAANvzh+kJIW2z02O+xcSt0f/gBQAAYGema7Zdku4ZUqP/M/ofsAAAAOzN9N1OOmoGAAAAgPEZANTMAAAAADA+A4CaGQAAAADGZwBQMwMAAADA+AwAamYAgPF9Pr0h/Xr6B+mvpj+X/nQ6Mz0nPSU9PD30a574tf/tqV/7/3xf+tF0fvqF9Kvp5ekD6cY1+B0B2J7D6VPpD9I/T3895veEP5m+I+Zz/yPiG+8HXzfdRuzZ6UXp7JjfE34m5veWt6Xr1+B3A47OAKBmBgAYx/RF/LXpH8f85f4x6cRYTfdKT0s/mH4+/U76aMy3nen9uABU9uX02zF/0X9yOimW0770wPTi9I/SW8N7AKwbA4CaGQBgfV0d8395+Wsx/xebY2L9mj5oPj3mD56/lj4e/R83gE33+vQ3Y/7Cvz/6dUbMg/S/Tl+M/o8LVGcAUDMDAKyXz6RfTt+Zjo0xm/61wPemX4r5Twh6P6YAm2AaWH825j/nWsem96zp3P+f08Ho/3hBRQYANTMAQH9Xpl+M+b+kT//EctOa/sno9Lekvxnzv2ro/XgDjGL6J/b/KT03xnp/uEf6qfCvwmDVDABqZgCAfqa/nzw3lvf3muvYgZgvSnhR+kL0fw4A1tH0xf/SmK/1MnLTnydMFxT8YPR/TKECA4CaGQBgtaYL+V0c81X4qzdd02D6U4dfSddG/+cGoLdbY/57+gfHZjWd7/98GAJg2QwAamYAgNWYPtRdEpv3oW5RnRDzfyW6POZbWPV+vgBW7c0x321lk5uGgPPC6AvLYgBQMwMALNf0zzh/I9b3ok3r2CNjviaC6wUAFUx/DnVOjPU3/nttujbM70b/xx42jQFAzQwAsDyvDP/Ufy+dmn4yfSz6P5cAy/Cr6bSo25+K+e43vZ8H2BQGADUzAMDiTf/l+kei1n/NWWbThQN/IP1x9H9uARbhmvSDoanpjgF/EP2fE9gEBgA1MwDAYr00PSC0rM6M+e9kez/PALv1tvSw0Dc3Debnp9ui//MDIzMAqJkBABbjqvBfc1bV9EFx+mej747+zzvATvxyOi50pP5E+lL0f55gVAYANTMAwN69PVzdv0fT/aV/KPz9KLD+prub/HRoOz00fTT6P2cwIgOAmhkAYG9+PZ0U6tn0+F+Qbor+xwPAHU23gZ2uC6Ptd6/0juj/3MFoDABqZgCA3Zn+TnH6e0WtT9Pf1F4a/Y8NgK+7Pr04tJumuyO8Nvo/hzASA4CaGQBg56YPdN8ZWtem6wN8PvofJ0BtN6RnhfbS9C+8/mv0fy5hFAYANTMAwM5cl14QWvem/3J0cfQ/XoCaDob/8r+ophHAbWBhewwAamYAgO27Oj0zNFLfkz4b/Y8doI5D6c+GFtnd0wej/3ML684AoGYGANieK9OTQiN2j/Sy6H8MATX8ldAymu4O8IXo//zCOjMAqJkBANquTU8Ijdx0y8Cfifnijb2PJ2Bz/dPQMntKujH6P8+wrgwAamYAgKOb/innnwxtSs8PFwgEluON6bjQsvux6P9cw7oyAKiZAQCO7qdCm9b90uuj/7EFbI7pz8QeEFpVvxn9n3NYRwYANTMAwJH9amhTOz79WvQ/xoDxTf9S7LtCq+yU9KHo/9zDujEAqJkBALb26nRsaJObrgvwC9H/WAPG9k9CPXpazLdb7P38wzoxAKiZAQDu7Jr0oFCVfjTdGv2PO2A8n4r5v0arT0ZcuD0DgJoZAODOfjhUre9NN0f/Yw8Yi4vE9m0aXz4d/Y8DWBcGADUzAMDt/ZdQ1aa/4b0p+h+DwBh+O7QO/ZnofyzAujAAqJkBAL7hqnTvUOVeEv4lANB2fbjq/zp1efQ/JmAdGADUzAAA33BuSEYAoG3623OtT4+J+W4MvY8L6M0AoGYGAJh9MB0T0tz0d723Rf/jElg/N6R7htat/xj9jw3ozQCgZgYAmP1ASLfvL0f/4xJYP277t549IR2O/scH9GQAUDMDAES8Oe0L6c65xRTwzaYLhd43tK69LPofI9CTAUDNDAAQ8YKQtm5/+s3of4wC6+GXQ+vcs6P/MQI9GQDUzABAdW8J6eidkF4X/Y9VoL8nhta96V/19T5OoBcDgJoZAKjuR0Jqd0b6aPQ/XoF+3h0aob8e/Y8V6MUAoGYGACr7ajo5pO316JiPmd7HLdDHeaERmgbbW6L/8QI9GADUzABAZReFtLO+K9weECo6mO4RGqXfjf7HDPRgAFAzAwCVPSaknfc3ov+xC6zW74RGarq1b+9jBnowAKiZAYCq3hHS7vuV6H8MA6vzY6GRmi7eOt2ysfdxA6tmAFAzAwBV/b2Qdt+x6VXR/zgGVuNbQqP1yuh/3MCqGQDUzABAVW7lpL3mzgBQwydDI/Z3o/+xA6tmAFAzAwAVXZX2h7T3HpWujv7HNLA805/8aLyeFf2PHVg1A4CaGQCo6D+GtLheFO4MAJvsB0Mjdky6NvofP7BKBgA1MwBQkXs5a9H9ZPQ/roHleHho1P4g+h8/sEoGADUzAFDRs0NafP8y+h/bwGLdEvN/SdaY/VL0P4ZglQwAamYAoJpD6ZSQFt90ZwBXnYbN8t7QyP149D+GYJUMAGpmAKCaT4S0vE5PH4r+xzmwGK4ZM3YvjP7HEKySAUDNDABUc3lIy+2R6SvR/1gH9u7nQiN3/+h/DMEqGQDUzABANReHtPzOTLdG/+Md2Ju/GBq5fen66H8cwaoYANTMAEA1PxvSavqR6H+8A3vzp0Kjd0X0P45gVQwAamYAoJqfCGl1/Yvof8wDuzf9DbnG7n3R/ziCVTEAqJkBgGp+KKTVNd0+7L9G/+Me2J2nh0bvDdH/OIJVMQComQGAar4/pNV2l5hvJdb72Ad27tGh0fuD6H8cwaoYANTMAEA1Lwlp9T0kXRn9j39gZ6aryGvsfiv6H0ewKgYANTMAUM13hdSnF6SD0f81AGzf3UOj9++j/3EEq2IAUDMDANUYANSzH47+rwFg+wwA4/f/Rf/jCFbFAKBmBgCqMQCod/8s+r8OgO0xAIyfAYBKDABqZgCgGgOAencgXRb9XwtAmwFg/AwAVGIAUDMDANUYALQOnZreHf1fD8DRGQDGzwBAJQYANTMAUI0BQOvSg9MXo/9rAjgyA8D4GQCoxACgZgYAqjEAaJ16Tro5+r8ugK0ZAMbPAEAlBgA1MwBQjQFA69ZfiP6vC2BrBoDxMwBQiQFAzQwAVGMA0Dr2i9H/tQHcmQFg/AwAVGIAUDMDANUYALSO7U+/G/1fH8DtGQDGzwBAJQYANTMAUI0BQOvaKeld0f81AnyDAWD8DABUYgBQMwMA1RgAtM49KH0h+r9OgJkBYPwMAFRiAFAzAwDVGAC07j0r3BkA1oUBYPwMAFRiAFAzAwDVGAA0Qn8++r9WAAPAJprqfTkAACAASURBVGQAoBIDgJoZAKjGAKBR+ofR//UC1RkAxs8AQCUGADUzAFCNAUCjNN0Z4D9H/9cMVGYAGD8DAJUYANTMAEA1BgCN1InpLdH/dQNVGQDGzwBAJQYANTMAUI0BQKN13/SZ6P/agYoMAONnAKASA4CaGQCoxgCgEXtKuiH6v36gGgPA+BkAqMQAoGYGAKoxAGjUzk6Ho/9rCCoxAIyfAYBKDABqZgCgGgOARu7nov9rCCoxAIyfAYBKDABqZgCgGgOARm5f+o3o/zqCKgwA42cAoBIDgJoZAKjGAKDRm+4M8Kbo/1qCCgwA42cAoBIDgJoZAKjGAKBN6D7p09H/9QSbzgAwfgYAKjEAqJkBgGoMANqUnhzuDADLZgAYPwMAlRgA1MwAQDUGAG1SPxDuDADLZAAYPwMAlRgA1MwAQDUGAG1aF0T/1xVsKgPA+BkAqMQAoGYGAKoxAGjTmu4M8GvR/7UFm8gAMH4GACoxAKiZAYBqDADaxE5Ib4z+ry/YNAaA8TMAUIkBQM0MAFRjANCmdu90RfR/jcEmMQCMnwGASgwAamYAoBoDgDa5J6Xro//rDDaFAWD8DABUYgBQMwMA1RgAtOl9fzoU/V9rsAkMAONnAKASA4CaGQCoxgCgCv1M9H+twSYwAIyfAYBKDABqZgCgGgOAKjTdGcCHXtg7A8D4ORdSiQFAzQwAVGMAUJWmOwP8cfR/zcHIDADjZwCgEgOAmhkAqMYAoErdK30q+r/uYFQGgPEzAFCJAUDNDABUYwBQtR6bron+rz0YkQFg/AwAVGIAUDMDANUYAFSx7063Rf/XH4zGADB+BgAqMQComQGAagwAqtrfjv6vPxiNAWD8DABUYgBQMwMA1RgAVLl/E/1fgzASA8D4GQCoxACgZgYAqjEAqHLHpldH/9chjMIAMH4GACoxAKiZAYBqDACq3hnpo9H/tQgjMACMnwGASgwAamYAoBoDgBTxmPTV6P96hHVnABg/AwCVGADUzABANQYAaW56LbgzABydAWD8DABUYgBQMwMA1RgApG/0t6L/axLWmQFg/AwAVGIAUDMDANUYAKTbd3H0f13CujIAjJ8BgEoMAGpmAKAaA4B0+6Y7A7wq+r82YR0ZAMbPAEAlBgA1MwBQjQFAunPTnQE+Ev1fn7BuDADjZwCgEgOAmhkAqMYAIG3do9LV0f81CuvEADB+BgAqMQComQGAagwA0pF7Ubo1+r9OYV0YAMbPAEAlBgA1MwBQjQFAOno/Ff1fp7AuDADjZwCgEgOAmhkAqMYAILX7V9H/tQrrwAAwfgYAKjEAqJkBgGoMAFK76c4Ar4j+r1fozQAwfgYAKjEAqJkBgGoMANL2Oj19OPq/ZqEnA8D4GQCoxACgZgYAqjEASNvvkekr0f91C70YAMbPAEAlBgA1MwBQjQFA2lnfGe4MQF0GgPEzAFCJAUDNDABUYwCQdt5PRP/XLvRgABg/AwCVGADUzABANQYAaXf9i+j/+oVVMwCMnwGASgwAamYAoBoDgLS7DqSXRv/XMKySAWD8DABUYgBQMwMA1RgApN13l/Te6P86hlUxAIyfAYBKDABqZgCgGgOAtLcekq6M/q9lWAUDwPgZAKjEAKBmBgCqMQBIe++56Zbo/3qGZTMAjJ8BgEoMAGpmAKAaA4C0mH44+r+eYdkMAONnAKASA4CaGQCoxgAgLa5/Fv1f07BMBoDxMwBQiQFAzQwAVGMAkBbXdGeAy6L/6xqWxQAwfgYAKjEAqJkBgGoMANJiOzW9J/q/tmEZDADjZwCgEgOAmhkAqMYAIC2+B6cvRf/XNyyaAWD8DABUYgBQMwMA1RgApOX0nHRz9H+NwyIZAMbPAEAlBgA1MwBQjQFAWl5/Mfq/xmGRDADjZwCgEgOAmhkAqMYAIC23fxz9X+ewKAaA8TMAUIkBQM0MAFRjAJCW2/70u9H/tQ6LYAAYPwMAlRgA1MwAQDUGAGn5TXcGeFf0f73DXhkAxs8AQCUGADUzAFCNAUBaTQ9KX4z+r3nYCwPA+BkAqMQAoGYGAKoxAEir61nhzgCMzQAwfgYAKjEAqJkBgGoMANJqOyf6v+5htwwA42cAoBIDgJoZAKjGACCtvguj/2sfdsMAMH4GACoxAKiZAYBqDADS6pvuDPA70f/1DztlABg/AwCVGADUzABANQYAqU+npHdG/3MA7IQBYPwMAFRiAFAzAwDVGACkft03fSb6nwdguwwA42cAoBIDgJoZAKjGACD17anphuh/LoDtMACMnwGASgwAamYAoBoDgNS/s9Ph6H8+gBYDwPgZAKjEAKBmBgCqMQBI65H3H0ZgABg/AwCVGADUzAcwqjEASOvRvvQfov85AY7GADB+BgAqMQComQGAagwA0vp0Ynpz9D8vwJEYAMbPAEAlBgA1MwBQjQFAWq+mOwN8OvqfG2ArBoDxMwBQiQFAzQwAVGMAkNavJ4c7A7CeDADjZwCgEgOAmhkAqMYAIK1nfzrcGYD1YwAYPwMAlRgA1MwAQDUGAGl9uyD6nyPgmxkAxs8AQCUGADUzAFCNAUBa36Y7A/x69D9PwNcZAMbPAEAlBgA1MwBQjQFAWu+mOwO8MfqfK2BiABg/AwCVGADUzABANQYAaf27T7oi+p8vwAAwfgYAKjEAqJkBgGoMANIYPSldH/3PGdRmABg/AwCVGADUzABANQYAaZy+Px2K/ucN6jIAjJ8BgEoMAGpmAKAaA4A0Vn8v+p83qMsAMH4GACoxAKiZAYBqDADSWE13Bvj30f/cQU0GgPEzAFCJAUDNDABUYwCQxuuE9Ibof/6gHgPA+BkAqMQAoGYGAKoxAEhjdu/0qeh/DqEWA8D4GQCoxACgZgYAqjEASOP2xHRd9D+PUIcBYPwMAFRiAFAzAwDVGACksfvudFv0P5dQgwFg/AwAVGIAUDMDANUYAKTx+9+i/7mEGgwA42cAoBIDgJoZAKjGACBtRv8m+p9P2HwGgPEzAFCJAUDNDABUYwCQNqPj0quj/zmFzWYAGD8DAJUYANTMAEA1BgBpc5q+nH00+p9X2FwGgPEzAFCJAUDNDABUYwCQNqvHpK9G/3MLm8kAMH4GACoxAKiZAYBqDADS5vXicGcAlsMAMH4GACoxAKiZAYBqDADSZvbT0f/8wuYxAIyfAYBKDABqZgCgGgOAtLldHP3PMWwWA8D4GQCoxACgZgYAqjEAjN105fcTev8QWtum4+M10f88w+YwAIyfAYBKDABqZgCgGgPA2E0fxi9N+3r/IFrbzkgfif7nGjaDAWD8DABUYgBQMwMA1RgAxm76MD49jz/T+wfRWvfodHX0P98wPgPA+BkAqMQAoGYGAKoxAIzd1weAw+kHO/8sWu9elG6N/uccxmYAGD8DAJUYANTMAEA1BoCx+/oAMLkxPaPvj6M176ei/zmHsRkAxs8AQCUGADUzAFCNAWDsvnkAmHwuPaDrT6R1719F//MO4zIAjJ8BgEoMAGpmAKAaA8DY3XEAmLw9ndzzh9Jad2x6RfQ/9zAmA8D4GQCoxACgZgYAqjEAjN1WA8Dkt9P+jj+X1rvT04ej//mH8RgAxs8AQCUGADUzAFCNAWDsjjQATH6+48+l9e+R6SvR/xzEWAwA42cAoBIDgJoZAKjGADB2RxsAJj/a70fTAH1nuDMAO2MAGD8DAJUYANTMAEA1BoCxaw0AB9Pze/1wGqKfiP7nIcZhABg/AwCVGADUzABANQaAsWsNAJOr0sN6/YAaol+O/ucixmAAGD8DAJUYANTMAEA1BoCx284AMHl/Oq3Tz6j175h0efQ/H7H+DADjZwCgEgOAmhkAqMYAMHbbHQAmL4/5i560VXdJ743+5yTWmwFg/AwAVGIAUDMDANUYAMZuJwPA5KI+P6YG6aHpyuh/XmJ9GQDGzwBAJQYANTMAUI0BYOx2OgBMfrzLT6pRel66Jfqfm1hPBoDxMwBQiQFAzQwAVGMAGLvdDADTbd/O7PHDaph+OPqfm1hPBoDxMwBQiQFAzQwAVGMAGLvdDACTa9JjO/y8Gqfpz0V6n59YPwaA8TMAUIkBQM0MAFRjABi73Q4Ak4+ne6z+R9YgHUiXRf9zFOvFADB+BgAqMQComQGAagwAY7eXAWDyR+m4lf/UGqVT03ui/3mK9WEAGD8DAJUYANTMAEA1BoCx2+sAMPm3K/+pNVIPSV+K/ucq1oMBYPwMAFRiAFAzAwDVGADGbhEDwORvrvoH11A9J90c/c9X9GcAGD8DAJUYANTMAEA1BoCxW9QAcCh974p/do3VX4z+5yv6MwCMnwGASgwAamYAoBoDwNgtagCYXJeesNofX4P1T6L/OYu+DADjZwCgEgOAmhkAqMYAMHaLHAAmn0n3W+lvoJHan/5L9D9v0Y8BYPwMAFRiAFAzAwDVGADGbtEDwOQt6aRV/hIaqunOAO+O/ucu+jAAjJ8BgEoMAGpmAKAaA8DYLWMAmFya9q3w99BYPTh9Mfqfv1g9A8D4GQCoxACgZgYAqjEAjN2yBoDJ31vh76Hxena4M0BFBoDxMwBQiQFAzQwAVGMAGLtlDgCH0w+u7lfRgJ0T/c9hrJYBYPwMAFRiAFAzAwDVGADGbpkDwOSm9IyV/TYasX8U/c9jrI4BYPwMAFRiAFAzAwDVGADGbtkDwOTz6QGr+oU0XNOdAX4n+p/LWA0DwPgZAKjEAKBmBgCqMQCM3SoGgMk70ikr+p00XtOx8c7ofz5j+QwA42cAoBIDgJoZAKjGADB2qxoAJi9NB1bza2nAHpS+EP3PaSyXAWD8DABUYgBQMwMA1RgAxm6VA8DkwtX8Whq0p6Ybo/95jeUxAIyfAYBKDABqZgCgGgPA2K16AJj85ZX8Zhq1PxPzHSR6n9tYDgPA+BkAqMQAoGYGAKoxAIxdjwHgYHrBKn45Dds/iP7nNpbDADB+BgAqMQComQGAagwAY9djAJhclR62gt9PY7Yv/Yfof35j8QwA42cAoBIDgJoZAKjGADB2vQaAyQfSacv/FTVoJ6Y3R/9zHItlABg/AwCVGADUzABANQaAses5AEz+azpm6b+lRu2+6TPR/zzH4hgAxs8AQCUGADUzAFCNAWDseg8Ak19a+m+pkXtKuiH6H6cshgFg/AwAVGIAUDMDANUYAMZuHQaAyY8v+xfV0P3pcGeATWEAGD8DAJUYANTMAEA1BoCxW5cB4Lb0PUv+XTV2Pxv9j1P2zgAwfgYAKjEAqJkBgGoMAGO3LgPA5Jr0uOX+uhq46c4Avx79j1P2xgAwfgYAKjEAqJkBgGoMAGO3TgPA5OPpHkv9jTVy050B3hT9j1N2zwAwfgYAKjEAqJkBgGoMAGO3bgPA5LXp+GX+0hq6+6RPR//jlN0xAIyfAYBKDABqZgCgGgPA2K3jADD5f5b5S2v4npSuj/7HKTtnABg/AwCVGADUzABANQaAsVvXAWDyt5b4e2v8vj8div7HKTtjABg/AwCVGADUzABANQaAsVvnAWD6cve9y/vVtQH979H/OGVnDADjZwCgEgOAmhkAqMYAMHbrPABMrktPWNpvr9Gb7gzw76P/ccr2GQDGzwBAJQYANTMAUI0BYOzWfQCYfDbdb1kPgIbvhPSG6H+csj0GgPEzAFCJAUDNDABUYwAYuxEGgMlb00lLegw0fvdOV0T/45Q2A8D4GQCoxACgZgYAqjEAjN0oA8Dk0pj/ybe0VU8MdwYYgQFg/AwAVGIAUDMDANUYAMZupAFg8veX8zBoQ/q+cGeAdWcAGD8DAJUYANTMAEA1BoCxG20AOJz+3FIeCW1Kfyf6H6ccmQFg/AwAVGIAUDMDANUYAMZutAFgclN65jIeDG1MvxL9j1O2ZgAYPwMAlRgA1MwAQDUGgLEbcQCYfD49cAmPhzaj49Kro/9xyp0ZAMbPAEAlBgA1MwBQjQFg7EYdACbvSKcs/iHRhjQd2x+N/scpt2cAGD8DAJUYANTMAEA1BoCxG3kAmLw0HVj4o6JN6THpq9H/OOUbDADjZwCgEgOAmhkAqMYAMHajDwCTf7TwR0Wb1IvTbdH/OGVmABg/AwCVGADUzABANQaAsduEAWBy7qIfGG1UPx39j1FmBoDxMwBQiQFAzQwAVGMAGLtNGQAOphcs+LHRZnVx9D9OMQBsQgYAKjEAqJkBgGoMAGO3KQPA5Kr0sMU+PNqgjk2viv7HaXUGgPEzAFCJAUDNDABUYwAYu00aACYfSKct9BHSJnVG+kj0P04rMwCMnwGASgwAamYAoBoDwNht2gAw+YN0zCIfJG1Uj05XR//jtCoDwPgZAKjEAKBmBgCqMQCM3SYOAJN/s8gHSRvXi9Kt0f84rcgAMH4GACoxAKiZAYBqDABjt6kDwOSvLfBx0ub1v0T/Y7QiA8D4GQCoxACgZgYAqjEAjN0mDwDTvd+/Z3EPlTawfxX9j9NqDADjZwCgEgOAmhkAqMYAMHabPABMrkmPW9ijpU1rujPAK6P/cVqJAWD8DABUYgBQMwMA1RgAxm7TB4DJx9M9FvWAaeM6PX04+h+nVRgAxs8AQCUGADUzAFCNAWDsKgwAk9em4xf0mGnzemS4M8CqGADGzwBAJQYANTMAUI0BYOyqDACT/3cxD5k2tO8MdwZYBQPA+BkAqMQAoGYGAKoxAIxdpQFg8tOLedi0of316H+MbjoDwPgZAKjEAKBmBgCqMQCMXbUB4FD63oU8ctrUfjn6H6ebzAAwfgYAKjEAqJkBgGoMAGNXbQCY3JCetogHTxvZMeny6H+cbioDwPgZAKjEAKBmBgCqMQCMXcUBYPLZdL8FPH7azO6WPhT9j9NNZAAYPwMAlRgA1MwAQDUGgLGrOgBM3ppO2vtDqA3toenK6H+cbhoDwPgZAKjEAKBmBgCqMQCMXeUBYPIf0749P4ra1J6Xbon+x+kmMQCMnwGASgwAamYAoBoDwNhVHwAmF+z1QdRG9yPR/xjdJAaA8TMAUIkBQM0MAFRjABg7A0DE4fRDe30gtdH9UvQ/TjeFAWD8DABUYgBQMwMA1RgAxs4AMLspPXOPj6U2twPp96L/cboJDADjZwCgEgOAmhkAqMYAMHYGgG/4fHrg3h5ObXB3Se+J/sfp6AwA42cAoBIDgJoZAKjGADB2BoDbe2/MX/SkrXpI+lL0P05HZgAYPwMAlRgA1MwAQDUGgLEzANzZy2L+J9/SVj033BlgLwwA42cAoBIDgJoZAKjGADB2BoCt/cJeHlRtfH8p+h+jozIAjJ8BgEoMAGpmAKAaA8DYGQCO7Mf28Lhq8/u/ov8xOiIDwPgZAKjEAKBmBgCqMQCMnQHgyA6m79j9Q6sNb3/6L9H/OB2NAWD8DABUYgBQMwMA1RgAxs4AcHRfTg/f9aOrTe/U9O7of5yOxAAwfgYAKjEAqJkBgGoMAGNnAGj7YLrbbh9gbXwPTl+M/sfpKAwA42cAoBIDgJoZAKjGADB2BoDt+YN0zC4fY21+z043R//jdAQGgPEzAFCJAUDNDABUYwAYOwPA9v3KLh9j1egvRP9jdAQGgPEzAFCJAUDNDABUYwAYOwPAzvzE7h5mFWm6fWTvY3TdGQDGzwBAJQYANTMAUI0BYOwMADtzW3rJrh5pVWi6M8DvRP/jdJ0ZAMbPAEAlBgA1MwBQjQFg7AwAO3dtetxuHmyV6JT0ruh/nK4rA8D4GQCoxACgZgYAqjEAjJ0BYHc+ke65i8dbNXpQ+kL0P07XkQFg/AwAVGIAUDMDANUYAMbOALB7r0vH7/whV5GeFe4MsBUDwPgZAKjEAKBmBgCqMQCMnQFgb/7dzh9yFerPpMPR/zhdJwaA8TMAUIkBQM0MAFRjABg7A8Denb/jR12V+vnof4yuEwPA+BkAqMQAoGYGAKoxAIydAWDvDqU/tdMHXmXal34z+h+n68IAMH4GACoxAKiZAYBqDABjZwBYjBvT03b42KtOJ6Y3R//jdB0YAMbPAEAlBgA1MwBQjQFg7AwAi/PZdP+dPfwq1H3TZ6L/cdqbAWD8DABUYgBQMwMA1RgAxs4AsFhvSyft6BlQpZ6Sboj+x2lPBoDxMwBQiQFAzQwAVGMAGDsDwOL9p5j/7lvaqrOj9p0BDADjZwCgEgOAmhkAqMYAMHYGgOX42Z08CSrX/xH9j9FeDADjZwCgEgOAmhkAqMYAMHYGgOWY/gvvD+3geVCtpn8h8hvR/zjtwQAwfgYAKjEAqJkBgGoMAGNnAFiem9K3bf+pULGmOwO8Kfofp6tmABg/AwCVGADUzABANQaAsTMALNeV6aHbfjZUrfukT0f/43SVDADjZwCgEgOAmhkAqMYAMHYGgOV7X7rrdp8QlevJ6frof5yuigFg/AwAVGIAUDMDANUYAMbOALAaL0sHtvmcqF4/EHXuDGAAGD8DAJUYANTMAEA1BoCxMwCszj/e5nOimv396H+MroIBYPwMAFRiAFAzAwDVGADGzgCwWj+2vadFBZvuDPBr0f8YXTYDwPgZAKjEAKBmBgCqMQCMnQFgtQ6m79jWM6OKnZDeEP2P02UyAIyfAYBKDABqZgCgGgPA2BkAVu/L6eHbeXJUsnunK6L/cbosBoDxMwBQiQFAzQwAVGMAGDsDQB8fTHfbxvOjmj0xNvfOAAaA8TMAUIkBQM0MAFRjABg7A0A/r07HNZ8hVe370qHof5wumgFg/AwAVGIAUDMDANUYAMbOANDXr7SfIhXu70T/Y3TRDADjZwCgEgOAmhkAqMYAMHYGgP5+svksqXKXRP9jdJEMAONnAKASA4CaGQCoxgAwdgaA/m5LL2k9USrb9Gcir47+x+miGADGzwBAJQYANTMAUI0BYOwMAOvh2vStjedKdZtepx+L/sfpIhgAxs8AQCUGADUzAFCNAWDsDADr4xPpnkd/ulS4x6SvRv/jdK8MAONnAKASA4CaGQCoxgAwdgaA9fK6dPxRnzFV7sUx/8lI7+N0LwwA42cAoBIDgJoZAKjGADB2BoD18++O+oypev9r9D9G98IAMH4GACoxAKiZAYBqDABjZwBYT3/7aE+ayvd/R/9jdLcMAONnAKASA4CaGQCoxgAwdgaA9XQ4/U9Hed5Uu2PTH0b/43Q3DADjZwCgEgOAmhkAqMYAMHYGgPV1Y3rakZ86Fe+M9JHof5zulAFg/AwAVGIAUDMDANUYAMbOALDePpvuf8RnT9V7dIx3ZwADwPgZAKjEAKBmBgCqMQCMnQFg/b0tnXykJ1Dle1GMdWcAA8D4GQCoxACgZgYAqjEAjJ0BYAy/lfYf4TmU/kb0P0a3ywAwfgYAKjEAqJkBgGoMAGNnABjHzx3hOZSm/nX0P0a3wwAwfgYAKjEAqJkBgGoMAGNnABjHdGeA/3nrp1H673cGeGX0P05bDADjZwCgEgOAmhkAqMYAMHYGgLHclL5ty2dSijg9fTj6H6dHYwAYPwMAlRgA1MwAQDUGgLEzAIznyvQtWz2ZUvaodHX0P06PxAAwfgYAKjEAqJkBgGoMAGNnABjT+9Jdt3g+pak/kW6N/sfpVgwA42cAoBIDgJoZAKjGADB2BoBx/X46cOenVPrv/WT0P0a3YgAYPwMAlRgA1MwAQDUGgLEzAIztn9z5KZX+R/8y+h+jd2QAGD8DAJUYANTMAEA1BoCxMwCM76/c6VmV5o5Jr4j+x+g3MwCMnwGASgwAamYAoBoDwNgZAMZ3ML3wjk+s9LXulj4U/Y/TrzMAjJ8BgEoMAGpmAKAaA8DYGQA2w5fTI0Laukemr0T/43RiABg/AwCVGADUzABANQaAsTMAbI6PhS9XOnLPS7dE/+PUMTp+BgAqMQComQGAagwAY2cA2CyvSceFtHU/Ev2PUQPA+BkAqMQAoGYGAKoxAIydAWDz/GpIR+6fR9/j0wAwfgYAKjEAqJkBgGoMAGNnANhM54W0dQfS70W/Y9MAMH4GACoxAKiZAYBqDABjZwDYTIfSWSFt3V3Se6PPsWkAGD8DAJUYANTMAEA1BoCxMwBsrmvTt4a0dQ9JX4rVH5cGgPEzAFCJAUDNDABUYwAYOwPAZvtEumdIW/fcWP2dAQwA42cAoBIDgJoZAKjGADB2BoDN9/p0fEhb95ditcejAWD8DABUYgBQMwMA1RgAxs4AUMN/SPtC2rp/Gqs7Fg0A42cAoBIDgJoZAKjGADB2BoA6/k5IW7c/XRarOQ4NAONnAKASA4CaGQCoxgAwdgaAOg6nPxvS1p2a3h3LPw4NAONnAKASA4CaGQCoxgAwdgaAWm5MTw9p6x6cvhjLPQYNAONnAKASA4CaGQCoxgAwdgaAej6X7h/S1j0n3RzLO/4MAONnAKASA4CaGQCoxgAwdgaAmt6eTg5p6/5CLO/YMwCMnwGASgwAamYAoBoDwNgZAOr6rZgv/iZt1S/Gco47A8D4GQCoxACgZgYAqjEAjJ0BoDYfbHSkpnHod2Pxx5wBYPwMAFTifVLNDABUYwAYOwNAbdOdAf58SFt3SnpXLPaYMwCMnwGASgwAamYAoBoDwNgZALglfXtIW/eg9IVY3PFmABg/AwCVGADUzABANQaAsTMAMLkyfUtIW/esWNydAQwA42cAoBIDgJoZAKjGADB2BgC+7n3priFt3fSnIos4zgwA42cAoBIDgJoZAKjGADB2BgC+2cvTMSFt3T+MvR9jBoDxMwBQiQFAzQwAVGMAGDsDAHf0T0Paun3pN2Nvx5cBYPwMAFRiAFAzAwDVGADGzgDAVv5qSFt3YnpL7P7YMgCMnwGASgwAamYAoBoDwNgZANjKwfTCkLbuvukzsbtjywAwfgYAKjEAqJkBgGoMAGNnAOBIvpIeEdLWPSXdEDs/rgwA42cAoBIDgJoZAKjGADB2BgCO5mPhC5uO3NnpcOzsmHI8jZ8BgEoMAGpmAKAaA8DYGQBoeU06LqSt+7nY2fFkABg/AwCV69wWpQAAIABJREFUGADUzABANQaAsTMAsB2/GtLWTXcG+I3Y/rFkABg/AwCVGADUzABANQaAsTMAsF0/FdLWTXcGeFNs7zgyAIyfAYBKDABqZgCgGgPA2BkA2K5D6ayQtu4+6dPRPo4MAONnAKASA4CaGQCoxgAwdgYAduLa9PiQtu7J6fo4+jFkABg/AwCVGADUzABANQaAsTMAsFOfTPcKaet+II5+ZwADwPgZAKjEAKBmBgCqMQCMnQGA3Xh9OiGkrfv7ceRjxwAwfgYAKjEAqJkBgGoMAGNnAGC3fjPmK8BLd2w6Ln4ttj5uDADjZwCgEgOAmhkAqMYAMHYGAPbi74a0ddO/EHlD3PmYMQCMnwGASgwAamYAoBoDwNgZANiL6W+9/2xIW3fvdEXc/pgxAIyfAYBKDABqZgCgGgPA2BkA2Ksb09ND2ronxu3vDGAAGD8DAJUYANTMAEA1BoCxMwCwCJ9LDwhp674vHYr5WDEAjJ8BgEoMAGpmAKAaA8DYGQBYlLenk0Pauul6EdNxYgAYPwMAlRgA1MwAQDUGgLEzALBIv5X2h3TnpjsDTF8cDQDjZwCgEgOAmhkAqMYAMHYGABbt50PauunOAMf1/iG05wwAVGIAUDMDANUYAMbOAMAy/GhI2tQMAFRiAFAzAwDVGADGzgDAMhxMzw9Jm5gBgEoMAGpmAKAaA8DYGQBYlqvSw0LSpmUAoBIDgJoZAKjGADB2BgCW6f3ptJC0SRkAqMQAoGYGAKoxAIydAYBle3k6JiRtSgYAKjEAqJkBgGoMAGNnAGAV/llI2pQMAFRiAFAzAwDVGADGzgDAqvzVkLQJGQCoxACgZgYAqjEAjJ0BgFW5NZ0ZkkbPAEAlBgA1MwBQjQFg7AwArNI16bEhaeQMAFRiAFAzAwDVGADGzgDAqn0s5uNO0pgZAKjEAKBmBgCqMQCMnQGAHv4oHReSRswAQCUGADUzAFCNAWDsDAD08m9D0ogZAKjEAKBmBgCqMQCMnQGAnv5GSBotAwCVGADUzABANQaAsTMA0NOh9CdD0kgZAKjEAKBmBgCqMQCMnQGA3q5Ljw9Jo2QAoBIDgJoZAKjGADB2BgDWwSfTvULSCBkAqMQAoGYGAKoxAIydAYB18ZZ0Ukha9wwAVGIAUDMDANUYAMbOAMA6uTTtC0nrnAGASgwAamYAoBoDwNgZAFg3PxOS1jkDAJUYANTMAEA1BoCxMwCwbg6nHwxJ65oBgEoMAGpmAKAaA8DYGQBYRzemZ4SkdcwAQCUGADUzAFCNAWDsDACsq8+nB4SkdcsAQCUGADUzAFCNAWDsDACss3ekk0PSOmUAoBIDgJoZAKjGADB2BgDW3W+n/SFpXTIAUIkBQM0MAFRjABg7AwAj+IchaV0yAFCJAUDNDABUYwAYOwMAo/jLIWkdMgBQiQFAzQwAVGMAGDsDAKM4mJ4fknpnAKASA4CaGQCoxgAwdgYARnJVelhI6pkBgEoMAGpmAKAaA8DYGQAYzfvTaSGpVwYAKjEAqJkBgGoMAGNnAGBEL0/HhKQeGQCoxACgZgYAqjEAjJ0BgFFdFJJ6ZACgEgOAmhkAqMYAMHYGAEb24yFp1RkAqMQAoGYGAKoxAIydAYCR3Za+OyStMgMAlRgA9P+3d6cxt12FecefO3meR8ADZjBmJgxmJkyumHIVSOOkShqatImTirZEqlpHHZI0Uiu3SaMMaionUZNAW7VO86G6MdCYeQ5mHsxoAzYGg22MZ/tO6tpZEDBce7/3veectfdZv7/0+5BP4b7vuefs/Vzvs0YzANAbA8C8MwAwd7cWj4ukVWUAoCcGAI1mAKA3BoB5ZwBgHVxTnBpJq8gAQE8MABrNAEBvDADzzgDAunhncXgkLTsDAD0xAGg0AwC9MQDMOwMA6+RPImnZGQDoiQFAoxkA6I0BYN4ZAFg3/zySlpkBgJ4YADSaAYDeGADmnQGAdbOv+NFIWlYGAHpiANBoBgB6YwCYdwYA1tHtxZMiaRkZAOiJAUCjGQDojQFg3hkAWFdfKc6IpEVnAKAnBgCNZgCgNwaAeWcAYJ1dWRwVSYvMAEBPDAAazQBAbwwA884AwLq7rNgSSYvKAEBPDAAazQBAbwwA884AQA9+NZIWlQGAnhgANJoBgN4YAOadAYAe7C9+KpIWkQGAnhgANJoBgN4YAOadAYBe3F08M5IONQMAPTEAaDQDAL0xAMw7AwA9+VpxViQdSgYAemIA0GgGAHpjAJh3BgB685HimEjabAYAemIA0GgGAHpjAJh3BgB6dHmxLZI2kwGAnhgANJoBgN4YAOadAYBeXRJJm8kAQE8MABrNAEBvDADzzgBAz34hkg42AwA9MQBoNAMAvTEAzDsDAD3bXbwwkg4mAwA9MQBoNAMAvTEAzDsDAL27qXhkJG00AwA9MQBoNAMAvTEAzDsDACSfLk6IpI1kAKAnBgCNZgCgNwaAeWcAgOr/FdsjaSwDAD0xAGg0AwC9MQDMOwMAfNfvR9JYBgB6YgDQaAYAemMAmHcGALiv10TSA2UAoCcGAI1mAKA3BoB5ZwCA+9pbvCKS7i8DAD0xAGg0AwC9MQDMOwMA/KBbi8dH0oEyANATA4BGMwDQGwPAvDMAwIFdU5waSd+fAYCeGAA0mgGA3hgA5p0BAO7fu4rDI+l7MwDQEwOARjMA0BsDwLwzAMAD+5NI+t4MAPTEAKDRDAD0xgAw7wwAMO5fRNJ3MgDQEwOARjMA0BsDwLwzAMC4fcWPRtKQAYCeGAA0mgGA3hgA5p0BADbm9uJJkWQAoCcGAI1mAKA3BoB5ZwCAjbu+OCNS3xkA6IkBQKMZAOiNAWDeGQDg4HywOCpSvxkA6IkBQKMZAOiNAWDeGQDg4P15sSVSnxkA6IkBQKMZAOiNAWDeGQBgc34tUp8ZAOiJAUCjGQDojQFg3hkAYHP2Fz8Vqb8MAPTEAKDRDAD0xgAw7wwAsHl3F8+M1FcGAHpiANBoBgB6YwCYdwYAODRfK86O1E8GAHpiANBoBgB6YwCYdwYAOHSfLI6L1EcGAHpiANBoBgB6YwCYdwYAWIzLi22R1j8DAD0xAGg0AwC9MQDMOwMALM5/irT+GQDoiQFAoxkA6I0BYN4ZAGCxLoq03hkA6IkBQKMZAOiNAWDeGQBgsXYXL4y0vhkA6IkBQKMZAOiNAWDeGQBg8W4uzo20nhkA6IkBQKMZAOiNAWDeGQBgOT5dnBBp/TIA0BMDgEYzANAbA8C8MwDA8vxVsT3SemUAoCcGAI1mAKA3BoB5ZwCA5fqjSOuVAYCeGAA0mgGA3hgA5p0BAJbvNZHWJwMAPTEAaDQDAL0xAMw7AwAs397iFZHWIwMAPTEAaDQDAL0xAMw7AwCsxq3F4yPNPwMAPTEAaDQDAL0xAMw7AwCszheL0yLNOwMAPTEAaDQDAL0xAMw7AwCs1ruKwyPNNwMAPTEAaDQDAL0xAMw7AwCs3p9Gmm8GAHpiANBoBgB6YwCYdwYAaONfRppnBgB6YgDQaAYAemMAmHcGAGhjX/HKSPPLAEBPDAAazQBAbwwA884AAO3cVZwfaV4ZAOiJAUCjGQDojQFg3hkAoK3rizMizScDAD0xAGg0AwC9MQDMOwMAtPfB4qhI88gAQE8MABrNAEBvDADzzgAA0/DnxZZI088AQE8MABrNAEBvDADzzgAA0/HrkaafAYCeGAA0mgGA3hgA5p0BAKZjf/HTkaadAYCeGAA0mgGA3hgA5p0BAKbl7uJZkaabAYCeGAA0mgGA3hgA5p0BAKbnhuLsSNPMAEBPDAAazQBAbwwA884AANP0qeL4SNPLAEBPDAAazQBAbwwA884AANP1hmJbpGllAKAnBgCNZgCgNwaAeWcAgGn7zUjTygBATwwAGs0AQG8MAPPOAADT94uRppMBgJ4YADSaAYDeGADmnQEApm938aJI08gAQE8MABrNAEBvDADzzgAA83BzcW6k9hkA6IkBQKMZAOiNAWDeGQBgPj5TnBipbQYAemIA0GgGAHpjAJh3BgCYl78qtkdqlwGAnhgANJoBgN4YAOadAQDm548jtcsAQE8MABrNAEBvDADzzgAA8/RPI7Xpt9P+9Q+rYgDQaAYAevPKaM6dlfavIeDg7S1+JNLq25H2r39YFQOARjMA0JufiebcY9P+NQRszm3FEyKttmPT/rUPq2IA0GgGAHrzmmjOPSPtX0PA5l1dnBppdQ2vt9ave1gVA4BGMwDQm4ujOXdB2r+GgEPz7uLwSKvpMWn/modVMQBoNAMAvfHGOO+G73Bo/RoCDt2fRVpNz0/71zusiutcjWYAoDeXRnPuZ9P+NQQsxq9EWn4/mfavdVgVA4BGMwDQm7dFc857FqyP/cVPRFpu/zrtX+uwKgYAjeZimt58NZpzl6X9awhYnLuK8yMtrz9N+9c5rIoBQKMZAOjR8dFc+2jav36AxbqueEik5fSBtH+Nw6oYADSaAYAe+demebaluCPtXz/A4n2oODrSYjusuCftX9+wKgYAjWYAoEf/IJpjZ6X9awdYnuERn2HokxbVU9L+dQ2rZADQaAYAevRH0Rx7Vdq/doDl+o1Ii+uX0/41DatkANBoBgB6dHU0x34v7V87wHINJwP8/UiLaVfav6ZhlQwAGs0AQK/OiebWx9P+dQMs393FsyIdWocXt6X96xlWyQCg0QwA9Ornojl1crEv7V83wGrcWDw80uZ7Rdq/jmHVDAAazQBAr14fzam/m/avGWC1PlYcG2lz/XHav4Zh1QwAGs0AQK9uKY6I5tLwxY2tXzPA6g3PcG+LdHANn+83p/3rF1bNAKDRDAD07CeiOTSc4+xCDvr1W5EOrp9K+9cttGAA0GgGAHo2/MuSpt+Ppf1rBWjr5yNtvLek/WsWWjAAaDQDAD3bU5weTb2/SPvXCtDW7uLFkcZ7fOpxkq1fs9CCAUCjGQDo3S9HU+7E4p60f50A7Q2PAp0X6YH7b2n/WoVWDAAazQBA764utkdT7TVp/xoBpuMLxamRDtxwdOS9af86hVYMABrNAADJT0dTbBhmrkn71wcwLR8ojo70g/3vtH99QksGAI1mAIDkqmJrNLVenfavDWCaHA+o7+/p8ew/GAA0mgEAqldFU2oYZD6V9q8LYLp+J9J3e2favyahNQOARjMAQPXBYks0lYZBpvVrApi+/xgpeWXavxZhCgwAGs0AAN/1D6MpNDz7//G0fz0A83BJ1HMnFNem/esQpsAAoNEMAPBdNxUnR617bdq/FoB5+a2o1/5n2r/+YCoMABrNAAD39QdRy04vvpX2rwNgfobHATzK1Vc/mfavO5gSA4BGMwDAfe1L/SZhtenP0v41AMzX8B5yWNRDZxQ3p/1rDqbEAKDRDADwgz5SHBGtuufFEU7AobuiOC5a54bvinlL2r/WYGoMABrNAAAH9vvRKhu+xOmatP+9A+vhE8XZ0bo2PK7X+jUGU2QA0GgGALh/Pxatqr9I+983sF6ui0e61rGL0/61BVNlANBoBgC4f7cU50TL7p+k/e8aWE97Um8YtR79eOp39bR+XcFUGQA0mgEAHtj7iyOjZfXk4p60/z0D6+31xdHRnHtOcVfav5ZgygwAGs0AAOP+b7EtWnTDNzh/Oe1/v0Afhu8FeHQ0x15Q3Jb2ryGYOgOARjMAwMb8UbTIhm/o/mja/16Bvtyd+kiAUXc+vSz+5R82ygCg0QwAsHG/Fi2i4YzuN6f97xPo13uKc6OptzN1tGn9eoG5MABoNAMAHJzXRofS8K9u/yftf48Aw39S/ovFlmiK/Wzqlzi2fp3AnBgANJoBAA7eJdFmOry4LO1/fwDf68o4LnBKbU/9nG39uoA5MgBoNAMAbM5/KbZGG+2Y4q/S/vcGcCDD0XKvK06JWjZ8OezweEbr1wPMlQFAoxkAYPP+R7EjGuv04sNp//sCGPON4hdS/xVaq+2FxdfT/jUAc2YA0GgGADg07079FwsduCcWX0j73xPAwfhM8RPx/QCr6Iji38fz/rAIBgCNZgCAQ3dj8ZLo+3t1cWfa/34ANusTxYXRsnpucVXa/55hXRgANJoBABZjb/Gr8b0AQ8Pz/q9P+98JwKK8t3hVvMcvqhOKPyz2p/3vFtaJAUCjGQBgsd5enJd+Oz/+NQdYX58rfqk4MtpMw3cr/Fzx1bT/XcI6MgBoNAMALN49xb9Lfa6xl04s/iD1m7Rb//wBlm34ssDfKM6ONtLwX078vdTvVmj9u4N1ZgDQaAYAWJ7hy+96+G6A4fnYG9L+5w2wasPoeUXq++Bh0YG6IE6CgVUxAGg0AwAs3xuLZ2f9+juppyC0/vkCTMFwhN1/Lp4epwcM3wUzHKf4kbT/vUBPDAAazQAAqzPcLL8482/415z3pf3PE2Cqri1+N/Vb7nsaA4bvwLmkuDntfwfQIwOARjMAwOq9LfVZyDl9R8DRxc/Ev+YAHKwvFf+1eGVxbNav04ufL96V9j9r6J0BQKMZAKCdW1IvCp+ZaTZ8adPwXyz8WXF72v+8AOZud/GO4l8Vz8m8huDv7THFr6Qej+jLX2E6DAAazQAA0/Dp4jdTvzTwqLTruGJn8TvFdWn/cwFYZ/emPlL128WPF+dkmp1b/HTxe8Xn0/7nBhyYAUCjGQBgeoYLwrcX/yb1X+DPzHIankt9aPHS4j8U7y/2TODPD9Cz21JHgT8s/lnq9648Mqs5ZWD4/zHc7L+s+LXi8uKmBf/5gOUxAGg0AwDMw3BBeGXx+uLfFv8o9XnSFxRP/bZHFQ//tuE/z3xa6oXjq1Kf3//HqedW/6/UZ/nvnMCfC4CNGf5T+6+kfqHsf0/9ksFfLV6T+r0yw8ksw2MF3/lM+M7nwSO//X8PX0g4fCYM/6XB8K/5v5T6mfC61Of3r4v/nB/mzgCg0QwAAAAA82cA0GgGAAAAgPkzAGg0AwAAAMD8GQA0mgEAAABg/gwAGs0AAAAAMH8GAI12Uuq3yDr6CwAAYH6GEzyGEz1Oi7TBHl28Me1fvAAAAGzMW4snRtpkO4svpP0LGQAAgAO7tnh1pAW0o3htcWvav7ABAACo7ih+vTgi0oJ7cHFp6jMlrV/oAAAAvdpfXFacHWnJPbV4d9q/6AEAAHpzZfHsSCtsS3Fh8aW0/wsAAACw7q4vLiq2RmrUUanPnNyV9n8hAAAA1s29qUe1HxtpIp2Zetbk8CxK678gAAAA62BX8bBIE+35xUfS/i8KAADAXF1VvCTSDBqeSRnOoLwh7f/iAAAAzMXNqUewb4s0s45J/X6Ae9L+LxIAAMBU7U59zv+ESDPv3NQzKlv/pQIAAJiaK4rHRVqzLig+kfZ/wQAAAFr7bPEjkda4HalnV96Y9n/hAAAAVu2W4uLi8EiddFLqMy570/4vIAAAwLLtSz06/bRInfaY4k1p/5cRAABgWd5WPCmS/qadxdVp/xcTAABgUa5LPSJ9SyTdp8NSz7y8Ne3/ogIAAGzWnalHoh8RSQ/YQ4pLU5+Raf0XFwAAYKP2px6BfnYkHVRPK96d9n+JAQAAxlxZPCeSNt3wrMyFxZfT/i80AADA9/tq6lHnWyNpIR2V+gzN3Wn/FxwAAODe1KPNj4ukpXRW6tmZrf+yAwAA/dpVPDySVtILio+m/V98AACgH1cVL42klTc8YzOcqfn1tH8jAAAA1tfNqUeWb4ukpp1QXFLck/ZvDAAAwPrYk3pE+SmRNKkelfosTus3CQAAYP6uKB4fSZPuguKTaf+GAQAAzM/nUo8ilzSTdqQ+o3NL2r+BAAAA03d76tHjh0fSLDsp9WzOvWn/hgIAAEzPvtSjxk+PpLXoh4q3p/2bCwAAMB3vL54RSWvZzuKatH+jAQAA2rku9UjxLZG01h2W+v0At6X9Gw8AALA6d6Y+539kJHXVQ1LP9Bye+Wn9RgQAACzP/uKy4qGR1HXnF+9J+zclAABg8T5YPDeS9O2GZ3+Gsz6/nPZvUAAAwKH7anFRsTWSdICOTn0m6O60f8MCAAAO3u7Uo8CPiyRtoLNSzwJt/eYFAABs3K7iEZGkTfTC4mNp/0YGAADcv08XL4skHWLDM0PDGaFfT/s3NgAA4LtuTj3ie3skaYGdWFxS3Jv2b3QAANCzPalHep8aSVpijyr+Mu3f9AAAoEdvLp4QSVphFxSfSvs3QAAA6MHnU4/ulqQm7Uh95uhbaf+GCAAA6+iO1KO6D48kTaCTU88a3Zv2b5AAALAO9qUezf2gSNIEe3LxjrR/swQAgDn76+KZkaQZtLO4Ju3fOAEAYE6+knoE95ZI0ow6sri4uC3t30gBAGDK7kw9cvuYSNKMOyP12aX9af/GCgAAU7OrOCeStEadX7w37d9gAQBgCj5UPC+StKYNzzINzzR9Le3fcAEAoIUbU4/S3hZJ6qCjU88yvTvt34ABAGAVdqcenX1cJKnDHlFclvZvxgAAsExXFI+JJCkvKj6W9m/MAACwSJ8pXh5J0n3amvr9AN9I+zdqAAA4FN9Mfc5/eyRJ99uJqWeg3pv2b9wAAHAw9hSXFqdGkrThzisuT/s3cQAA2Ii3FE+IJGnTXVB8Ku3f0AEA4EA+X1wYSdJC2pH6DNW30v4NHgAABnekHm19RCRJC+/k1LNT96b9Gz4AAH3aX7yueFAkSUvvKcU70/7NHwCAvnygeFYkSStvZ/HFtP8gAABgvX0l9cjqLZEkNevI4uLi9rT/YAAAYL3clXpE9TGRJE2mM1KfxRqeyWr9QQEAwPztKs6JJGmyPb14X9p/YAAAME8fLp4XSdIsGp7NGp7R+lraf4AAADAPN6UePb0tkqTZdXTq2az3pP0HCgAA07Q79ajp4yNJmn2PLC5L+w8XAACm5YrisZEkrV0vKj6e9h80AAC09Zni5ZEkrXXbi4uKb6T9Bw8AAKv1zdQjpA+LJKmbTkx91mtP2n8QAQCwXPtSj4w+LZKkbnt08Ya0/1ACAGA53lo8MZIkfbudxRfS/gMKAIDFuDb1aGhJkn6gHalnv96a9h9YAABszh2pR0EfEUmSRnpwcWmxN+0/wAAA2Jj9qUc/nxVJkg6ypxbvSvsPMwAAHtgHimdHkqRDbPh+gC+l/QcbAAD3dX3qc/5bIknSgjoq9czY29P+gw4AoHd3FZcUx0aSpCV1ZuoZssMzZq0/+AAAerSreFgkSVpRzyjen/YfgAAAvfhw8cORJKlBW1OfObsh7T8QAQDW1U2pRzVviyRJjTsm9azZe9L+AxIAYF3sLn63OD6SJE2sc1PPnm39YQkAMHdXFI+LJEkT78XFJ9L+gxMAYG4+W7wikiTNqO3FRcWNaf9BCgAwdbekHrl8WCRJmmknpT67tiftP1gBAKZmX+oRy6dFkqQ16dHFG9P+QxYAYCreVjwpkiStaTuLq9P+AxcAoJVrU49SliRp7RuebRvOsr017T+AAQBW5c7Uo5OPiCRJnfXg4tLUZ99afyADACzL/tSjks+OJEmd99Ti3Wn/4QwAsGhXFs+OJEn627YUFxZfSvsPagCAQ3V96pHIWyNJkg7YUanPxt2V9h/cAAAH697UI5CPjSRJ2lBnpp6JOzwz1/qDHABgI3YVD48kSdpUzy8+kvYf6AAA9+eq4iWRJEmH3PDs3HBW7g1p/wEPAPAdN6cebbwtkiRpoZ1QXFLck/Yf+ABAv3anHmV8SiRJ0lI7N/UZu9Yf/gBAf64oHhdJkrTSLig+mfYXAgDA+vtc6pHFkiSpUTtSz9i9Me0vDACA9XNLcXFxeCRJ0iQ6KfXM3b1pf6EAAMzfvtQjiU+PJEmaZI8p3pT2Fw0AwHy9vfihSJKkWbSzuDrtLyAAgPm4LvXo4S2RJEmz6rDUs3lvS/sLCgBguu4sfr04MpIkadY9JPWs3uFZvtYXGADAdOwvLiseGkmStFY9rXhP2l9sAADtfbB4TiRJ0to2PNM3nOH75bS/8AAAVu+rqUcIb40kSeqio1Kf9bs77S9EAIDluzf1yODjIkmSuuys1DN+W1+UAADLs6t4eCRJkkovKD6a9hcoAMDifLp4aSRJkr6v4VnA4ezfr6f9BQsAsHk3px4FvD2SJEkP0AnFJanPCra+gAEANm5P6tG/p0SSJOkgelTxl2l/MQMAjHtz8fhIkiQdQhcUn0z7CxsA4Ad9LvWIX0mSpIW0I/VZwm+l/YUOAJDcnnqk7+GRJElaQienniG8N+0vfACgR/tSj/A9PZIkSSvoycU70v4iCAB68v7iGZEkSWrQzuKatL8gAoB1dl3qUb1bIkmS1LAji4uL29L+AgkA1smdqUfzHhNJkqQJ9ZDUZxL3p/0FEwDM3a7ioZEkSZpw5xfvTfsLJwCYow8Vz40kSdJMGp5RHM4kvjbtL6QAYA6+WlxUbIskSdIMOzr1jOK70/7CCgCmaHfqEbvHRZIkaQ06K/X7AVpfZAHAlAzP+T8ikiRJa9gLi4+l/QUXALT06eJlkSRJWvO2pp5l/PW0vwADgFX6ZvHaYnskSZI66sTUs43vTfsLMgBYpj3FpcWpkSRJ6rjzisvT/uIMAJbhLcUTIkmSpL/tguJTaX+hBgCL8PnUI3ElSZJ0gHakPhv5rbS/cAOAzbgj9QjcwyNJkqTRTk49E3lv2l/IAcBG7E898vZBkSRJ0kH35OKdaX9RBwAP5K+LZ0aSJEmH3M7ii2l/gQcA3+srqUfbbokkSZIW1pHFxcXtaX/BB0Df7ko9yvaYSJIkaWmdkfqM5fCsZesLQAD6s6s4J5IkSVpZ5xfvTfsLQQD68KHieZEkSVKThmcuh2cvv5b2F4YArKebUo+o3RZJkiQ17+jUM5fvTvsLRQDWw+7UI2mPjyRJkibXI4vL0v6iEYB5u6J4bCRJkjT5XlR8PO0vIAGYl88UL48kSZJm1fbiouIbaX9BCcC0fTP1qNnDIkmSpNl2YuoznHvS/gITgGngWcLfAAAJ4ElEQVTZl3q07KmRJEnS2nRecXnaX2wCMA1vKZ4YSZIkrW0XFFel/YUnAG18obgwkiRJ6qIdqWc635r2F6IArMYdqUfGHhFJkiR11ymp3w+wN+0vTAFYjv2pz/k/KJIkSeq+pxTvTPuLVAAW6wPFsyJJkiR9XzuLL6b9BSsAh+YrxauLLZEkSZLup6NSz4K+Pe0vYAE4OHcVlxTHRpIkSdpgZ6Q+Mzo8O9r6ghaAcbuKh0WSJEnaZE8v3pf2F7YAHNiHix+OJEmStIC2pj5LekPaX+gCUN2UeqTrtkiSJEkL7ujUM6TvSfsLX4Be7U49wvX4SJIkSUvukcVlaX8RDNCbK4rHRpIkSVpxLy4+nvYXxADr7rPFKyJJkiQ1bHtxUfGNtL9ABlg330w9mvWwSJIkSRPppNRnUvek/QUzwNztSz2K9bRIkiRJE+3RxRvS/uIZYK7eWjwxkiRJ0kzaWXwh7S+kAebi2tQjVyVJkqTZtSP1jOpb0/7CGmCq7kg9YvWISJIkSTPvwcWlqc+0tr7QBpiK/alHqp4dSZIkac16avGutL/oBmjtA8WzI0mSJK1xW4oLiy+l/QU4wKpdn3p06tZIkiRJnXRU6jOvd6X9BTnAst2belTqsZEkSZI67czUs66HZ2FbX6ADLMOu4mGRJEmS9Dc9o3h/2l+oAyzKR4rnR5IkSdIPNDwTO5yBfUPaX7gDbNbNqUegboskSZKkB+yY1O8HuCftL+QBNmp36nP+J0SSJEnSQXVu6hnZrS/qAcZcUTwukiRJkg6pC4pPpP0FPsD3+2zxI5EkSZK0sLannp19Y9pf8APcUlxcHB5JkiRJS+mk1Gds96b9DQDQn32pR5eeFkmSJEkr6THFm9L+ZgDox9uKJ0WSJElSk3YWV6f9jQGwvq5NPaJ0SyRJkiQ17bDUM7dvTfsbBWB93Jl6JOkRkSRJkjSpHlJcmvqMbusbB2C+9qceQXp2JEmSJE26pxXvTvubCGB+riyeE0mSJEmzaXhW98Liy2l/QwFM3/WpR41ujSRJkqRZdlTqM7x3p/0NBjA996YeLXpcJEmSJK1FZ6ae3T0829v6hgOYhl3FwyNJkiRpLXtB8dG0v/EA2rmqeEkkSZIkrX3DM77Dmd5fT/sbEWB1bk49MnRbJEmSJHXVCcUlxT1pf2MCLM/u1CNCT4kkSZKkrntU6rPArW9SgMW7onh8JEmSJOl7uqD4ZNrfsACH7nOpR4FKkiRJ0gHbkfqM8C1pfwMDHLzbU4/+PDySJEmStIFOSj0bfG/a39AA4/alHvV5eiRJkiRpEz2meFPa39wA9+/txQ9FkiRJkhbQzuKatL/RAb7rutQjPbdEkiRJkhbYYanfD3Bb2t/4QM/uTH3O/8hIkiRJ0hJ7SOqZ4sMzx61vhKAn+4vLiodGkiRJklbY04r3pP1NEfTgg8VzI0mSJEmNGp49Hs4a/3La3yDBOvpqcVGxNZIkSZI0gY5OfSb57rS/YYJ1sDv1KM7jIkmSJEkT7KzUs8hb3zzBnO0qHhFJkiRJmkEvLD6W9jdSMCefLl4aSZIkSZpZwzPLwxnlX0/7GyuYsptTj9jcHkmSJEmacScUlxT3pv2NFkzJntQjNU+JJEmSJK1Rjyr+Mu1vumAK3lw8IZIkSZK0xl1QfCrtb8Cghc+nHp0pSZIkSV20I/WZ52+l/Q0ZrMIdqUdlHh5JkiRJ6rCTU88635v2N2iwDPtSj8Y8PZIkSZKkPLl4R9rfrMEi/XXxzEiSJEmSfqCdxTVpf+MGh+K61CMwt0SSJEmSdL8dWVxc3Jb2N3JwMO5MPfLymEiSJEmSNtwZqc9O70/7GzsYs6s4J5IkSZKkTXd+8d60v8GDA/lQ8dxIkiRJkhbS8Cz18Ez119L+hg8GN6YeZbktkiRJkqSFd3TqWep3p/0NIH3anXp05XGRJEmSJC29s1O/H6D1zSB9GZ7zf0QkSZIkSSvvhcXH0v7GkPX2meJlkSRJkiQ1bWvq9wN8I+1vFFkv30x9zn97JEmSJEmT6cTUM9jvTfsbR+ZtT3FpcWokSZIkSZPtvOLytL+JZJ7eUjwhkiRJkqTZdEHxqbS/oWQePl9cGEmSJEnSLNuR+gz3t9L+BpNpuiP1aMkjIkmSJEmafSennt2+N+1vOJmG/alHST4okiRJkqS16ynFO9P+5pO2/rp4ViRJkiRJa9/O4otpfyPKan0l9cjILZEkSZIkddORxcXF7Wl/Y8py3ZV6ROQxkSRJkiR12xmpz4IPz4S3vlFl8XYV50SSJEmSpG/39OJ9aX/DymJ8qHheJEmSJEk6QMOz4cMz4l9L+xtYNuem1KMft0WSJEmSpJGOTj0b/p60v6FlY3anHvV4/A/+OiVJkiRJeuAeWVyW9je3PLArisfez+9QkiRJkqQN96Li42l/o8t9faZ4+QP83iRJkiRJOui2FxcV30j7G9/efTP1CMfDHvA3JkmSJEnSIXRi6rPme9L+Rrg3+1KPbDxt9LckSZIkSdKCenTxhrS/Ke7FW4snbug3I0mSJEnSEtpZfCHtb5DX1bWpRzNKkiRJktS8Halnz9+a9jfM6+KO1KMYj9j4r0GSJEmSpNX04OLSYm/a30DP1f7UoxfPOsifvSRJkiRJK+8pxbvS/mZ6bj5QPGsTP29JkiRJkpo2fD/Al9L+xnrqrk99zn/Lpn7KkiRJkiRNoKNSz6y/Pe1vtKfmruKS4thN/3QlSZIkSZpYZ6aeYT884976xnsKdhUPO6SfqCRJkiRJE+4ZxfvS/ga8lQ8XP3zIP0VJkiRJkmbQ1tRn3m9I+xvyVbkp9ajEbQv4+UmSJEmSNKuOST3r/p60v0Fflt3F7xbHL+ZHJkmSJEnSfDu3uCztb9YX7YricQv8OUmSJEmStBa9uPhE2t+4H6rPFq9Y8M9GkiRJkqS1antxUXFj2t/IH6xbUo88PGzhPxVJkiRJkta0k1Kfnd+T9jf2Y/alHnF42lJ+EpIkSZIkddCjizem/U3+/Xlb8aSl/eklSZIkSeqsncXVaX/D/x3Xph5lKEmSJEmSFtzwbP1ri1vT7sb/ztSjC49Y7h9VkiRJkiQ9uLg09dn7Vd347089qvDsFfz5JEmSJEnS9/TU4t1Z/s3/lcWzV/RnkiRJkiRJB2hLcWHxpSz+xv/61CMJt67qDyNJkiRJkh64o1Kfzb8rh37jf2/qEYTHrvIPIEmSJEmSNt6ZxetSn9nfzM3/ruLhK/9fLUmSJEmSNtXzi49k4zf+VxUvafK/VJIkSZIkHVLDs/uvLm7I/d/435x6tOC2Rv8bJUmSJEnSgjqhuKS4J9+98d+depTgKQ3/d0mSJEmSpCV0XnH5t53X+H+LJElaYf8f9/HuMwd0dUcAAAAASUVORK5CYII=;" parent="1" vertex="1">
          <mxGeometry x="201" y="2126" width="49" height="49" as="geometry" />
        </mxCell>
        <mxCell id="MKCzWIRwI4Zgw65z_sEB-174" value="" style="sketch=0;aspect=fixed;html=1;points=[];align=center;image;fontSize=12;image=img/lib/mscae/VPN_Gateway.svg;dashed=1;" parent="1" vertex="1">
          <mxGeometry x="310" y="2117" width="45" height="50" as="geometry" />
        </mxCell>
        <mxCell id="MKCzWIRwI4Zgw65z_sEB-176" value="" style="endArrow=classic;startArrow=classic;html=1;rounded=0;fontSize=15;" parent="1" edge="1">
          <mxGeometry width="50" height="50" relative="1" as="geometry">
            <mxPoint x="310" y="2150" as="sourcePoint" />
            <mxPoint x="280" y="2150" as="targetPoint" />
          </mxGeometry>
        </mxCell>
        <mxCell id="MKCzWIRwI4Zgw65z_sEB-177" value="" style="endArrow=classic;startArrow=classic;html=1;rounded=0;fontSize=15;" parent="1" edge="1">
          <mxGeometry width="50" height="50" relative="1" as="geometry">
            <mxPoint x="410" y="2150" as="sourcePoint" />
            <mxPoint x="355.5" y="2150.16" as="targetPoint" />
          </mxGeometry>
        </mxCell>
        <mxCell id="MKCzWIRwI4Zgw65z_sEB-201" style="edgeStyle=none;rounded=0;orthogonalLoop=1;jettySize=auto;html=1;fontSize=15;entryX=0;entryY=0.5;entryDx=0;entryDy=0;entryPerimeter=0;" parent="1" source="MKCzWIRwI4Zgw65z_sEB-178" target="MKCzWIRwI4Zgw65z_sEB-190" edge="1">
          <mxGeometry relative="1" as="geometry">
            <mxPoint x="880" y="2020" as="targetPoint" />
          </mxGeometry>
        </mxCell>
        <mxCell id="MKCzWIRwI4Zgw65z_sEB-202" value="业务数据" style="edgeLabel;html=1;align=center;verticalAlign=middle;resizable=0;points=[];fontSize=15;" parent="MKCzWIRwI4Zgw65z_sEB-201" vertex="1" connectable="0">
          <mxGeometry x="0.2622" relative="1" as="geometry">
            <mxPoint as="offset" />
          </mxGeometry>
        </mxCell>
        <mxCell id="MKCzWIRwI4Zgw65z_sEB-203" style="edgeStyle=none;rounded=0;orthogonalLoop=1;jettySize=auto;html=1;fontSize=15;" parent="1" source="MKCzWIRwI4Zgw65z_sEB-178" edge="1">
          <mxGeometry relative="1" as="geometry">
            <mxPoint x="930" y="2120" as="targetPoint" />
          </mxGeometry>
        </mxCell>
        <mxCell id="MKCzWIRwI4Zgw65z_sEB-204" value="服务注册、发现&lt;br&gt;配置中心" style="edgeLabel;html=1;align=center;verticalAlign=middle;resizable=0;points=[];fontSize=15;" parent="MKCzWIRwI4Zgw65z_sEB-203" vertex="1" connectable="0">
          <mxGeometry x="0.2449" y="-1" relative="1" as="geometry">
            <mxPoint x="-19" as="offset" />
          </mxGeometry>
        </mxCell>
        <mxCell id="MKCzWIRwI4Zgw65z_sEB-205" style="edgeStyle=none;rounded=0;orthogonalLoop=1;jettySize=auto;html=1;entryX=0.5;entryY=0;entryDx=0;entryDy=0;fontSize=15;exitX=0.414;exitY=0.999;exitDx=0;exitDy=0;exitPerimeter=0;" parent="1" source="MKCzWIRwI4Zgw65z_sEB-178" target="MKCzWIRwI4Zgw65z_sEB-197" edge="1">
          <mxGeometry relative="1" as="geometry">
            <Array as="points">
              <mxPoint x="860" y="2207" />
            </Array>
          </mxGeometry>
        </mxCell>
        <mxCell id="MKCzWIRwI4Zgw65z_sEB-206" value="视频图片" style="edgeLabel;html=1;align=center;verticalAlign=middle;resizable=0;points=[];fontSize=15;" parent="MKCzWIRwI4Zgw65z_sEB-205" vertex="1" connectable="0">
          <mxGeometry x="-0.3416" relative="1" as="geometry">
            <mxPoint as="offset" />
          </mxGeometry>
        </mxCell>
        <mxCell id="MKCzWIRwI4Zgw65z_sEB-207" style="edgeStyle=none;rounded=0;orthogonalLoop=1;jettySize=auto;html=1;fontSize=15;" parent="1" source="MKCzWIRwI4Zgw65z_sEB-178" edge="1">
          <mxGeometry relative="1" as="geometry">
            <mxPoint x="930" y="2290" as="targetPoint" />
          </mxGeometry>
        </mxCell>
        <mxCell id="MKCzWIRwI4Zgw65z_sEB-208" value="缓存" style="edgeLabel;html=1;align=center;verticalAlign=middle;resizable=0;points=[];fontSize=15;" parent="MKCzWIRwI4Zgw65z_sEB-207" vertex="1" connectable="0">
          <mxGeometry x="-0.1557" y="-1" relative="1" as="geometry">
            <mxPoint as="offset" />
          </mxGeometry>
        </mxCell>
        <mxCell id="MKCzWIRwI4Zgw65z_sEB-178" value="" style="rounded=0;whiteSpace=wrap;html=1;fontSize=15;rotation=-90;dashed=1;" parent="1" vertex="1">
          <mxGeometry x="462" y="1990" width="284" height="383.5" as="geometry" />
        </mxCell>
        <mxCell id="MKCzWIRwI4Zgw65z_sEB-181" style="edgeStyle=none;rounded=0;orthogonalLoop=1;jettySize=auto;html=1;fontSize=15;" parent="1" source="MKCzWIRwI4Zgw65z_sEB-179" edge="1">
          <mxGeometry relative="1" as="geometry">
            <mxPoint x="477.0000000000002" y="2040" as="targetPoint" />
          </mxGeometry>
        </mxCell>
        <mxCell id="MKCzWIRwI4Zgw65z_sEB-186" value="字典管理" style="edgeLabel;html=1;align=center;verticalAlign=middle;resizable=0;points=[];fontSize=15;" parent="MKCzWIRwI4Zgw65z_sEB-181" vertex="1" connectable="0">
          <mxGeometry x="-0.4476" y="-1" relative="1" as="geometry">
            <mxPoint as="offset" />
          </mxGeometry>
        </mxCell>
        <mxCell id="MKCzWIRwI4Zgw65z_sEB-179" value="" style="sketch=0;points=[[0,0,0],[0.25,0,0],[0.5,0,0],[0.75,0,0],[1,0,0],[0,1,0],[0.25,1,0],[0.5,1,0],[0.75,1,0],[1,1,0],[0,0.25,0],[0,0.5,0],[0,0.75,0],[1,0.25,0],[1,0.5,0],[1,0.75,0]];points=[[0,0,0],[0.25,0,0],[0.5,0,0],[0.75,0,0],[1,0,0],[0,1,0],[0.25,1,0],[0.5,1,0],[0.75,1,0],[1,1,0],[0,0.25,0],[0,0.5,0],[0,0.75,0],[1,0.25,0],[1,0.5,0],[1,0.75,0]];outlineConnect=0;fontColor=#232F3E;gradientColor=#F34482;gradientDirection=north;fillColor=#BC1356;strokeColor=#ffffff;dashed=0;verticalLabelPosition=bottom;verticalAlign=top;align=center;html=1;fontSize=12;fontStyle=0;aspect=fixed;shape=mxgraph.aws4.resourceIcon;resIcon=mxgraph.aws4.config;" parent="1" vertex="1">
          <mxGeometry x="458" y="1950" width="38" height="38" as="geometry" />
        </mxCell>
        <mxCell id="MKCzWIRwI4Zgw65z_sEB-180" value="" style="sketch=0;points=[[0,0,0],[0.25,0,0],[0.5,0,0],[0.75,0,0],[1,0,0],[0,1,0],[0.25,1,0],[0.5,1,0],[0.75,1,0],[1,1,0],[0,0.25,0],[0,0.5,0],[0,0.75,0],[1,0.25,0],[1,0.5,0],[1,0.75,0]];outlineConnect=0;fontColor=#232F3E;gradientColor=#F54749;gradientDirection=north;fillColor=#C7131F;strokeColor=#ffffff;dashed=0;verticalLabelPosition=bottom;verticalAlign=top;align=center;html=1;fontSize=12;fontStyle=0;aspect=fixed;shape=mxgraph.aws4.resourceIcon;resIcon=mxgraph.aws4.cognito;" parent="1" vertex="1">
          <mxGeometry x="624.68" y="2103" width="33" height="33" as="geometry" />
        </mxCell>
        <mxCell id="MKCzWIRwI4Zgw65z_sEB-182" style="edgeStyle=none;rounded=0;orthogonalLoop=1;jettySize=auto;html=1;fontSize=15;" parent="1" source="MKCzWIRwI4Zgw65z_sEB-183" edge="1">
          <mxGeometry relative="1" as="geometry">
            <mxPoint x="620.0000000000002" y="2040" as="targetPoint" />
          </mxGeometry>
        </mxCell>
        <mxCell id="MKCzWIRwI4Zgw65z_sEB-187" value="统一存储管理" style="edgeLabel;html=1;align=center;verticalAlign=middle;resizable=0;points=[];fontSize=15;" parent="MKCzWIRwI4Zgw65z_sEB-182" vertex="1" connectable="0">
          <mxGeometry x="-0.315" relative="1" as="geometry">
            <mxPoint as="offset" />
          </mxGeometry>
        </mxCell>
        <mxCell id="MKCzWIRwI4Zgw65z_sEB-183" value="" style="sketch=0;points=[[0,0,0],[0.25,0,0],[0.5,0,0],[0.75,0,0],[1,0,0],[0,1,0],[0.25,1,0],[0.5,1,0],[0.75,1,0],[1,1,0],[0,0.25,0],[0,0.5,0],[0,0.75,0],[1,0.25,0],[1,0.5,0],[1,0.75,0]];points=[[0,0,0],[0.25,0,0],[0.5,0,0],[0.75,0,0],[1,0,0],[0,1,0],[0.25,1,0],[0.5,1,0],[0.75,1,0],[1,1,0],[0,0.25,0],[0,0.5,0],[0,0.75,0],[1,0.25,0],[1,0.5,0],[1,0.75,0]];outlineConnect=0;fontColor=#232F3E;gradientColor=#F34482;gradientDirection=north;fillColor=#BC1356;strokeColor=#ffffff;dashed=0;verticalLabelPosition=bottom;verticalAlign=top;align=center;html=1;fontSize=12;fontStyle=0;aspect=fixed;shape=mxgraph.aws4.resourceIcon;resIcon=mxgraph.aws4.config;" parent="1" vertex="1">
          <mxGeometry x="601" y="1950" width="38" height="38" as="geometry" />
        </mxCell>
        <mxCell id="MKCzWIRwI4Zgw65z_sEB-184" style="edgeStyle=none;rounded=0;orthogonalLoop=1;jettySize=auto;html=1;fontSize=15;" parent="1" source="MKCzWIRwI4Zgw65z_sEB-185" edge="1">
          <mxGeometry relative="1" as="geometry">
            <mxPoint x="749" y="2040" as="targetPoint" />
          </mxGeometry>
        </mxCell>
        <mxCell id="MKCzWIRwI4Zgw65z_sEB-188" value="日志管理" style="edgeLabel;html=1;align=center;verticalAlign=middle;resizable=0;points=[];fontSize=15;" parent="MKCzWIRwI4Zgw65z_sEB-184" vertex="1" connectable="0">
          <mxGeometry x="-0.3945" y="-1" relative="1" as="geometry">
            <mxPoint as="offset" />
          </mxGeometry>
        </mxCell>
        <mxCell id="MKCzWIRwI4Zgw65z_sEB-185" value="" style="sketch=0;points=[[0,0,0],[0.25,0,0],[0.5,0,0],[0.75,0,0],[1,0,0],[0,1,0],[0.25,1,0],[0.5,1,0],[0.75,1,0],[1,1,0],[0,0.25,0],[0,0.5,0],[0,0.75,0],[1,0.25,0],[1,0.5,0],[1,0.75,0]];points=[[0,0,0],[0.25,0,0],[0.5,0,0],[0.75,0,0],[1,0,0],[0,1,0],[0.25,1,0],[0.5,1,0],[0.75,1,0],[1,1,0],[0,0.25,0],[0,0.5,0],[0,0.75,0],[1,0.25,0],[1,0.5,0],[1,0.75,0]];outlineConnect=0;fontColor=#232F3E;gradientColor=#F34482;gradientDirection=north;fillColor=#BC1356;strokeColor=#ffffff;dashed=0;verticalLabelPosition=bottom;verticalAlign=top;align=center;html=1;fontSize=12;fontStyle=0;aspect=fixed;shape=mxgraph.aws4.resourceIcon;resIcon=mxgraph.aws4.config;" parent="1" vertex="1">
          <mxGeometry x="730" y="1950" width="38" height="38" as="geometry" />
        </mxCell>
        <mxCell id="MKCzWIRwI4Zgw65z_sEB-189" value="应用服务多节点" style="text;html=1;align=center;verticalAlign=middle;resizable=0;points=[];autosize=1;strokeColor=none;fillColor=none;fontSize=15;" parent="1" vertex="1">
          <mxGeometry x="310" y="2010" width="130" height="30" as="geometry" />
        </mxCell>
        <mxCell id="MKCzWIRwI4Zgw65z_sEB-190" value="" style="outlineConnect=0;dashed=0;verticalLabelPosition=bottom;verticalAlign=top;align=center;html=1;shape=mxgraph.aws3.mysql_db_instance;fillColor=#2E73B8;gradientColor=none;fontSize=15;" parent="1" vertex="1">
          <mxGeometry x="944.1999999999999" y="1994.75" width="60" height="64.5" as="geometry" />
        </mxCell>
        <mxCell id="MKCzWIRwI4Zgw65z_sEB-192" value="" style="shape=image;aspect=fixed;image=data:image/png,iVBORw0KGgoAAAANSUhEUgAAARgAAAEYCAIAAAAI7H7bAAAfvUlEQVR4nOzdB3QUVf838Dt3ZtM7AUJPQieAVMGCkIAg8og+KOpffZCiKA+Cgl2KoKIiglRfERREEcGGiCJKL6EKAYEA0gIhdFJ3k92d8h6If0+y2b07u/lt8H3P93M4HpPMztxk57v3zr137iiGYTAAqBx+owsA8P8DBAmAAIIEQABBAiCAIAEQQJAACCBIAAQQJAACCBIAAQQJgACCBEAAQQIggCABEECQAAggSAAEECQAAggSAAEECYAAggRAAEECIIAgARBAkAAIIEgABBAkAAIIEgABBAmAAIIEQABBAiCAIAEQQJAACCBIAAQQJAACCBIAAQQJgACCBEAAQQIggCABEECQAAggSAAEECQAAggSAAEECYAAggRAAEECIIAgARBAkAAIIEgABBAkAAIIEgABBAmAAIIEQABBAiCAIAEQQJAACCBIAAQQJAACCBIAAQQJgACCBEAAQQIggCABEECQAAggSAAEECQAAggSAAEECYAAggRAAEECIIAgARBAkAAIIEgABBAkAAIIEgABBAmAAIIEQABBAiCAIAEQQJAACCBIAAQQJAACCBIAAQQJgACCBEAAQQIggCABEECQAAggSAAEECQAAggSAAEECYAAggRAAEECIIAgARBAkAAIIEgABBAkAAIIEgABBAmAAIIEQABBAiCAIAEQQJAACCBIAAQQJAACCBIAAQQJgACCBEBA8eM1BQUFJSUl4dcRFiV92zbVqVb8vsGMZk2b1axZg/BYqqZlZ2fn5JxTVTU2NjYpKTGC9HfxoSQ6u1jEzhXqOYUsz8HySgxVZ+HBLDZUqhnGEiJY7QgeEXRDiuZKY+y8XT9pNy44jVxduqLqmmFEKryaRYrjRmIwr2uRImSpCkqiqtqFC+dzzp232awS8/+INWrWaNa0KUmRJMMwzG+9Z8/e6TNnHzhwUNf1oKCg/g/0GzlieHBwMElRUrv3vHo11+2P3pg4/t6+95AchTF26FDmuNcnHjt2vPRLSZLCw8PuvbfvU08OiY6OpjqKmMHYiSvGb8f0dSeMqyXXvrz2NkjXPjWYxCR+/UsuMZlZOGtfS+rRQLqlFg+zVE3pXB226UuvaOkFxlX9+uli6Nf+c62c17/i1/+IiiwbWqtw5f5IKTVcCQlMW+fw4SOLPv8ifdv23Ny8yu/t3r73vDFxPEW5fKmRfv75l9cnvulwOEq/tNvtXyxesnHT5g+mvd+4UUOS0niiqhrJfvLz82fP+T/Lf/jx79/i2nlgGEVF1sWLl6xZs27SWxM7dmhPcixPcm1s/XF91RHjVK7xV3hKP1IrnnmGYWjMobP0bCP9HIsM0lLrSz3q85ZxXK6SJvklB/v2irouT8+yG/r/hoeV/qtYVFVVJba3yLm3mIdz9bYIuX8kbxcik5SkpKTkx5U/fff9D4cPH9F1nWSf1z9DqfZkOkgnTpyc+OaksudfqTNnsp8b9fzizxfGxMSQFaoCkt/3ypUrQ58afuz4cU8bXLhwYdh/Rwx7euiggQM4pz9V/7zEvt6nbTrBVP16teP2jPREZ4V2Y8UxY8UJo0G0/mQK71I7gGE6WKQvvqhtytPtus48hcdjUXWrwVYX6KuLWFKw/GiU0jdC9ucS4q+d6V8t/Xru3Hl5+fn+7qMqmH0zvvxqaUlJidsfZWefnfbBTNJSBcSktycLUlTK6XTOnDXnhx9+JD/6Jzu04d9q6/9kWiU/Tw3jVJ4+Zrv2Qrqaa/ehWW7eikvaE0fUNVc0h1a5/RvGSbv61hX7i5cdRbqfu5o775PJ773/D0+RD0Hatm2H4Kc/rvxp0eeLiYoUEJ98umDtuvUmN54+c/alS5eoDn3Vyt78RVu6u/QyiIhh7DyvP7VBPXCFMks5JcYrx9RJJ1VNJWs+Md3YaHX2u2D/1eZb+9zpdE5+7/2PP55PVpJAMhukoqIiwU91XZ86bfrni78kKhWxjZs2z5z1ofnt8/LyJk+ZSnLoNUf0wYu1LcdIdubqvNUYudU595Bmp7iEzCjQBx50rr+sGv7WHh4Z7LJTe/WKfVa+03xJp7w/7cslSwmviALKbJA4995Gnjlz9ukzZypdJHqfLljo60vWrFn3xx8HKnncPWeMqWuNYtfrSkpOjX1xVJu6v7JJOlSojz6i5tkDeNYahrGgwDn2qtNpIqdHjhxd9vW3gSsMObNBMtOX4HA4x4+fWFxcXOlSUTqUeXjfvj98fZVhGJPenqyqbsa1TNp3lr37WxV9nq46rX1+1P8sbc3VhmeqRY7Al9UwVlud7+Q5vR5p/qcLfBqYueHMBkky11O4N2PfE0OH5eX9gy4NF3+5xL+3JPPw4Y2bNvt30PQT+qsrtHyb76/0qX/sbwabe1h7c69q8z3423P1Vw87bd7P7Qok6a9/PjGM5UXOjwucgk327f9jzZp1PpfnhvK7W9KjAwcOfjB95sQJ48j37Ae73b5xo59hYIytXbuue1qqr6+yOdj0DYZmvobgLFhhLWtJidGsRpgky6zAwc4Usn2XjMvFzOyngGGsPqMZjI1v68N7mlmov3ZEtWuG2TxwHimzlAgl2aLVDpI4Z/mqnqXxQ3Yjy6GXDtSaKer8ArWNReoc6r6oixZ9YaYqj46OatSwUXCI//MBGiYn+/1aF/RBYoyt+HFlWlq3rnd0CcTOffL98hWFhYWCDTjngvdsy5b0kpKSkJAQnw762Q6zdVFYMOvRiN/SQGoeL0VUOB9UnWUXGrvOGz8e07OKTMVp9VktMZINaGTqbU3P1ccedtpUw0wdGGfhPeLk2yOkthHy9VkL5UZadcZOOfRtNn1Nkba/RPfaQanr+it56mcKb2BxbRMVFBZu2Zoufvmtt3R++OEHO3e6mWpWTeUFJEi6rr82ZtzMGdPat2sXiP2bZLVa5348T7BBclLSnXd2n+u5gzW/oGDd+g13977L/EE3/mms2O99s+hQ9kBrqXdTOSbU4zYKZ4nRUmK01K8x33PR+OyQ9sdlb5/TBvv4iHaiiL3UUgkTvrfpV/VXMp0OzXuKwhX+n5ryIzWUUM/XAZyx5CCeHMQfjVG22bR5eVpGsZdWZoFTm5TnnFs92OX4hzMPexqxLPXsyOGDBw30UugqF6jR8aIi6/ARz505k02yN3uFGRVmbN+x09PkvVK9e/f6V5+7xZd/PjXWC0vY9A26197jmDA2o6/8P21EKSpL5qxjgjS9m3J7XRPvl8F+O6tNPiA6jw8W6GMOOx2q91ouOVxZ1twyJEGUIhe3hMmf1g4aFGvx2lzcbdf3lri2gE8Lz5nw8LBHH3nEbFGqUACnmRTbise9PrHirKIqIx6BlSQpNbVr/fr1br21s2Cz7Tt25uaK0ljWTwc1m93LNnVj2JQ+St0Yn7sUFM7G36z8TzPZzOylNee0L0+6v0rbflUfsd9Z7PCeokYR8uyGSo0gf06S4XGWQTHesqTrSyqM0uYLJzE0bdIkOPifMRm+vMBOfty7N2Pxl18F9BCeOJ3OTZu2CDZo0+amxo0aMcaGDB4k2MxqtX7z7Xdmjmgw9sshL9vUjmaz/i0nVTOzPzeCFfZ0K/mxZt5ngraM4/0buNksp1gfe8hZbGIoJy5EmZosVw/yc54jZ2xErGVAtIUJRyA32LSz5TsMxe266tWr+1eeQAv4LOK5H8/fmr4t0EepaOfO3eJuhkEDB5T+T9s2NzVsKOq9+WrpNzYTg2OZ59g5Ybd/sIW9nCZX7FTw1cDmclo90RvXqhp/s7WlwmX8tRS9fFC1mqiLGkfwhU15reDKnh4jYy09w0XXapquf1RYrhUq7qTUTXYMVrmAB6m4uHjks6M3bRZVDoGw/IcVgp82a9b0705Fzvl99/YVbHz58uW1Jq6U1hwRdXgrCpvQi7dI8Lob7xTOxnZQHm8uu72Z4p4GfM7NlhoVrr62X9EH7HIey/d+IjaJlGc3sST41aJzwRkbExdU3SKqQn8p1rPLVEoREaI7LLOzcypfqkCoivtaVFV9fcKbRVZrFRyrlNVm27xlq2CDtPKjQ2mp3bx0OZiY8LpX2LFyWxJrX4/s9heFsyHN5f80k1363G6K5y+0tFQM2FmbMfaA02qiRVctRH6/kRJrIStqJGePRAkrJU3bWWZqUrW4OMHGR48evXLlClXZCJkNUkiwx7GU2NgYi8XLrZtXr1595933qmzSx7Jl34hnKqWldi37Zd26dbp0uV2w/Y4dO8UNxexcdl7QrpPYv1Lo78Ee0ETuUaYf76bq8httlYr3emfb9Jf3O8206JpFyQuaKwmuPdKV9a8wHmkRZWlfmdlJDRIbCLbUNG3ylGk2mx9zRgLL7DhSaJjHntr69erd868+b739rngPK1f+bBjGhPHjgoICe8N0fkHBJ5+KZqm2aplS2s1Q1ujnRqanb/M0ua64uHj1r789cH8/T/vcdFzU610/lrWuQ1/5K5yNaafUj9Q+O6r3acBHt3KTop1X9Nf+UG0O3et4UZNIeVZTS3QA3pxqMh8ULs3MlzxdAJUNUtMmjWNjYwU9patX/7pt2/Y+fXp3veP2OrXrKIrHdqPEeUR4RHh4WCBu03RBMyDbv//9x0+cWPLVMvFmP/20qknjxgMf/w/JQT1JT98mrj3S3M36SUpKbN2q5Z69GZ5etWbtekGQDp4Xfd63q09zk29FCmeDmspJkaxLLbliis4VG2P3qzYTLbrYEPm9JnIgUlSqb7hlTr7HBQNynFqxwUKvlz84OLhXrzu/Ep5LBQUFS5YsXbJkKZMk4SQKg3NeLS6uWfNmd/XqmZraNTwsrHK/h0dkSX3h+VHdut7hdbO5c+cdOXqU6qBurRNez3DO01K7uf1R9+5pghf+vmdPTs45tz8yGDslbLc3iQ/s2jrdartLkc14OUMtMnEXbeMoeUGKXDtA65VcFydLiZ57L1SJXy5z5/CAxx41Oy3LKF02xtM/puv6pcuXN2/eMmbs+LTuPZ8d9fzOXbtpfqXyyP52iqK8PemNik0mF7bi4tHPv3Tu3Hmq47q4ejV3g3CWau/evRI9tMLv7n1XUJDHwT6H3TFj1my3P7LZWa7nnhSJs8RqVb1+4I7L+uPbnMfyvPfRNY6UZzW31Apkiko1UUSfJpfK3JNbp07tB/s/QF6AkhL7hg2bnhw67OFHBpAPyVD++cLDwydOGCfLXoYLs7PPPjl0mNWXTjzzvRSbt2wVzKWQJGnwwMc9/TQuLrZdu7aCnf/229qLF93cgm5XmWB1A0NnsYFqULh3JF8fm2FqvCguVH6vmUzYRydQTfF8HWEY1vKRHzRoQGiouQlUvsvMzHxmxCjzSw+YQfw5lJLSYsp774Z4m9l+Jjv7nclTzO9WM31Pgrhd1zKlRSPhymE9uotumtA0bf2GDRW/79C8TIURjqMQO2vVR+zSbCZSFGGR5rWSq6AuKhXMRUVy6eSJi40d9dyIwBVG17UxY18XDzb6hP6P2D2t2/hxY7zeCPjjj/TrpZw6lSWegX/ffaKBV8ZYr149o6KiBBt8v9zNn17hXsbjK7tykC/qhPNxrXikiak9RU5j4p/apcAsRVSRuMuj4on40IP935/ybmRkZIDKU1xc/PqEN732kJlEEKSK9/P0ubv3nT26e33hzFlz9u/3+SZwgUWffyG4OZxz3q1bV/EeoiIjxbMcMjMPZ2efdflmsIVJns8SibMC0fQxel1qymNaKeJJbqX252pjjqomZoETyBesTCRJYe7OxDt7dJ/xwdSA3nQ0a/aHhYWihX1MIgiS0925+/JLz4sbUaXzSp8ZOero0T8rX4bSMd+fV60WbNDmppviq3mfLvroIw+J37l1611bd6EKC/f8CsNg5wqqeoZYl5p80k1yuIl6aX+eNvUE4epbHp0WHUSK8RD79u3bfvrJx11uv83rtbd/rFbrkq+WVn4/gWofx8fHf7bgk5YtU8Sb5efnj3r+xbw8gnWcf171i3g2w333mVo9PCEhITVVVHF9v/wHl0pYkVmiYFKywTKFo0yVt+m8frrCLbTdEuTp7ZUIE1n67rxz+CHnZROXVX6z6uyI5/1zQ0vwPK7aMqXF7FnTv1m25Ikhg5OTkwjXGS715ZKvfOr6ciuAF5oREeFvvfG6IuiruS47++zUaTMqf7g1a0XdDBaLxfyt7+J1Gk6cOLk3Y5/LN5tWF729Ga6NQUo7LugTdmuv7VatFRYUSYnhL7dQvK/HYLA9udr4YwGslzbYnIJZPfGKHOntTExOThrxzLDvvln6xaKFQ58c0rnTzfHx1cLCwwT/TFZiubl5v/62xsdfyJXZmQ2xfi3tnZSUNHLE8GkfeMnJyp9+9toOFLt48aJ4Gbq+9/Qxvzr5LZ07hYWF2mwe67f58z9t/+Gsst/pWF/6NsPwNMp+9CK7WMhqBOCyeU229vZezamxU/nGU1udb3dQ6keUi033BG4w5d1Mp9XbldDuPG3aKWl0okL+4aoy9rlNZ57XxmhseoKNJEktW6aUtnR0XXc6nYJuLafTmZNzLmPf/hU/rhRfja/8adW/77vXbCHcMb0cl4krV7ceH/DY6FHPiic76bo+7YMZ4tvCxVb+tErQzRAaGvrfYU+b31tkZOSdPXoINkjftv3AwYNlv9OqjhTnebBI09g3+2geqFHWb2f0t37X/l689FSB/uwOZ1aR6/naI4FPa2sJ9TpYZLBl59SRR9RcMys4+uIXq3pUuBjszR6WExLjnAcHBwd5Fh4e3rhxo/4P9Fv46bw+d/cW7CojY19BgWhamffCVObFJj0+4LG+dE83cks8uNaxY4f4eN/uSu0uHFC6PmBVrstB4ax1HdH2qw5dq5QIpZ/T392ruXSsX7QZr/2uFVVo47WO4S83M9XG25WrTjhJ2cbTGVtYoArGByRF6RjgEWFZlgcPGiDYQNO0S5cuVuYQVTQYN/q5kQ3q1w/Qzo8e/TMz87BgA/Ewq1sdO3SoHh8v2GDt2vUuXQ6dGojOBruTTVitFXlb0cGkX0/r43ZqTnettaxCfeg2Z8Xlu3olyBNTFO/1EmPbcrUZp/1YMNK97wvVE8I1XBvJrHFwwEesExMTBU+RMwyjkg+8IAiSmWkH0dFR0z94v1o10T1b/jEMY+q06YIyRISH9xDORnUrLCx0+HBRa/BUVpZLl8NtyTxGOBXo2CU2aY1m938V5L+sPq2/87vq9DwrKatQH7lLzbjqevr2rClPaW0JFc55Y9frpSXnteePqfmVLuoqq/Z+rlNQHXGJvxwdmI7t8hRFqV5d9MnocIgWf/WKYkDW3Lh9cnLSxx/N8XWxxVJOp8dfMivr9PYdOwWv7XxLZ/+edfuvPnfHxor6J1zak8EWltrEyz53n2ZjV2kllXjLNmVrk393bdFVdLlYn3RQq1gTtI/hLzQxMVZrsK256oSsSrXxfrNqYy457MKytg7m7UICsrhiReLREV65bvUqnZXcqFGjF18YRbvPisOjLrqnub9pwiuLxSK+MWT9+g0uPRx3t5C93rWYcZaN/UXL9f0WT91gn2dqE3bqZmYitIjlc2+2uL1x4e4E+dWmSrDXeoldy9LEU84Cv+ql1VZtwmWHl0WMJenhiCqahpibl+d2wvHfRYmIiKjM/qt6ev8D9/d75H8eotqbruvLhU/Xq1GjRmo3P4N0fQxX1CWak3Puu+9/KPud+nFsVKr35w1knDWe/FZdul83OXVIM9ieC/qojer8PzTNxFP0UmvLH3SwxHmebNE3QZ6SooSYaOP9fFm995B94QWtxHTdtNOmDT3nfPWCo9hbvdkuRO4hXg+WznffLRe0aySJJSTUrMz+qzpIjLFRz41MSWlBsqvjx09kZWUJNnj4of6hof40Jku1btWyZo0agg0WfLbI5fIsrQnvlOR9z3k2Nn+7PuQ7dd0xL03jrALjhQ3q6I16xgVT53K32vJbbZUIbxXjzbHys8mm5uMVOfU5Oc5Hjzp+zXXTVixXVIc+7oJzWI7jd6vouugvnD8TWTUPlWYbNm7+8KO5gg1q164VGxtbmUNU0edBWUFBQR/Omfnk0GGVn2Un7vWOCA+/v999ldk/57xbatelS7/2tEHO2Zzf9+y9uWOHst984hZ5X7Zm5vliuVb29kZ9zi69ZQ3WrAavEc6igpnMWbHKLhWzE3nGoSvGyQLj2pWKuce9tIzjr7Yy+57eW0vWGJt1Ui3xusiyYZwu1sacNmItaqcI3jBMTpD1WIvEGbPqxiWNnVHZLpv2p103mGGmqJIkjYhW2ni+Otqavq3yqwXZ7Y6s06f37s3IPJSpCR9v0a3rHZVc1+EGBIkxFhMd/cG0KY/9Z2Burv+z7FRVXbFipWCDO3v2qPyz1v99b99ly74WfLx+v3yFS5DqxbLn06R3fjVM9cIY12qnLafY5tM6k5gh/fXAc+P62kMeH8fvhpRWh7/cWgk3ve4CZ+yBWnKdEOmlww5TDxnT9asOtipXZ3lq6XoIEjeuhax06rv5okrS4GjLwEhRQRcuXBSge8IrCg4OfnzAYxW/X6yzC5pukVgtxXvIzKZQ5sQXhXXr1HnxhdGV2cPWrdvO5oiWC/S7m6GsZs2atmjeXLDBpk2bKza+uzTiI7qafDhbeYafz2zuXld+o70PKfrbLbF8eKKpNp4r4/oDkXxfYq11iPJ0VGBXkvLJbbd2rlnT9QJpU7HW50LJ/Zec95x3DL1kz/HWf2k6SJ77+jXdz8kvve/q9dTQJ/w63Ziu6+I1t6Kiojq0b+9fwcqSJGnwYNFDRIqKitz2v/dO4UNulQK1elB5N8Xzl1r7/0n3YC1ldKKpfrzKkqSWoZZ3YqvyjmHvHnnkYZfvLClSX7zqyHNqhqoyXdtTrD580fG78AG7FAOyHldZ8oJz/t9hTw0Z4s+zbvZmZOzbL3oO0V139aS66T8ttVvjxqJFXZa7u22WMda/LX8+TQoJ5MMTFFl6uLH8fmd/6qK/ccYeqiXPaG6Jplim2DNpQJRlQfWgWlWQWNMeuP/fHTuUa5nvKdGm5Dmd5dvlRar21lVR+/cG9Nq5+O/TTzVp4m0gswKXqW4V+fHISk845+K9bdmaXlTk/oaWns357P68uujudf9JXHq1rTw8RSYZ0mwXxWc0U2JCAlNbcD44Oui56H9WXZSclDR69HMu39ytMrcT1bNUPcfzxKkbHyRZlt+cOF68UkLNmuX6oDVNE4/D1qldu22bNnRlZJ6WwitVUlIiuMuyXqw0vZ/c2USfuE+SovnkznJP4WMpfNUigi9NUfpdu7imqzQkqWmIMrNa0PDoG9Oz5UmnTh0XLphXcclIm+c+zDzPP7rxQSq9oP/8s09d0vK32NjYO7qUuydv167dntZqLPXsyOG0j6Nq2rSJeOxrwcLPBPf5xkewN+6WZ/bjdzRilR06kaT6UfyNzsrC7krnBPq3L8YivdJAmdfckhonu1mN3yeSVD9IfqVa0KKE4NtDK65gecNYgiyDBg6YM2uG22msDWXmdpp8mMQaeq5Q/xFBuj45t8HY1151+6OXXhwdGVlu+oZ4+Kh69fgeJpZe8ZW4D9BqtW3eLHr+xbXPi5rSuDvl+Q/yLg0lyY8/vCTViuQvtucLeijd6hBWGW60iuCTG1oWNVNaRSmSH3NKOY+xyK/HB31XJ+TBSOUf1EPHWNu2bb5d9tVzz47w9OSH1FA5xl1guodbBM//NFvbCvo4qe4Cu+OO26dNnfL998sPHzlSUFAYGRnZvl3bhx7q3778oo12u33Dhk2C/aSmdgvEQhlpqamz53wkeAT62nXr77mnj9f91I2RXr9TPn7F2JVt7DunH7zIrILJbJzJEmsQI7WuIbWrIXWuxYOq8CKjYRif14Qft+npRfKWfO3PEsP6V2e3u/ecc86MOiG8cxjvFMo7hHq/e7zKSJJUt26dDu3bde16R5fbbxMvfxDBpY/iLK/kGqcc/9u5L0mdwizPRIn+9JLJRUwPHDx0/rz7dYZDQ0Nvu/UWMzsxyTAMp9NpsVjc9ow7HI6zZ0XDR/Hx8S41GJXTZ84IuihlRa5fr56v+yxR2YmrxpHLxpErxukCdtFqaAaLCmH1YqTkGKNxHG9WTaoe9o9oFjl043CxnmE1TjiMLCfLLtF0bkQpPDlUrivrbcN4SiiPV2iqyvmfLDh58lQldyJJUvXq1ZOTE1NatEhKSvRpoMWqG/MK1dVWNUaWhkRaeoR5+QAzGyQAEPjH1L4A/y9DkAAIIEgABBAkAAIIEgABBAmAAIIEQABBAiCAIAEQQJAACCBIAAQQJAACCBIAAQQJgACCBEAAQQIggCABEECQAAggSAAEECQAAggSAAEECYAAggRAAEECIIAgARBAkAAIIEgABBAkAAIIEgABBAmAAIIEQABBAiCAIAEQQJAACCBIAAQQJAACCBIAAQQJgACCBEAAQQIggCABEECQAAggSAAEECQAAggSAAEECYAAggRAAEECIIAgARBAkAAIIEgABBAkAAIIEgABBAmAAIIEQABBAiCAIAEQQJAACCBIAAQQJAACCBIAAQQJgACCBEAAQQIggCABEECQAAggSAAEECQAAggSAAEECYAAggRAAEECIIAgARBAkAAIIEgABBAkAAIIEgABBAmAAIIEQABBAiCAIAEQQJAACCBIAAQQJAACCBIAAQQJgACCBEAAQQIggCABEECQAAggSAAEECQAAggSAAEECYAAggRAAEECIIAgARBAkAAIIEgABBAkAAIIEgABBAmAAIIEQABBAiCAIAEQQJAACCBIAAQQJAACCBIAAQQJgACCBEAAQQIggCABEECQAAggSAAEECQAAggSAAEECYAAggRAAEECIPB/AwAA//+86x+E8WpAVwAAAABJRU5ErkJggg==;" parent="1" vertex="1">
          <mxGeometry x="948.4499999999999" y="2100" width="63.5" height="63.5" as="geometry" />
        </mxCell>
        <mxCell id="MKCzWIRwI4Zgw65z_sEB-193" value="" style="shape=image;aspect=fixed;image=data:image/png,iVBORw0KGgoAAAANSUhEUgAAARgAAAEYCAIAAAAI7H7bAAAfvUlEQVR4nOzdB3QUVf838Dt3ZtM7AUJPQieAVMGCkIAg8og+KOpffZCiKA+Cgl2KoKIiglRfERREEcGGiCJKL6EKAYEA0gIhdFJ3k92d8h6If0+y2b07u/lt8H3P93M4HpPMztxk57v3zr137iiGYTAAqBx+owsA8P8DBAmAAIIEQABBAiCAIAEQQJAACCBIAAQQJAACCBIAAQQJgACCBEAAQQIggCABEECQAAggSAAEECQAAggSAAEECYAAggRAAEECIIAgARBAkAAIIEgABBAkAAIIEgABBAmAAIIEQABBAiCAIAEQQJAACCBIAAQQJAACCBIAAQQJgACCBEAAQQIggCABEECQAAggSAAEECQAAggSAAEECYAAggRAAEECIIAgARBAkAAIIEgABBAkAAIIEgABBAmAAIIEQABBAiCAIAEQQJAACCBIAAQQJAACCBIAAQQJgACCBEAAQQIggCABEECQAAggSAAEECQAAggSAAEECYAAggRAAEECIIAgARBAkAAIIEgABBAkAAIIEgABBAmAAIIEQABBAiCAIAEQQJAACCBIAAQQJAACCBIAAQQJgACCBEAAQQIggCABEECQAAggSAAEECQAAggSAAEECYAAggRAAEECIIAgARBAkAAIIEgABBAkAAIIEgABBAmAAIIEQABBAiCAIAEQQJAACCBIAAQQJAACCBIAAQQJgACCBEBA8eM1BQUFJSUl4dcRFiV92zbVqVb8vsGMZk2b1axZg/BYqqZlZ2fn5JxTVTU2NjYpKTGC9HfxoSQ6u1jEzhXqOYUsz8HySgxVZ+HBLDZUqhnGEiJY7QgeEXRDiuZKY+y8XT9pNy44jVxduqLqmmFEKryaRYrjRmIwr2uRImSpCkqiqtqFC+dzzp232awS8/+INWrWaNa0KUmRJMMwzG+9Z8/e6TNnHzhwUNf1oKCg/g/0GzlieHBwMElRUrv3vHo11+2P3pg4/t6+95AchTF26FDmuNcnHjt2vPRLSZLCw8PuvbfvU08OiY6OpjqKmMHYiSvGb8f0dSeMqyXXvrz2NkjXPjWYxCR+/UsuMZlZOGtfS+rRQLqlFg+zVE3pXB226UuvaOkFxlX9+uli6Nf+c62c17/i1/+IiiwbWqtw5f5IKTVcCQlMW+fw4SOLPv8ifdv23Ny8yu/t3r73vDFxPEW5fKmRfv75l9cnvulwOEq/tNvtXyxesnHT5g+mvd+4UUOS0niiqhrJfvLz82fP+T/Lf/jx79/i2nlgGEVF1sWLl6xZs27SWxM7dmhPcixPcm1s/XF91RHjVK7xV3hKP1IrnnmGYWjMobP0bCP9HIsM0lLrSz3q85ZxXK6SJvklB/v2irouT8+yG/r/hoeV/qtYVFVVJba3yLm3mIdz9bYIuX8kbxcik5SkpKTkx5U/fff9D4cPH9F1nWSf1z9DqfZkOkgnTpyc+OaksudfqTNnsp8b9fzizxfGxMSQFaoCkt/3ypUrQ58afuz4cU8bXLhwYdh/Rwx7euiggQM4pz9V/7zEvt6nbTrBVP16teP2jPREZ4V2Y8UxY8UJo0G0/mQK71I7gGE6WKQvvqhtytPtus48hcdjUXWrwVYX6KuLWFKw/GiU0jdC9ucS4q+d6V8t/Xru3Hl5+fn+7qMqmH0zvvxqaUlJidsfZWefnfbBTNJSBcSktycLUlTK6XTOnDXnhx9+JD/6Jzu04d9q6/9kWiU/Tw3jVJ4+Zrv2Qrqaa/ehWW7eikvaE0fUNVc0h1a5/RvGSbv61hX7i5cdRbqfu5o775PJ773/D0+RD0Hatm2H4Kc/rvxp0eeLiYoUEJ98umDtuvUmN54+c/alS5eoDn3Vyt78RVu6u/QyiIhh7DyvP7VBPXCFMks5JcYrx9RJJ1VNJWs+Md3YaHX2u2D/1eZb+9zpdE5+7/2PP55PVpJAMhukoqIiwU91XZ86bfrni78kKhWxjZs2z5z1ofnt8/LyJk+ZSnLoNUf0wYu1LcdIdubqvNUYudU595Bmp7iEzCjQBx50rr+sGv7WHh4Z7LJTe/WKfVa+03xJp7w/7cslSwmviALKbJA4995Gnjlz9ukzZypdJHqfLljo60vWrFn3xx8HKnncPWeMqWuNYtfrSkpOjX1xVJu6v7JJOlSojz6i5tkDeNYahrGgwDn2qtNpIqdHjhxd9vW3gSsMObNBMtOX4HA4x4+fWFxcXOlSUTqUeXjfvj98fZVhGJPenqyqbsa1TNp3lr37WxV9nq46rX1+1P8sbc3VhmeqRY7Al9UwVlud7+Q5vR5p/qcLfBqYueHMBkky11O4N2PfE0OH5eX9gy4NF3+5xL+3JPPw4Y2bNvt30PQT+qsrtHyb76/0qX/sbwabe1h7c69q8z3423P1Vw87bd7P7Qok6a9/PjGM5UXOjwucgk327f9jzZp1PpfnhvK7W9KjAwcOfjB95sQJ48j37Ae73b5xo59hYIytXbuue1qqr6+yOdj0DYZmvobgLFhhLWtJidGsRpgky6zAwc4Usn2XjMvFzOyngGGsPqMZjI1v68N7mlmov3ZEtWuG2TxwHimzlAgl2aLVDpI4Z/mqnqXxQ3Yjy6GXDtSaKer8ArWNReoc6r6oixZ9YaYqj46OatSwUXCI//MBGiYn+/1aF/RBYoyt+HFlWlq3rnd0CcTOffL98hWFhYWCDTjngvdsy5b0kpKSkJAQnw762Q6zdVFYMOvRiN/SQGoeL0VUOB9UnWUXGrvOGz8e07OKTMVp9VktMZINaGTqbU3P1ccedtpUw0wdGGfhPeLk2yOkthHy9VkL5UZadcZOOfRtNn1Nkba/RPfaQanr+it56mcKb2BxbRMVFBZu2Zoufvmtt3R++OEHO3e6mWpWTeUFJEi6rr82ZtzMGdPat2sXiP2bZLVa5348T7BBclLSnXd2n+u5gzW/oGDd+g13977L/EE3/mms2O99s+hQ9kBrqXdTOSbU4zYKZ4nRUmK01K8x33PR+OyQ9sdlb5/TBvv4iHaiiL3UUgkTvrfpV/VXMp0OzXuKwhX+n5ryIzWUUM/XAZyx5CCeHMQfjVG22bR5eVpGsZdWZoFTm5TnnFs92OX4hzMPexqxLPXsyOGDBw30UugqF6jR8aIi6/ARz505k02yN3uFGRVmbN+x09PkvVK9e/f6V5+7xZd/PjXWC0vY9A26197jmDA2o6/8P21EKSpL5qxjgjS9m3J7XRPvl8F+O6tNPiA6jw8W6GMOOx2q91ouOVxZ1twyJEGUIhe3hMmf1g4aFGvx2lzcbdf3lri2gE8Lz5nw8LBHH3nEbFGqUACnmRTbise9PrHirKIqIx6BlSQpNbVr/fr1br21s2Cz7Tt25uaK0ljWTwc1m93LNnVj2JQ+St0Yn7sUFM7G36z8TzPZzOylNee0L0+6v0rbflUfsd9Z7PCeokYR8uyGSo0gf06S4XGWQTHesqTrSyqM0uYLJzE0bdIkOPifMRm+vMBOfty7N2Pxl18F9BCeOJ3OTZu2CDZo0+amxo0aMcaGDB4k2MxqtX7z7Xdmjmgw9sshL9vUjmaz/i0nVTOzPzeCFfZ0K/mxZt5ngraM4/0buNksp1gfe8hZbGIoJy5EmZosVw/yc54jZ2xErGVAtIUJRyA32LSz5TsMxe266tWr+1eeQAv4LOK5H8/fmr4t0EepaOfO3eJuhkEDB5T+T9s2NzVsKOq9+WrpNzYTg2OZ59g5Ybd/sIW9nCZX7FTw1cDmclo90RvXqhp/s7WlwmX8tRS9fFC1mqiLGkfwhU15reDKnh4jYy09w0XXapquf1RYrhUq7qTUTXYMVrmAB6m4uHjks6M3bRZVDoGw/IcVgp82a9b0705Fzvl99/YVbHz58uW1Jq6U1hwRdXgrCpvQi7dI8Lob7xTOxnZQHm8uu72Z4p4GfM7NlhoVrr62X9EH7HIey/d+IjaJlGc3sST41aJzwRkbExdU3SKqQn8p1rPLVEoREaI7LLOzcypfqkCoivtaVFV9fcKbRVZrFRyrlNVm27xlq2CDtPKjQ2mp3bx0OZiY8LpX2LFyWxJrX4/s9heFsyHN5f80k1363G6K5y+0tFQM2FmbMfaA02qiRVctRH6/kRJrIStqJGePRAkrJU3bWWZqUrW4OMHGR48evXLlClXZCJkNUkiwx7GU2NgYi8XLrZtXr1595933qmzSx7Jl34hnKqWldi37Zd26dbp0uV2w/Y4dO8UNxexcdl7QrpPYv1Lo78Ee0ETuUaYf76bq8httlYr3emfb9Jf3O8206JpFyQuaKwmuPdKV9a8wHmkRZWlfmdlJDRIbCLbUNG3ylGk2mx9zRgLL7DhSaJjHntr69erd868+b739rngPK1f+bBjGhPHjgoICe8N0fkHBJ5+KZqm2aplS2s1Q1ujnRqanb/M0ua64uHj1r789cH8/T/vcdFzU610/lrWuQ1/5K5yNaafUj9Q+O6r3acBHt3KTop1X9Nf+UG0O3et4UZNIeVZTS3QA3pxqMh8ULs3MlzxdAJUNUtMmjWNjYwU9patX/7pt2/Y+fXp3veP2OrXrKIrHdqPEeUR4RHh4WCBu03RBMyDbv//9x0+cWPLVMvFmP/20qknjxgMf/w/JQT1JT98mrj3S3M36SUpKbN2q5Z69GZ5etWbtekGQDp4Xfd63q09zk29FCmeDmspJkaxLLbliis4VG2P3qzYTLbrYEPm9JnIgUlSqb7hlTr7HBQNynFqxwUKvlz84OLhXrzu/Ep5LBQUFS5YsXbJkKZMk4SQKg3NeLS6uWfNmd/XqmZraNTwsrHK/h0dkSX3h+VHdut7hdbO5c+cdOXqU6qBurRNez3DO01K7uf1R9+5pghf+vmdPTs45tz8yGDslbLc3iQ/s2jrdartLkc14OUMtMnEXbeMoeUGKXDtA65VcFydLiZ57L1SJXy5z5/CAxx41Oy3LKF02xtM/puv6pcuXN2/eMmbs+LTuPZ8d9fzOXbtpfqXyyP52iqK8PemNik0mF7bi4tHPv3Tu3Hmq47q4ejV3g3CWau/evRI9tMLv7n1XUJDHwT6H3TFj1my3P7LZWa7nnhSJs8RqVb1+4I7L+uPbnMfyvPfRNY6UZzW31Apkiko1UUSfJpfK3JNbp07tB/s/QF6AkhL7hg2bnhw67OFHBpAPyVD++cLDwydOGCfLXoYLs7PPPjl0mNWXTjzzvRSbt2wVzKWQJGnwwMc9/TQuLrZdu7aCnf/229qLF93cgm5XmWB1A0NnsYFqULh3JF8fm2FqvCguVH6vmUzYRydQTfF8HWEY1vKRHzRoQGiouQlUvsvMzHxmxCjzSw+YQfw5lJLSYsp774Z4m9l+Jjv7nclTzO9WM31Pgrhd1zKlRSPhymE9uotumtA0bf2GDRW/79C8TIURjqMQO2vVR+zSbCZSFGGR5rWSq6AuKhXMRUVy6eSJi40d9dyIwBVG17UxY18XDzb6hP6P2D2t2/hxY7zeCPjjj/TrpZw6lSWegX/ffaKBV8ZYr149o6KiBBt8v9zNn17hXsbjK7tykC/qhPNxrXikiak9RU5j4p/apcAsRVSRuMuj4on40IP935/ybmRkZIDKU1xc/PqEN732kJlEEKSK9/P0ubv3nT26e33hzFlz9u/3+SZwgUWffyG4OZxz3q1bV/EeoiIjxbMcMjMPZ2efdflmsIVJns8SibMC0fQxel1qymNaKeJJbqX252pjjqomZoETyBesTCRJYe7OxDt7dJ/xwdSA3nQ0a/aHhYWihX1MIgiS0925+/JLz4sbUaXzSp8ZOero0T8rX4bSMd+fV60WbNDmppviq3mfLvroIw+J37l1611bd6EKC/f8CsNg5wqqeoZYl5p80k1yuIl6aX+eNvUE4epbHp0WHUSK8RD79u3bfvrJx11uv83rtbd/rFbrkq+WVn4/gWofx8fHf7bgk5YtU8Sb5efnj3r+xbw8gnWcf171i3g2w333mVo9PCEhITVVVHF9v/wHl0pYkVmiYFKywTKFo0yVt+m8frrCLbTdEuTp7ZUIE1n67rxz+CHnZROXVX6z6uyI5/1zQ0vwPK7aMqXF7FnTv1m25Ikhg5OTkwjXGS715ZKvfOr6ciuAF5oREeFvvfG6IuiruS47++zUaTMqf7g1a0XdDBaLxfyt7+J1Gk6cOLk3Y5/LN5tWF729Ga6NQUo7LugTdmuv7VatFRYUSYnhL7dQvK/HYLA9udr4YwGslzbYnIJZPfGKHOntTExOThrxzLDvvln6xaKFQ58c0rnTzfHx1cLCwwT/TFZiubl5v/62xsdfyJXZmQ2xfi3tnZSUNHLE8GkfeMnJyp9+9toOFLt48aJ4Gbq+9/Qxvzr5LZ07hYWF2mwe67f58z9t/+Gsst/pWF/6NsPwNMp+9CK7WMhqBOCyeU229vZezamxU/nGU1udb3dQ6keUi033BG4w5d1Mp9XbldDuPG3aKWl0okL+4aoy9rlNZ57XxmhseoKNJEktW6aUtnR0XXc6nYJuLafTmZNzLmPf/hU/rhRfja/8adW/77vXbCHcMb0cl4krV7ceH/DY6FHPiic76bo+7YMZ4tvCxVb+tErQzRAaGvrfYU+b31tkZOSdPXoINkjftv3AwYNlv9OqjhTnebBI09g3+2geqFHWb2f0t37X/l689FSB/uwOZ1aR6/naI4FPa2sJ9TpYZLBl59SRR9RcMys4+uIXq3pUuBjszR6WExLjnAcHBwd5Fh4e3rhxo/4P9Fv46bw+d/cW7CojY19BgWhamffCVObFJj0+4LG+dE83cks8uNaxY4f4eN/uSu0uHFC6PmBVrstB4ax1HdH2qw5dq5QIpZ/T392ruXSsX7QZr/2uFVVo47WO4S83M9XG25WrTjhJ2cbTGVtYoArGByRF6RjgEWFZlgcPGiDYQNO0S5cuVuYQVTQYN/q5kQ3q1w/Qzo8e/TMz87BgA/Ewq1sdO3SoHh8v2GDt2vUuXQ6dGojOBruTTVitFXlb0cGkX0/r43ZqTnettaxCfeg2Z8Xlu3olyBNTFO/1EmPbcrUZp/1YMNK97wvVE8I1XBvJrHFwwEesExMTBU+RMwyjkg+8IAiSmWkH0dFR0z94v1o10T1b/jEMY+q06YIyRISH9xDORnUrLCx0+HBRa/BUVpZLl8NtyTxGOBXo2CU2aY1m938V5L+sPq2/87vq9DwrKatQH7lLzbjqevr2rClPaW0JFc55Y9frpSXnteePqfmVLuoqq/Z+rlNQHXGJvxwdmI7t8hRFqV5d9MnocIgWf/WKYkDW3Lh9cnLSxx/N8XWxxVJOp8dfMivr9PYdOwWv7XxLZ/+edfuvPnfHxor6J1zak8EWltrEyz53n2ZjV2kllXjLNmVrk393bdFVdLlYn3RQq1gTtI/hLzQxMVZrsK256oSsSrXxfrNqYy457MKytg7m7UICsrhiReLREV65bvUqnZXcqFGjF18YRbvPisOjLrqnub9pwiuLxSK+MWT9+g0uPRx3t5C93rWYcZaN/UXL9f0WT91gn2dqE3bqZmYitIjlc2+2uL1x4e4E+dWmSrDXeoldy9LEU84Cv+ql1VZtwmWHl0WMJenhiCqahpibl+d2wvHfRYmIiKjM/qt6ev8D9/d75H8eotqbruvLhU/Xq1GjRmo3P4N0fQxX1CWak3Puu+9/KPud+nFsVKr35w1knDWe/FZdul83OXVIM9ieC/qojer8PzTNxFP0UmvLH3SwxHmebNE3QZ6SooSYaOP9fFm995B94QWtxHTdtNOmDT3nfPWCo9hbvdkuRO4hXg+WznffLRe0aySJJSTUrMz+qzpIjLFRz41MSWlBsqvjx09kZWUJNnj4of6hof40Jku1btWyZo0agg0WfLbI5fIsrQnvlOR9z3k2Nn+7PuQ7dd0xL03jrALjhQ3q6I16xgVT53K32vJbbZUIbxXjzbHys8mm5uMVOfU5Oc5Hjzp+zXXTVixXVIc+7oJzWI7jd6vouugvnD8TWTUPlWYbNm7+8KO5gg1q164VGxtbmUNU0edBWUFBQR/Omfnk0GGVn2Un7vWOCA+/v999ldk/57xbatelS7/2tEHO2Zzf9+y9uWOHst984hZ5X7Zm5vliuVb29kZ9zi69ZQ3WrAavEc6igpnMWbHKLhWzE3nGoSvGyQLj2pWKuce9tIzjr7Yy+57eW0vWGJt1Ui3xusiyYZwu1sacNmItaqcI3jBMTpD1WIvEGbPqxiWNnVHZLpv2p103mGGmqJIkjYhW2ni+Otqavq3yqwXZ7Y6s06f37s3IPJSpCR9v0a3rHZVc1+EGBIkxFhMd/cG0KY/9Z2Burv+z7FRVXbFipWCDO3v2qPyz1v99b99ly74WfLx+v3yFS5DqxbLn06R3fjVM9cIY12qnLafY5tM6k5gh/fXAc+P62kMeH8fvhpRWh7/cWgk3ve4CZ+yBWnKdEOmlww5TDxnT9asOtipXZ3lq6XoIEjeuhax06rv5okrS4GjLwEhRQRcuXBSge8IrCg4OfnzAYxW/X6yzC5pukVgtxXvIzKZQ5sQXhXXr1HnxhdGV2cPWrdvO5oiWC/S7m6GsZs2atmjeXLDBpk2bKza+uzTiI7qafDhbeYafz2zuXld+o70PKfrbLbF8eKKpNp4r4/oDkXxfYq11iPJ0VGBXkvLJbbd2rlnT9QJpU7HW50LJ/Zec95x3DL1kz/HWf2k6SJ77+jXdz8kvve/q9dTQJ/w63Ziu6+I1t6Kiojq0b+9fwcqSJGnwYNFDRIqKitz2v/dO4UNulQK1elB5N8Xzl1r7/0n3YC1ldKKpfrzKkqSWoZZ3YqvyjmHvHnnkYZfvLClSX7zqyHNqhqoyXdtTrD580fG78AG7FAOyHldZ8oJz/t9hTw0Z4s+zbvZmZOzbL3oO0V139aS66T8ttVvjxqJFXZa7u22WMda/LX8+TQoJ5MMTFFl6uLH8fmd/6qK/ccYeqiXPaG6Jplim2DNpQJRlQfWgWlWQWNMeuP/fHTuUa5nvKdGm5Dmd5dvlRar21lVR+/cG9Nq5+O/TTzVp4m0gswKXqW4V+fHISk845+K9bdmaXlTk/oaWns357P68uujudf9JXHq1rTw8RSYZ0mwXxWc0U2JCAlNbcD44Oui56H9WXZSclDR69HMu39ytMrcT1bNUPcfzxKkbHyRZlt+cOF68UkLNmuX6oDVNE4/D1qldu22bNnRlZJ6WwitVUlIiuMuyXqw0vZ/c2USfuE+SovnkznJP4WMpfNUigi9NUfpdu7imqzQkqWmIMrNa0PDoG9Oz5UmnTh0XLphXcclIm+c+zDzPP7rxQSq9oP/8s09d0vK32NjYO7qUuydv167dntZqLPXsyOG0j6Nq2rSJeOxrwcLPBPf5xkewN+6WZ/bjdzRilR06kaT6UfyNzsrC7krnBPq3L8YivdJAmdfckhonu1mN3yeSVD9IfqVa0KKE4NtDK65gecNYgiyDBg6YM2uG22msDWXmdpp8mMQaeq5Q/xFBuj45t8HY1151+6OXXhwdGVlu+oZ4+Kh69fgeJpZe8ZW4D9BqtW3eLHr+xbXPi5rSuDvl+Q/yLg0lyY8/vCTViuQvtucLeijd6hBWGW60iuCTG1oWNVNaRSmSH3NKOY+xyK/HB31XJ+TBSOUf1EPHWNu2bb5d9tVzz47w9OSH1FA5xl1guodbBM//NFvbCvo4qe4Cu+OO26dNnfL998sPHzlSUFAYGRnZvl3bhx7q3778oo12u33Dhk2C/aSmdgvEQhlpqamz53wkeAT62nXr77mnj9f91I2RXr9TPn7F2JVt7DunH7zIrILJbJzJEmsQI7WuIbWrIXWuxYOq8CKjYRif14Qft+npRfKWfO3PEsP6V2e3u/ecc86MOiG8cxjvFMo7hHq/e7zKSJJUt26dDu3bde16R5fbbxMvfxDBpY/iLK/kGqcc/9u5L0mdwizPRIn+9JLJRUwPHDx0/rz7dYZDQ0Nvu/UWMzsxyTAMp9NpsVjc9ow7HI6zZ0XDR/Hx8S41GJXTZ84IuihlRa5fr56v+yxR2YmrxpHLxpErxukCdtFqaAaLCmH1YqTkGKNxHG9WTaoe9o9oFjl043CxnmE1TjiMLCfLLtF0bkQpPDlUrivrbcN4SiiPV2iqyvmfLDh58lQldyJJUvXq1ZOTE1NatEhKSvRpoMWqG/MK1dVWNUaWhkRaeoR5+QAzGyQAEPjH1L4A/y9DkAAIIEgABBAkAAIIEgABBAmAAIIEQABBAiCAIAEQQJAACCBIAAQQJAACCBIAAQQJgACCBEAAQQIggCABEECQAAggSAAEECQAAggSAAEECYAAggRAAEECIIAgARBAkAAIIEgABBAkAAIIEgABBAmAAIIEQABBAiCAIAEQQJAACCBIAAQQJAACCBIAAQQJgACCBEAAQQIggCABEECQAAggSAAEECQAAggSAAEECYAAggRAAEECIIAgARBAkAAIIEgABBAkAAIIEgABBAmAAIIEQABBAiCAIAEQQJAACCBIAAQQJAACCBIAAQQJgACCBEAAQQIggCABEECQAAggSAAEECQAAggSAAEECYAAggRAAEECIIAgARBAkAAIIEgABBAkAAIIEgABBAmAAIIEQABBAiCAIAEQQJAACCBIAAQQJAACCBIAAQQJgACCBEAAQQIggCABEECQAAggSAAEECQAAggSAAEECYAAggRAAEECIIAgARBAkAAIIEgABBAkAAIIEgABBAmAAIIEQABBAiCAIAEQQJAACCBIAAQQJAACCBIAAQQJgACCBEAAQQIggCABEECQAAggSAAEECQAAggSAAEECYAAggRAAEECIPB/AwAA//+86x+E8WpAVwAAAABJRU5ErkJggg==;" parent="1" vertex="1">
          <mxGeometry x="1045.95" y="2100" width="63.5" height="63.5" as="geometry" />
        </mxCell>
        <mxCell id="MKCzWIRwI4Zgw65z_sEB-195" value="" style="sketch=0;outlineConnect=0;fontColor=#232F3E;gradientColor=none;fillColor=#3F8624;strokeColor=none;dashed=0;verticalLabelPosition=bottom;verticalAlign=top;align=center;html=1;fontSize=12;fontStyle=0;aspect=fixed;pointerEvents=1;shape=mxgraph.aws4.file_system;" parent="1" vertex="1">
          <mxGeometry x="959.8799999999999" y="2184.5" width="44.88" height="42" as="geometry" />
        </mxCell>
        <mxCell id="MKCzWIRwI4Zgw65z_sEB-196" value="Fastdfs" style="text;html=1;align=center;verticalAlign=middle;resizable=0;points=[];autosize=1;strokeColor=none;fillColor=none;fontSize=15;" parent="1" vertex="1">
          <mxGeometry x="953.1999999999999" y="2219.58" width="70" height="30" as="geometry" />
        </mxCell>
        <mxCell id="MKCzWIRwI4Zgw65z_sEB-198" value="" style="sketch=0;aspect=fixed;html=1;points=[];align=center;image;fontSize=12;image=img/lib/mscae/Cache_Redis_Product.svg;dashed=1;" parent="1" vertex="1">
          <mxGeometry x="938.27" y="2270" width="59.52" height="50" as="geometry" />
        </mxCell>
        <mxCell id="MKCzWIRwI4Zgw65z_sEB-199" value="" style="sketch=0;aspect=fixed;html=1;points=[];align=center;image;fontSize=12;image=img/lib/mscae/Cache_Redis_Product.svg;dashed=1;" parent="1" vertex="1">
          <mxGeometry x="1014.6999999999999" y="2270" width="59.52" height="50" as="geometry" />
        </mxCell>
        <mxCell id="MKCzWIRwI4Zgw65z_sEB-209" value="认证服务" style="text;html=1;align=center;verticalAlign=middle;resizable=0;points=[];autosize=1;strokeColor=none;fillColor=none;fontSize=15;" parent="1" vertex="1">
          <mxGeometry x="604.68" y="2130.5" width="80" height="30" as="geometry" />
        </mxCell>
        <mxCell id="MKCzWIRwI4Zgw65z_sEB-214" value="&lt;p class=&quot;MsoNormal&quot;&gt;&lt;font face=&quot;Segoe UI&quot;&gt;支付和结算&lt;/font&gt;&lt;/p&gt;" style="text;whiteSpace=wrap;html=1;fontSize=15;" parent="1" vertex="1">
          <mxGeometry x="446" y="2270" width="80.5" height="40" as="geometry" />
        </mxCell>
        <mxCell id="MKCzWIRwI4Zgw65z_sEB-215" value="&lt;p class=&quot;MsoNormal&quot;&gt;客户服务与支持&lt;/p&gt;" style="text;whiteSpace=wrap;html=1;fontSize=15;" parent="1" vertex="1">
          <mxGeometry x="539.5" y="2270" width="118" height="40" as="geometry" />
        </mxCell>
        <mxCell id="MKCzWIRwI4Zgw65z_sEB-216" value="" style="shape=image;aspect=fixed;image=data:image/png,iVBORw0KGgoAAAANSUhEUgAAAEAAAAA+CAYAAACbQR1vAAAMiUlEQVRoge2b228cVx3Hf3NZx/d17CRNc2vSJE1T2lLatNAWSAUUhBASIPGAhMRFvIF4QIK/gncekOAFkHgBXkBcSgWF0gstTa9UuTb31LETx/El9u7M8Pucc8a7WZ9Z79gptik/ebw7Mzsz5/zO9/f9Xc6ZIFOR97GEq92A1Zb/K2C1G7DaEr8XN02VVuZTkZqyS5Kxb4/pIbsvjeOBfg8Dt+n3KAjMJ/uRO96lB7r0eBDc+raWUoCly8w0nu1aXWS8lsqk9vR6InK9rp/1xueM/qimF9WcMurus5Zmdt8poKK9jPVLhS20n7H73qXn+lUTQxU2kaHYft+oW1X3+yJ7ba5AtFRGT0GnXqCuP5usiVy4kcrbU6m8NZ3KmZnMdNIoROyIJu5ueQc2mC1wn4u/g4Y5vXAuFbe574n9DpLmHVpyVEROQd16YFNXIHv7AtnXG8odPaEM6/5gbJF0SxTA2Wnt1XNXE/nD5br8WzvPrYcVl1u6RDZ35aMTmNGpNo1UbxwskAzX0KagZT9/eua2/Jn5fmqQlsm4amG8Zj/HdLui26SibFLPcf6anotVIXf3h/LkpkgerEYyUuEZ7RXRVgGcuao3/tn5mjw9nsht2tlDQ5EcUI1v1SG8bUMgA7EUQC7I/1Ykjdbd3EwQN6v/6DiKGZ3L5Jii8h86ULT5EW3nN3ZWZGd32JY72ioACP76Yl1+eq4mh4dj+cr2WDseGOi9F4S0XDFo0W6odcoxRegvLtTl5WuJfHFrLF/fUZG+uLixhW4Q1j6lNv670brc3RfKt3bFsrsnkJ5obXUesZ5ETU7bdt9gKN/fW5GPDkfyF0Xtm6qQtI2VFyoAMnthIpFJ/fKl22MZ6QqWtKe1IChiRHmI0YeEnx6rGyIt/H3RCZj4zeupbFcb2q8I6JRV14IwUHvVK+xRr/CWIuDd+WUg4JKSynk1qp3d1tWsNyE+2KsDN6NEeXK6GAKFCjgxkxro7NObEIysNwGwxAYEXydniFX8KPAqAN8LAfJ5Z+/6TRf29dmg66wieTrx/8bbuxspwUaqgYUYX79eZdAFZoTls0kJBMyauN7a0WAbH7rWBcslZ5iu2xjB+xvfQeJ7Eprhio2715JkLrMkAXtBo7531V0VuXmaTlg+Q35RxgRQwJQqYJPG+2uJAego5vmGuucfna7JD0/Oy4sTaTHBBWJylBmXWPnEmw5jAlO6beqyN1ltyVwtAWL+q0Z3v9ek7OKc7dCrk4l8SpMfX0cYPJIyBrTIBLwKmKqLQcBmELCKCshMep3JZQ1kCGv/NJbICfXpzXHN8WnrrnuixdfnHMB5+uMTrwLGaqlJMAwCbkVPliHY+ZWayItq57/VfIQaxIxnFCnKELTB9q1CaQQFcOZKrYQCrtZsIIEHaK6v2Dw9W0hMA/eQTqJkV0xadH3ouZiK0cvXUtPxFzUfwSMVBbO4t1OqmQP9i4eKW/dFlsi5h0+8CoBoiP2jljocTT9/I5Mzs6lJlkiL9+uDN3q0v0gclMnZE1cK266x+p29i68FuhRaqrF1w3mVyCcEOEdVAZ/W+7cqM1dwRbdSHAAJhpItsn+Lhkx+crZutE7p6du7u+TJzUuXFhnBP6oN//xczXSGQueXt8Wyq7tiKjnNguL39Ip8Z3dFPj8byTNXEnnuamrsvRXJmPbZGVuDpEbYKpErzd0oEwjNGQR4qjnOrRzoD0RBIKPzYlxS0c2bBa/yisJ6gqgsFVPOen0yNdUbb8OCwNQM79Jc5Gs7VBG3RZrv23NxcHPDR5XlxgoyvryqXIQgfyic2FFoVQD72NShamQ+eeRrqoDcJbWTo0piJ5qyMq7AnNqlqqaGGASm8UenMgN32nB4OJJHN4YLJE05jPv4ilsGAcYESiAAezEI8Jh2aOAZyo5ueymmcHKmfdVlXh9OXj7a0lk4wcC6oHEInTqtkMHfA/eNCvPPbI7kB3u75Ht7uuSzWyJTCeI3PjABGmMCZTgASNO9Imrb3h3IwYFAjs+Iqfm/oPb52MbI64sRYP6Ssjnty2v+s64M/roi6BMjtpE+QWfP6/3PKVpozz39kRxU4t2kaR5E+SFF4zm9GcqsOW5pFmMCQUkOyBFQFANQH3hg0JoBiv3ntcT4WR8EQQZQp5yObNHskhpDLsemmVTJvPE89wPef79SN6Pbr8P1uMJ/2PUS84CTPjAQmRpgr2cAFkiwDAcwMuESU1H3D4SyzZkBidPLE6nXVwPbZ5XFaQC329tra/f5gy/qCfjBd3ViRj9ReNtzu/R5jwwtjk6DwM4u+WqWPAfUlSLBKLDab0dt+H6UwG9JNghYfMVH2P5VZXsUwcBBoPcNNGIHFGMrt4uvhTNwgTSen1viKxebm8kVKc5qvQrojuzEQ7s5Izrz8FDDG1BCgxCbr+H7ETWPi079dBqbvVcVsHmD/Q2jDAKmWiI1cgBcLPfllhRmPqI800nMddN9RMzAdBfYs18BoS2LtUMAJsI8wR5XMsPO32qBMhOjuMmJmoX//YN2NokS+0ElM4M0PQ7BHW8J9K/pNczy5Nc+rNC3szzlNEA/allpBQRmZJby7oaFlQwjsQ95RaFOw3NBKW9cTwwEQQzTVRBVbOAcmXodgpc42YQeiJORx3Q4RGHmUb12YBmT+fTDIKDABopNwM3IthO8wT3kAs4uX1dfzeyxyd/phPr4nMB29tioLrTpkyHDbRsaPEA8MOVcFRbzN7X9PLrjunuV6ZczMZO66fjSCEiXIEGE9hxUe97VbRsGXI84wqNTEOOsi94O9BE8BS66E5PoPDTU8FtvqwJGXUSJMpiV4j6aL8nHRyJvnN+JGA7IyiIg5MJgSQUg1djaNuSEGRATkJgwfX3EQRjoEjd0N/kvTAEvko/MRcLiOWp3mXF9uTK2qdIwnXLLHhqSpDZYK4eAyLJwu/A2F+z5Y8Pxgjd4RzMzihd0PocwXPFQ9eZpauDMnMNuR6I3TFSYyDsa1YEc9rn3YR19Oy9ZruO5EH/OGxMogQDK4amD8ZI60JbdrqO030V3ENq/FAV0Ys5FlB/U0ffVDOCFfb12EQXPe34C6Ks7dbyBx/iwjv5yZ+ZoOyZYd1GkT7wK2OLIidUY/viuIfxSPZoJRbkZZkB8jx3D/jA9eUJrjJ4/PA+pecoZZf5nxpOFWZwHBkODkuXOStP28SYU+sSrAAiKhgPhpTwBQhhKSSpXHC4sT5GZob1DR9pX+kIODdl1PQgJ0tHpPGgSM/r9K5iYoe0kSfSlWnAfrwIgKB5sFNDhw+joAWcGjGCefDxYLQ5fGdmBODDZHVeisporlzHyrPNZieBV6QPPKMpUvQpgFQiw7hQByGDFrs7oabojszL3wPRtppdgZ4iu2UQYsSdGYuNhViKMweUFBZREwECOgA4VgOCuhptGm+yNkLedYBoUV7Z1N66DVA9VV74oI3UIgAB9qTLi1XFvaKE5qrYMlPs6fOAutfWvbo9NWR2B5SlbLSV0+Js7K3LGsf8e9Qx4gJUuSmFGiCV0pO09BW7QqwDsBUjjxnBrIx36IYqYX9haPmTD7X5y061ftTvuqkSDZTmAMvVWx+gXikop60DO3rAkDppaS++5eBXAT3FdeA5uUoIG1owQBJFmE3+ZHKTgd4VTfxATCmAWqF6GCdeIUIugWIpH2VGUCEgbBeC7t+jVLDBCk+vpzRrayoQp7Qb+7Zb5FCqg29TvQjmrWvzNpbqp+60Xgbz/PJaoAlJ5uNoovPik8FSsPugJDVBIcliQ8KymqEVz7GtJqFCzluCXF2qm7fQhbuNP2y6WxvaPaGLz49M1A6nHN4ZmtTh1fUwEjrDzB//99cNmrZBkC+8o4KxA61M68k+N1U3k993dFXlseAUKQBIzNZXJr9QMXnJVGsKCHRrz3tVnc3qUgS9vfSmi6xasKqd55AcLL1Mk9jsLnyi6UHekfae08+yjDEb+c1siE5m2C8M7UkC+sIGXJpjbZ4aHJem4x0vaEjI47KjqXmOxmy2Bk4FFQWOWKQyChfeA7PtB1uU23iHKbnrzxBxP7eKGK7XURJgTtczMQvGiRM0NBmRN3EI4TY3yoaotoXWCzI5fmVlQSGZnaS+7Nzd8GxGYeZVG8lUkjbdFwqDpmNh/WRa4N0SyRW+L8ImyQBVKBW3MKbB+iRyffSLV4Yp9VSYu+XJVaQXcrAxrh/lLVPnGyDBCjBahKGbT2DLDLfk+D8+nsGM3cWq2/EUq7f1AZF/DwaSa3xnKkbWSZfwrUsD/gqyldZCrIu97BfwHAyVbFo7YAKoAAAAASUVORK5CYII=;" parent="1" vertex="1">
          <mxGeometry x="676.71" y="2243.5" width="37.68" height="36.5" as="geometry" />
        </mxCell>
        <mxCell id="MKCzWIRwI4Zgw65z_sEB-217" value="&lt;p class=&quot;MsoNormal&quot;&gt;&lt;span style=&quot;mso-spacerun:&#39;yes&#39;;font-family:&#39;Segoe UI&#39;;color:rgb(0,0,0);&#xa;letter-spacing:0.0000pt;text-transform:none;font-style:normal;&#xa;font-size:10.5000pt;background:rgb(247,247,247);mso-shading:rgb(247,247,247);&quot;&gt;&lt;font face=&quot;Segoe UI&quot;&gt;数据分析和报告&lt;/font&gt;&lt;/span&gt;&lt;/p&gt;" style="text;whiteSpace=wrap;html=1;fontSize=15;" parent="1" vertex="1">
          <mxGeometry x="660" y="2270" width="166" height="40" as="geometry" />
        </mxCell>
        <mxCell id="MKCzWIRwI4Zgw65z_sEB-219" value="&lt;p class=&quot;MsoNormal&quot;&gt;预订管理&lt;/p&gt;" style="text;whiteSpace=wrap;html=1;fontSize=15;" parent="1" vertex="1">
          <mxGeometry x="449.5" y="2179.58" width="90" height="40" as="geometry" />
        </mxCell>
        <mxCell id="MKCzWIRwI4Zgw65z_sEB-221" value="&lt;p class=&quot;MsoNormal&quot;&gt;&lt;font face=&quot;Segoe UI&quot;&gt;用户管理&lt;/font&gt;&lt;/p&gt;" style="text;whiteSpace=wrap;html=1;fontSize=15;" parent="1" vertex="1">
          <mxGeometry x="567.68" y="2179.58" width="90" height="25.5" as="geometry" />
        </mxCell>
        <mxCell id="MKCzWIRwI4Zgw65z_sEB-223" value="&lt;p class=&quot;MsoNormal&quot;&gt;&lt;font face=&quot;Segoe UI&quot;&gt;行程规划&lt;/font&gt;&lt;/p&gt;" style="text;whiteSpace=wrap;html=1;fontSize=15;" parent="1" vertex="1">
          <mxGeometry x="664" y="2179.58" width="120" height="40" as="geometry" />
        </mxCell>
        <mxCell id="MKCzWIRwI4Zgw65z_sEB-224" value="" style="shape=image;aspect=fixed;image=data:image/png,iVBORw0KGgoAAAANSUhEUgAAAEAAAAA+CAYAAACbQR1vAAAMiUlEQVRoge2b228cVx3Hf3NZx/d17CRNc2vSJE1T2lLatNAWSAUUhBASIPGAhMRFvIF4QIK/gncekOAFkHgBXkBcSgWF0gstTa9UuTb31LETx/El9u7M8Pucc8a7WZ9Z79gptik/ebw7Mzsz5/zO9/f9Xc6ZIFOR97GEq92A1Zb/K2C1G7DaEr8XN02VVuZTkZqyS5Kxb4/pIbsvjeOBfg8Dt+n3KAjMJ/uRO96lB7r0eBDc+raWUoCly8w0nu1aXWS8lsqk9vR6InK9rp/1xueM/qimF9WcMurus5Zmdt8poKK9jPVLhS20n7H73qXn+lUTQxU2kaHYft+oW1X3+yJ7ba5AtFRGT0GnXqCuP5usiVy4kcrbU6m8NZ3KmZnMdNIoROyIJu5ueQc2mC1wn4u/g4Y5vXAuFbe574n9DpLmHVpyVEROQd16YFNXIHv7AtnXG8odPaEM6/5gbJF0SxTA2Wnt1XNXE/nD5br8WzvPrYcVl1u6RDZ35aMTmNGpNo1UbxwskAzX0KagZT9/eua2/Jn5fmqQlsm4amG8Zj/HdLui26SibFLPcf6anotVIXf3h/LkpkgerEYyUuEZ7RXRVgGcuao3/tn5mjw9nsht2tlDQ5EcUI1v1SG8bUMgA7EUQC7I/1Ykjdbd3EwQN6v/6DiKGZ3L5Jii8h86ULT5EW3nN3ZWZGd32JY72ioACP76Yl1+eq4mh4dj+cr2WDseGOi9F4S0XDFo0W6odcoxRegvLtTl5WuJfHFrLF/fUZG+uLixhW4Q1j6lNv670brc3RfKt3bFsrsnkJ5obXUesZ5ETU7bdt9gKN/fW5GPDkfyF0Xtm6qQtI2VFyoAMnthIpFJ/fKl22MZ6QqWtKe1IChiRHmI0YeEnx6rGyIt/H3RCZj4zeupbFcb2q8I6JRV14IwUHvVK+xRr/CWIuDd+WUg4JKSynk1qp3d1tWsNyE+2KsDN6NEeXK6GAKFCjgxkxro7NObEIysNwGwxAYEXydniFX8KPAqAN8LAfJ5Z+/6TRf29dmg66wieTrx/8bbuxspwUaqgYUYX79eZdAFZoTls0kJBMyauN7a0WAbH7rWBcslZ5iu2xjB+xvfQeJ7Eprhio2715JkLrMkAXtBo7531V0VuXmaTlg+Q35RxgRQwJQqYJPG+2uJAego5vmGuucfna7JD0/Oy4sTaTHBBWJylBmXWPnEmw5jAlO6beqyN1ltyVwtAWL+q0Z3v9ek7OKc7dCrk4l8SpMfX0cYPJIyBrTIBLwKmKqLQcBmELCKCshMep3JZQ1kCGv/NJbICfXpzXHN8WnrrnuixdfnHMB5+uMTrwLGaqlJMAwCbkVPliHY+ZWayItq57/VfIQaxIxnFCnKELTB9q1CaQQFcOZKrYQCrtZsIIEHaK6v2Dw9W0hMA/eQTqJkV0xadH3ouZiK0cvXUtPxFzUfwSMVBbO4t1OqmQP9i4eKW/dFlsi5h0+8CoBoiP2jljocTT9/I5Mzs6lJlkiL9+uDN3q0v0gclMnZE1cK266x+p29i68FuhRaqrF1w3mVyCcEOEdVAZ/W+7cqM1dwRbdSHAAJhpItsn+Lhkx+crZutE7p6du7u+TJzUuXFhnBP6oN//xczXSGQueXt8Wyq7tiKjnNguL39Ip8Z3dFPj8byTNXEnnuamrsvRXJmPbZGVuDpEbYKpErzd0oEwjNGQR4qjnOrRzoD0RBIKPzYlxS0c2bBa/yisJ6gqgsFVPOen0yNdUbb8OCwNQM79Jc5Gs7VBG3RZrv23NxcHPDR5XlxgoyvryqXIQgfyic2FFoVQD72NShamQ+eeRrqoDcJbWTo0piJ5qyMq7AnNqlqqaGGASm8UenMgN32nB4OJJHN4YLJE05jPv4ilsGAcYESiAAezEI8Jh2aOAZyo5ueymmcHKmfdVlXh9OXj7a0lk4wcC6oHEInTqtkMHfA/eNCvPPbI7kB3u75Ht7uuSzWyJTCeI3PjABGmMCZTgASNO9Imrb3h3IwYFAjs+Iqfm/oPb52MbI64sRYP6Ssjnty2v+s64M/roi6BMjtpE+QWfP6/3PKVpozz39kRxU4t2kaR5E+SFF4zm9GcqsOW5pFmMCQUkOyBFQFANQH3hg0JoBiv3ntcT4WR8EQQZQp5yObNHskhpDLsemmVTJvPE89wPef79SN6Pbr8P1uMJ/2PUS84CTPjAQmRpgr2cAFkiwDAcwMuESU1H3D4SyzZkBidPLE6nXVwPbZ5XFaQC329tra/f5gy/qCfjBd3ViRj9ReNtzu/R5jwwtjk6DwM4u+WqWPAfUlSLBKLDab0dt+H6UwG9JNghYfMVH2P5VZXsUwcBBoPcNNGIHFGMrt4uvhTNwgTSen1viKxebm8kVKc5qvQrojuzEQ7s5Izrz8FDDG1BCgxCbr+H7ETWPi079dBqbvVcVsHmD/Q2jDAKmWiI1cgBcLPfllhRmPqI800nMddN9RMzAdBfYs18BoS2LtUMAJsI8wR5XMsPO32qBMhOjuMmJmoX//YN2NokS+0ElM4M0PQ7BHW8J9K/pNczy5Nc+rNC3szzlNEA/allpBQRmZJby7oaFlQwjsQ95RaFOw3NBKW9cTwwEQQzTVRBVbOAcmXodgpc42YQeiJORx3Q4RGHmUb12YBmT+fTDIKDABopNwM3IthO8wT3kAs4uX1dfzeyxyd/phPr4nMB29tioLrTpkyHDbRsaPEA8MOVcFRbzN7X9PLrjunuV6ZczMZO66fjSCEiXIEGE9hxUe97VbRsGXI84wqNTEOOsi94O9BE8BS66E5PoPDTU8FtvqwJGXUSJMpiV4j6aL8nHRyJvnN+JGA7IyiIg5MJgSQUg1djaNuSEGRATkJgwfX3EQRjoEjd0N/kvTAEvko/MRcLiOWp3mXF9uTK2qdIwnXLLHhqSpDZYK4eAyLJwu/A2F+z5Y8Pxgjd4RzMzihd0PocwXPFQ9eZpauDMnMNuR6I3TFSYyDsa1YEc9rn3YR19Oy9ZruO5EH/OGxMogQDK4amD8ZI60JbdrqO030V3ENq/FAV0Ys5FlB/U0ffVDOCFfb12EQXPe34C6Ks7dbyBx/iwjv5yZ+ZoOyZYd1GkT7wK2OLIidUY/viuIfxSPZoJRbkZZkB8jx3D/jA9eUJrjJ4/PA+pecoZZf5nxpOFWZwHBkODkuXOStP28SYU+sSrAAiKhgPhpTwBQhhKSSpXHC4sT5GZob1DR9pX+kIODdl1PQgJ0tHpPGgSM/r9K5iYoe0kSfSlWnAfrwIgKB5sFNDhw+joAWcGjGCefDxYLQ5fGdmBODDZHVeisporlzHyrPNZieBV6QPPKMpUvQpgFQiw7hQByGDFrs7oabojszL3wPRtppdgZ4iu2UQYsSdGYuNhViKMweUFBZREwECOgA4VgOCuhptGm+yNkLedYBoUV7Z1N66DVA9VV74oI3UIgAB9qTLi1XFvaKE5qrYMlPs6fOAutfWvbo9NWR2B5SlbLSV0+Js7K3LGsf8e9Qx4gJUuSmFGiCV0pO09BW7QqwDsBUjjxnBrIx36IYqYX9haPmTD7X5y061ftTvuqkSDZTmAMvVWx+gXikop60DO3rAkDppaS++5eBXAT3FdeA5uUoIG1owQBJFmE3+ZHKTgd4VTfxATCmAWqF6GCdeIUIugWIpH2VGUCEgbBeC7t+jVLDBCk+vpzRrayoQp7Qb+7Zb5FCqg29TvQjmrWvzNpbqp+60Xgbz/PJaoAlJ5uNoovPik8FSsPugJDVBIcliQ8KymqEVz7GtJqFCzluCXF2qm7fQhbuNP2y6WxvaPaGLz49M1A6nHN4ZmtTh1fUwEjrDzB//99cNmrZBkC+8o4KxA61M68k+N1U3k993dFXlseAUKQBIzNZXJr9QMXnJVGsKCHRrz3tVnc3qUgS9vfSmi6xasKqd55AcLL1Mk9jsLnyi6UHekfae08+yjDEb+c1siE5m2C8M7UkC+sIGXJpjbZ4aHJem4x0vaEjI47KjqXmOxmy2Bk4FFQWOWKQyChfeA7PtB1uU23iHKbnrzxBxP7eKGK7XURJgTtczMQvGiRM0NBmRN3EI4TY3yoaotoXWCzI5fmVlQSGZnaS+7Nzd8GxGYeZVG8lUkjbdFwqDpmNh/WRa4N0SyRW+L8ImyQBVKBW3MKbB+iRyffSLV4Yp9VSYu+XJVaQXcrAxrh/lLVPnGyDBCjBahKGbT2DLDLfk+D8+nsGM3cWq2/EUq7f1AZF/DwaSa3xnKkbWSZfwrUsD/gqyldZCrIu97BfwHAyVbFo7YAKoAAAAASUVORK5CYII=;" parent="1" vertex="1">
          <mxGeometry x="567" y="2249.58" width="37.68" height="36.5" as="geometry" />
        </mxCell>
        <mxCell id="MKCzWIRwI4Zgw65z_sEB-225" value="" style="shape=image;aspect=fixed;image=data:image/png,iVBORw0KGgoAAAANSUhEUgAAAEAAAAA+CAYAAACbQR1vAAAMiUlEQVRoge2b228cVx3Hf3NZx/d17CRNc2vSJE1T2lLatNAWSAUUhBASIPGAhMRFvIF4QIK/gncekOAFkHgBXkBcSgWF0gstTa9UuTb31LETx/El9u7M8Pucc8a7WZ9Z79gptik/ebw7Mzsz5/zO9/f9Xc6ZIFOR97GEq92A1Zb/K2C1G7DaEr8XN02VVuZTkZqyS5Kxb4/pIbsvjeOBfg8Dt+n3KAjMJ/uRO96lB7r0eBDc+raWUoCly8w0nu1aXWS8lsqk9vR6InK9rp/1xueM/qimF9WcMurus5Zmdt8poKK9jPVLhS20n7H73qXn+lUTQxU2kaHYft+oW1X3+yJ7ba5AtFRGT0GnXqCuP5usiVy4kcrbU6m8NZ3KmZnMdNIoROyIJu5ueQc2mC1wn4u/g4Y5vXAuFbe574n9DpLmHVpyVEROQd16YFNXIHv7AtnXG8odPaEM6/5gbJF0SxTA2Wnt1XNXE/nD5br8WzvPrYcVl1u6RDZ35aMTmNGpNo1UbxwskAzX0KagZT9/eua2/Jn5fmqQlsm4amG8Zj/HdLui26SibFLPcf6anotVIXf3h/LkpkgerEYyUuEZ7RXRVgGcuao3/tn5mjw9nsht2tlDQ5EcUI1v1SG8bUMgA7EUQC7I/1Ykjdbd3EwQN6v/6DiKGZ3L5Jii8h86ULT5EW3nN3ZWZGd32JY72ioACP76Yl1+eq4mh4dj+cr2WDseGOi9F4S0XDFo0W6odcoxRegvLtTl5WuJfHFrLF/fUZG+uLixhW4Q1j6lNv670brc3RfKt3bFsrsnkJ5obXUesZ5ETU7bdt9gKN/fW5GPDkfyF0Xtm6qQtI2VFyoAMnthIpFJ/fKl22MZ6QqWtKe1IChiRHmI0YeEnx6rGyIt/H3RCZj4zeupbFcb2q8I6JRV14IwUHvVK+xRr/CWIuDd+WUg4JKSynk1qp3d1tWsNyE+2KsDN6NEeXK6GAKFCjgxkxro7NObEIysNwGwxAYEXydniFX8KPAqAN8LAfJ5Z+/6TRf29dmg66wieTrx/8bbuxspwUaqgYUYX79eZdAFZoTls0kJBMyauN7a0WAbH7rWBcslZ5iu2xjB+xvfQeJ7Eprhio2715JkLrMkAXtBo7531V0VuXmaTlg+Q35RxgRQwJQqYJPG+2uJAego5vmGuucfna7JD0/Oy4sTaTHBBWJylBmXWPnEmw5jAlO6beqyN1ltyVwtAWL+q0Z3v9ek7OKc7dCrk4l8SpMfX0cYPJIyBrTIBLwKmKqLQcBmELCKCshMep3JZQ1kCGv/NJbICfXpzXHN8WnrrnuixdfnHMB5+uMTrwLGaqlJMAwCbkVPliHY+ZWayItq57/VfIQaxIxnFCnKELTB9q1CaQQFcOZKrYQCrtZsIIEHaK6v2Dw9W0hMA/eQTqJkV0xadH3ouZiK0cvXUtPxFzUfwSMVBbO4t1OqmQP9i4eKW/dFlsi5h0+8CoBoiP2jljocTT9/I5Mzs6lJlkiL9+uDN3q0v0gclMnZE1cK266x+p29i68FuhRaqrF1w3mVyCcEOEdVAZ/W+7cqM1dwRbdSHAAJhpItsn+Lhkx+crZutE7p6du7u+TJzUuXFhnBP6oN//xczXSGQueXt8Wyq7tiKjnNguL39Ip8Z3dFPj8byTNXEnnuamrsvRXJmPbZGVuDpEbYKpErzd0oEwjNGQR4qjnOrRzoD0RBIKPzYlxS0c2bBa/yisJ6gqgsFVPOen0yNdUbb8OCwNQM79Jc5Gs7VBG3RZrv23NxcHPDR5XlxgoyvryqXIQgfyic2FFoVQD72NShamQ+eeRrqoDcJbWTo0piJ5qyMq7AnNqlqqaGGASm8UenMgN32nB4OJJHN4YLJE05jPv4ilsGAcYESiAAezEI8Jh2aOAZyo5ueymmcHKmfdVlXh9OXj7a0lk4wcC6oHEInTqtkMHfA/eNCvPPbI7kB3u75Ht7uuSzWyJTCeI3PjABGmMCZTgASNO9Imrb3h3IwYFAjs+Iqfm/oPb52MbI64sRYP6Ssjnty2v+s64M/roi6BMjtpE+QWfP6/3PKVpozz39kRxU4t2kaR5E+SFF4zm9GcqsOW5pFmMCQUkOyBFQFANQH3hg0JoBiv3ntcT4WR8EQQZQp5yObNHskhpDLsemmVTJvPE89wPef79SN6Pbr8P1uMJ/2PUS84CTPjAQmRpgr2cAFkiwDAcwMuESU1H3D4SyzZkBidPLE6nXVwPbZ5XFaQC329tra/f5gy/qCfjBd3ViRj9ReNtzu/R5jwwtjk6DwM4u+WqWPAfUlSLBKLDab0dt+H6UwG9JNghYfMVH2P5VZXsUwcBBoPcNNGIHFGMrt4uvhTNwgTSen1viKxebm8kVKc5qvQrojuzEQ7s5Izrz8FDDG1BCgxCbr+H7ETWPi079dBqbvVcVsHmD/Q2jDAKmWiI1cgBcLPfllhRmPqI800nMddN9RMzAdBfYs18BoS2LtUMAJsI8wR5XMsPO32qBMhOjuMmJmoX//YN2NokS+0ElM4M0PQ7BHW8J9K/pNczy5Nc+rNC3szzlNEA/allpBQRmZJby7oaFlQwjsQ95RaFOw3NBKW9cTwwEQQzTVRBVbOAcmXodgpc42YQeiJORx3Q4RGHmUb12YBmT+fTDIKDABopNwM3IthO8wT3kAs4uX1dfzeyxyd/phPr4nMB29tioLrTpkyHDbRsaPEA8MOVcFRbzN7X9PLrjunuV6ZczMZO66fjSCEiXIEGE9hxUe97VbRsGXI84wqNTEOOsi94O9BE8BS66E5PoPDTU8FtvqwJGXUSJMpiV4j6aL8nHRyJvnN+JGA7IyiIg5MJgSQUg1djaNuSEGRATkJgwfX3EQRjoEjd0N/kvTAEvko/MRcLiOWp3mXF9uTK2qdIwnXLLHhqSpDZYK4eAyLJwu/A2F+z5Y8Pxgjd4RzMzihd0PocwXPFQ9eZpauDMnMNuR6I3TFSYyDsa1YEc9rn3YR19Oy9ZruO5EH/OGxMogQDK4amD8ZI60JbdrqO030V3ENq/FAV0Ys5FlB/U0ffVDOCFfb12EQXPe34C6Ks7dbyBx/iwjv5yZ+ZoOyZYd1GkT7wK2OLIidUY/viuIfxSPZoJRbkZZkB8jx3D/jA9eUJrjJ4/PA+pecoZZf5nxpOFWZwHBkODkuXOStP28SYU+sSrAAiKhgPhpTwBQhhKSSpXHC4sT5GZob1DR9pX+kIODdl1PQgJ0tHpPGgSM/r9K5iYoe0kSfSlWnAfrwIgKB5sFNDhw+joAWcGjGCefDxYLQ5fGdmBODDZHVeisporlzHyrPNZieBV6QPPKMpUvQpgFQiw7hQByGDFrs7oabojszL3wPRtppdgZ4iu2UQYsSdGYuNhViKMweUFBZREwECOgA4VgOCuhptGm+yNkLedYBoUV7Z1N66DVA9VV74oI3UIgAB9qTLi1XFvaKE5qrYMlPs6fOAutfWvbo9NWR2B5SlbLSV0+Js7K3LGsf8e9Qx4gJUuSmFGiCV0pO09BW7QqwDsBUjjxnBrIx36IYqYX9haPmTD7X5y061ftTvuqkSDZTmAMvVWx+gXikop60DO3rAkDppaS++5eBXAT3FdeA5uUoIG1owQBJFmE3+ZHKTgd4VTfxATCmAWqF6GCdeIUIugWIpH2VGUCEgbBeC7t+jVLDBCk+vpzRrayoQp7Qb+7Zb5FCqg29TvQjmrWvzNpbqp+60Xgbz/PJaoAlJ5uNoovPik8FSsPugJDVBIcliQ8KymqEVz7GtJqFCzluCXF2qm7fQhbuNP2y6WxvaPaGLz49M1A6nHN4ZmtTh1fUwEjrDzB//99cNmrZBkC+8o4KxA61M68k+N1U3k993dFXlseAUKQBIzNZXJr9QMXnJVGsKCHRrz3tVnc3qUgS9vfSmi6xasKqd55AcLL1Mk9jsLnyi6UHekfae08+yjDEb+c1siE5m2C8M7UkC+sIGXJpjbZ4aHJem4x0vaEjI47KjqXmOxmy2Bk4FFQWOWKQyChfeA7PtB1uU23iHKbnrzxBxP7eKGK7XURJgTtczMQvGiRM0NBmRN3EI4TY3yoaotoXWCzI5fmVlQSGZnaS+7Nzd8GxGYeZVG8lUkjbdFwqDpmNh/WRa4N0SyRW+L8ImyQBVKBW3MKbB+iRyffSLV4Yp9VSYu+XJVaQXcrAxrh/lLVPnGyDBCjBahKGbT2DLDLfk+D8+nsGM3cWq2/EUq7f1AZF/DwaSa3xnKkbWSZfwrUsD/gqyldZCrIu97BfwHAyVbFo7YAKoAAAAASUVORK5CYII=;" parent="1" vertex="1">
          <mxGeometry x="462" y="2243.5" width="37.68" height="36.5" as="geometry" />
        </mxCell>
        <mxCell id="MKCzWIRwI4Zgw65z_sEB-226" value="" style="shape=image;aspect=fixed;image=data:image/png,iVBORw0KGgoAAAANSUhEUgAAAEAAAAA+CAYAAACbQR1vAAAMiUlEQVRoge2b228cVx3Hf3NZx/d17CRNc2vSJE1T2lLatNAWSAUUhBASIPGAhMRFvIF4QIK/gncekOAFkHgBXkBcSgWF0gstTa9UuTb31LETx/El9u7M8Pucc8a7WZ9Z79gptik/ebw7Mzsz5/zO9/f9Xc6ZIFOR97GEq92A1Zb/K2C1G7DaEr8XN02VVuZTkZqyS5Kxb4/pIbsvjeOBfg8Dt+n3KAjMJ/uRO96lB7r0eBDc+raWUoCly8w0nu1aXWS8lsqk9vR6InK9rp/1xueM/qimF9WcMurus5Zmdt8poKK9jPVLhS20n7H73qXn+lUTQxU2kaHYft+oW1X3+yJ7ba5AtFRGT0GnXqCuP5usiVy4kcrbU6m8NZ3KmZnMdNIoROyIJu5ueQc2mC1wn4u/g4Y5vXAuFbe574n9DpLmHVpyVEROQd16YFNXIHv7AtnXG8odPaEM6/5gbJF0SxTA2Wnt1XNXE/nD5br8WzvPrYcVl1u6RDZ35aMTmNGpNo1UbxwskAzX0KagZT9/eua2/Jn5fmqQlsm4amG8Zj/HdLui26SibFLPcf6anotVIXf3h/LkpkgerEYyUuEZ7RXRVgGcuao3/tn5mjw9nsht2tlDQ5EcUI1v1SG8bUMgA7EUQC7I/1Ykjdbd3EwQN6v/6DiKGZ3L5Jii8h86ULT5EW3nN3ZWZGd32JY72ioACP76Yl1+eq4mh4dj+cr2WDseGOi9F4S0XDFo0W6odcoxRegvLtTl5WuJfHFrLF/fUZG+uLixhW4Q1j6lNv670brc3RfKt3bFsrsnkJ5obXUesZ5ETU7bdt9gKN/fW5GPDkfyF0Xtm6qQtI2VFyoAMnthIpFJ/fKl22MZ6QqWtKe1IChiRHmI0YeEnx6rGyIt/H3RCZj4zeupbFcb2q8I6JRV14IwUHvVK+xRr/CWIuDd+WUg4JKSynk1qp3d1tWsNyE+2KsDN6NEeXK6GAKFCjgxkxro7NObEIysNwGwxAYEXydniFX8KPAqAN8LAfJ5Z+/6TRf29dmg66wieTrx/8bbuxspwUaqgYUYX79eZdAFZoTls0kJBMyauN7a0WAbH7rWBcslZ5iu2xjB+xvfQeJ7Eprhio2715JkLrMkAXtBo7531V0VuXmaTlg+Q35RxgRQwJQqYJPG+2uJAego5vmGuucfna7JD0/Oy4sTaTHBBWJylBmXWPnEmw5jAlO6beqyN1ltyVwtAWL+q0Z3v9ek7OKc7dCrk4l8SpMfX0cYPJIyBrTIBLwKmKqLQcBmELCKCshMep3JZQ1kCGv/NJbICfXpzXHN8WnrrnuixdfnHMB5+uMTrwLGaqlJMAwCbkVPliHY+ZWayItq57/VfIQaxIxnFCnKELTB9q1CaQQFcOZKrYQCrtZsIIEHaK6v2Dw9W0hMA/eQTqJkV0xadH3ouZiK0cvXUtPxFzUfwSMVBbO4t1OqmQP9i4eKW/dFlsi5h0+8CoBoiP2jljocTT9/I5Mzs6lJlkiL9+uDN3q0v0gclMnZE1cK266x+p29i68FuhRaqrF1w3mVyCcEOEdVAZ/W+7cqM1dwRbdSHAAJhpItsn+Lhkx+crZutE7p6du7u+TJzUuXFhnBP6oN//xczXSGQueXt8Wyq7tiKjnNguL39Ip8Z3dFPj8byTNXEnnuamrsvRXJmPbZGVuDpEbYKpErzd0oEwjNGQR4qjnOrRzoD0RBIKPzYlxS0c2bBa/yisJ6gqgsFVPOen0yNdUbb8OCwNQM79Jc5Gs7VBG3RZrv23NxcHPDR5XlxgoyvryqXIQgfyic2FFoVQD72NShamQ+eeRrqoDcJbWTo0piJ5qyMq7AnNqlqqaGGASm8UenMgN32nB4OJJHN4YLJE05jPv4ilsGAcYESiAAezEI8Jh2aOAZyo5ueymmcHKmfdVlXh9OXj7a0lk4wcC6oHEInTqtkMHfA/eNCvPPbI7kB3u75Ht7uuSzWyJTCeI3PjABGmMCZTgASNO9Imrb3h3IwYFAjs+Iqfm/oPb52MbI64sRYP6Ssjnty2v+s64M/roi6BMjtpE+QWfP6/3PKVpozz39kRxU4t2kaR5E+SFF4zm9GcqsOW5pFmMCQUkOyBFQFANQH3hg0JoBiv3ntcT4WR8EQQZQp5yObNHskhpDLsemmVTJvPE89wPef79SN6Pbr8P1uMJ/2PUS84CTPjAQmRpgr2cAFkiwDAcwMuESU1H3D4SyzZkBidPLE6nXVwPbZ5XFaQC329tra/f5gy/qCfjBd3ViRj9ReNtzu/R5jwwtjk6DwM4u+WqWPAfUlSLBKLDab0dt+H6UwG9JNghYfMVH2P5VZXsUwcBBoPcNNGIHFGMrt4uvhTNwgTSen1viKxebm8kVKc5qvQrojuzEQ7s5Izrz8FDDG1BCgxCbr+H7ETWPi079dBqbvVcVsHmD/Q2jDAKmWiI1cgBcLPfllhRmPqI800nMddN9RMzAdBfYs18BoS2LtUMAJsI8wR5XMsPO32qBMhOjuMmJmoX//YN2NokS+0ElM4M0PQ7BHW8J9K/pNczy5Nc+rNC3szzlNEA/allpBQRmZJby7oaFlQwjsQ95RaFOw3NBKW9cTwwEQQzTVRBVbOAcmXodgpc42YQeiJORx3Q4RGHmUb12YBmT+fTDIKDABopNwM3IthO8wT3kAs4uX1dfzeyxyd/phPr4nMB29tioLrTpkyHDbRsaPEA8MOVcFRbzN7X9PLrjunuV6ZczMZO66fjSCEiXIEGE9hxUe97VbRsGXI84wqNTEOOsi94O9BE8BS66E5PoPDTU8FtvqwJGXUSJMpiV4j6aL8nHRyJvnN+JGA7IyiIg5MJgSQUg1djaNuSEGRATkJgwfX3EQRjoEjd0N/kvTAEvko/MRcLiOWp3mXF9uTK2qdIwnXLLHhqSpDZYK4eAyLJwu/A2F+z5Y8Pxgjd4RzMzihd0PocwXPFQ9eZpauDMnMNuR6I3TFSYyDsa1YEc9rn3YR19Oy9ZruO5EH/OGxMogQDK4amD8ZI60JbdrqO030V3ENq/FAV0Ys5FlB/U0ffVDOCFfb12EQXPe34C6Ks7dbyBx/iwjv5yZ+ZoOyZYd1GkT7wK2OLIidUY/viuIfxSPZoJRbkZZkB8jx3D/jA9eUJrjJ4/PA+pecoZZf5nxpOFWZwHBkODkuXOStP28SYU+sSrAAiKhgPhpTwBQhhKSSpXHC4sT5GZob1DR9pX+kIODdl1PQgJ0tHpPGgSM/r9K5iYoe0kSfSlWnAfrwIgKB5sFNDhw+joAWcGjGCefDxYLQ5fGdmBODDZHVeisporlzHyrPNZieBV6QPPKMpUvQpgFQiw7hQByGDFrs7oabojszL3wPRtppdgZ4iu2UQYsSdGYuNhViKMweUFBZREwECOgA4VgOCuhptGm+yNkLedYBoUV7Z1N66DVA9VV74oI3UIgAB9qTLi1XFvaKE5qrYMlPs6fOAutfWvbo9NWR2B5SlbLSV0+Js7K3LGsf8e9Qx4gJUuSmFGiCV0pO09BW7QqwDsBUjjxnBrIx36IYqYX9haPmTD7X5y061ftTvuqkSDZTmAMvVWx+gXikop60DO3rAkDppaS++5eBXAT3FdeA5uUoIG1owQBJFmE3+ZHKTgd4VTfxATCmAWqF6GCdeIUIugWIpH2VGUCEgbBeC7t+jVLDBCk+vpzRrayoQp7Qb+7Zb5FCqg29TvQjmrWvzNpbqp+60Xgbz/PJaoAlJ5uNoovPik8FSsPugJDVBIcliQ8KymqEVz7GtJqFCzluCXF2qm7fQhbuNP2y6WxvaPaGLz49M1A6nHN4ZmtTh1fUwEjrDzB//99cNmrZBkC+8o4KxA61M68k+N1U3k993dFXlseAUKQBIzNZXJr9QMXnJVGsKCHRrz3tVnc3qUgS9vfSmi6xasKqd55AcLL1Mk9jsLnyi6UHekfae08+yjDEb+c1siE5m2C8M7UkC+sIGXJpjbZ4aHJem4x0vaEjI47KjqXmOxmy2Bk4FFQWOWKQyChfeA7PtB1uU23iHKbnrzxBxP7eKGK7XURJgTtczMQvGiRM0NBmRN3EI4TY3yoaotoXWCzI5fmVlQSGZnaS+7Nzd8GxGYeZVG8lUkjbdFwqDpmNh/WRa4N0SyRW+L8ImyQBVKBW3MKbB+iRyffSLV4Yp9VSYu+XJVaQXcrAxrh/lLVPnGyDBCjBahKGbT2DLDLfk+D8+nsGM3cWq2/EUq7f1AZF/DwaSa3xnKkbWSZfwrUsD/gqyldZCrIu97BfwHAyVbFo7YAKoAAAAASUVORK5CYII=;" parent="1" vertex="1">
          <mxGeometry x="462" y="2163.5" width="37.68" height="36.5" as="geometry" />
        </mxCell>
        <mxCell id="MKCzWIRwI4Zgw65z_sEB-227" value="" style="shape=image;aspect=fixed;image=data:image/png,iVBORw0KGgoAAAANSUhEUgAAAEAAAAA+CAYAAACbQR1vAAAMiUlEQVRoge2b228cVx3Hf3NZx/d17CRNc2vSJE1T2lLatNAWSAUUhBASIPGAhMRFvIF4QIK/gncekOAFkHgBXkBcSgWF0gstTa9UuTb31LETx/El9u7M8Pucc8a7WZ9Z79gptik/ebw7Mzsz5/zO9/f9Xc6ZIFOR97GEq92A1Zb/K2C1G7DaEr8XN02VVuZTkZqyS5Kxb4/pIbsvjeOBfg8Dt+n3KAjMJ/uRO96lB7r0eBDc+raWUoCly8w0nu1aXWS8lsqk9vR6InK9rp/1xueM/qimF9WcMurus5Zmdt8poKK9jPVLhS20n7H73qXn+lUTQxU2kaHYft+oW1X3+yJ7ba5AtFRGT0GnXqCuP5usiVy4kcrbU6m8NZ3KmZnMdNIoROyIJu5ueQc2mC1wn4u/g4Y5vXAuFbe574n9DpLmHVpyVEROQd16YFNXIHv7AtnXG8odPaEM6/5gbJF0SxTA2Wnt1XNXE/nD5br8WzvPrYcVl1u6RDZ35aMTmNGpNo1UbxwskAzX0KagZT9/eua2/Jn5fmqQlsm4amG8Zj/HdLui26SibFLPcf6anotVIXf3h/LkpkgerEYyUuEZ7RXRVgGcuao3/tn5mjw9nsht2tlDQ5EcUI1v1SG8bUMgA7EUQC7I/1Ykjdbd3EwQN6v/6DiKGZ3L5Jii8h86ULT5EW3nN3ZWZGd32JY72ioACP76Yl1+eq4mh4dj+cr2WDseGOi9F4S0XDFo0W6odcoxRegvLtTl5WuJfHFrLF/fUZG+uLixhW4Q1j6lNv670brc3RfKt3bFsrsnkJ5obXUesZ5ETU7bdt9gKN/fW5GPDkfyF0Xtm6qQtI2VFyoAMnthIpFJ/fKl22MZ6QqWtKe1IChiRHmI0YeEnx6rGyIt/H3RCZj4zeupbFcb2q8I6JRV14IwUHvVK+xRr/CWIuDd+WUg4JKSynk1qp3d1tWsNyE+2KsDN6NEeXK6GAKFCjgxkxro7NObEIysNwGwxAYEXydniFX8KPAqAN8LAfJ5Z+/6TRf29dmg66wieTrx/8bbuxspwUaqgYUYX79eZdAFZoTls0kJBMyauN7a0WAbH7rWBcslZ5iu2xjB+xvfQeJ7Eprhio2715JkLrMkAXtBo7531V0VuXmaTlg+Q35RxgRQwJQqYJPG+2uJAego5vmGuucfna7JD0/Oy4sTaTHBBWJylBmXWPnEmw5jAlO6beqyN1ltyVwtAWL+q0Z3v9ek7OKc7dCrk4l8SpMfX0cYPJIyBrTIBLwKmKqLQcBmELCKCshMep3JZQ1kCGv/NJbICfXpzXHN8WnrrnuixdfnHMB5+uMTrwLGaqlJMAwCbkVPliHY+ZWayItq57/VfIQaxIxnFCnKELTB9q1CaQQFcOZKrYQCrtZsIIEHaK6v2Dw9W0hMA/eQTqJkV0xadH3ouZiK0cvXUtPxFzUfwSMVBbO4t1OqmQP9i4eKW/dFlsi5h0+8CoBoiP2jljocTT9/I5Mzs6lJlkiL9+uDN3q0v0gclMnZE1cK266x+p29i68FuhRaqrF1w3mVyCcEOEdVAZ/W+7cqM1dwRbdSHAAJhpItsn+Lhkx+crZutE7p6du7u+TJzUuXFhnBP6oN//xczXSGQueXt8Wyq7tiKjnNguL39Ip8Z3dFPj8byTNXEnnuamrsvRXJmPbZGVuDpEbYKpErzd0oEwjNGQR4qjnOrRzoD0RBIKPzYlxS0c2bBa/yisJ6gqgsFVPOen0yNdUbb8OCwNQM79Jc5Gs7VBG3RZrv23NxcHPDR5XlxgoyvryqXIQgfyic2FFoVQD72NShamQ+eeRrqoDcJbWTo0piJ5qyMq7AnNqlqqaGGASm8UenMgN32nB4OJJHN4YLJE05jPv4ilsGAcYESiAAezEI8Jh2aOAZyo5ueymmcHKmfdVlXh9OXj7a0lk4wcC6oHEInTqtkMHfA/eNCvPPbI7kB3u75Ht7uuSzWyJTCeI3PjABGmMCZTgASNO9Imrb3h3IwYFAjs+Iqfm/oPb52MbI64sRYP6Ssjnty2v+s64M/roi6BMjtpE+QWfP6/3PKVpozz39kRxU4t2kaR5E+SFF4zm9GcqsOW5pFmMCQUkOyBFQFANQH3hg0JoBiv3ntcT4WR8EQQZQp5yObNHskhpDLsemmVTJvPE89wPef79SN6Pbr8P1uMJ/2PUS84CTPjAQmRpgr2cAFkiwDAcwMuESU1H3D4SyzZkBidPLE6nXVwPbZ5XFaQC329tra/f5gy/qCfjBd3ViRj9ReNtzu/R5jwwtjk6DwM4u+WqWPAfUlSLBKLDab0dt+H6UwG9JNghYfMVH2P5VZXsUwcBBoPcNNGIHFGMrt4uvhTNwgTSen1viKxebm8kVKc5qvQrojuzEQ7s5Izrz8FDDG1BCgxCbr+H7ETWPi079dBqbvVcVsHmD/Q2jDAKmWiI1cgBcLPfllhRmPqI800nMddN9RMzAdBfYs18BoS2LtUMAJsI8wR5XMsPO32qBMhOjuMmJmoX//YN2NokS+0ElM4M0PQ7BHW8J9K/pNczy5Nc+rNC3szzlNEA/allpBQRmZJby7oaFlQwjsQ95RaFOw3NBKW9cTwwEQQzTVRBVbOAcmXodgpc42YQeiJORx3Q4RGHmUb12YBmT+fTDIKDABopNwM3IthO8wT3kAs4uX1dfzeyxyd/phPr4nMB29tioLrTpkyHDbRsaPEA8MOVcFRbzN7X9PLrjunuV6ZczMZO66fjSCEiXIEGE9hxUe97VbRsGXI84wqNTEOOsi94O9BE8BS66E5PoPDTU8FtvqwJGXUSJMpiV4j6aL8nHRyJvnN+JGA7IyiIg5MJgSQUg1djaNuSEGRATkJgwfX3EQRjoEjd0N/kvTAEvko/MRcLiOWp3mXF9uTK2qdIwnXLLHhqSpDZYK4eAyLJwu/A2F+z5Y8Pxgjd4RzMzihd0PocwXPFQ9eZpauDMnMNuR6I3TFSYyDsa1YEc9rn3YR19Oy9ZruO5EH/OGxMogQDK4amD8ZI60JbdrqO030V3ENq/FAV0Ys5FlB/U0ffVDOCFfb12EQXPe34C6Ks7dbyBx/iwjv5yZ+ZoOyZYd1GkT7wK2OLIidUY/viuIfxSPZoJRbkZZkB8jx3D/jA9eUJrjJ4/PA+pecoZZf5nxpOFWZwHBkODkuXOStP28SYU+sSrAAiKhgPhpTwBQhhKSSpXHC4sT5GZob1DR9pX+kIODdl1PQgJ0tHpPGgSM/r9K5iYoe0kSfSlWnAfrwIgKB5sFNDhw+joAWcGjGCefDxYLQ5fGdmBODDZHVeisporlzHyrPNZieBV6QPPKMpUvQpgFQiw7hQByGDFrs7oabojszL3wPRtppdgZ4iu2UQYsSdGYuNhViKMweUFBZREwECOgA4VgOCuhptGm+yNkLedYBoUV7Z1N66DVA9VV74oI3UIgAB9qTLi1XFvaKE5qrYMlPs6fOAutfWvbo9NWR2B5SlbLSV0+Js7K3LGsf8e9Qx4gJUuSmFGiCV0pO09BW7QqwDsBUjjxnBrIx36IYqYX9haPmTD7X5y061ftTvuqkSDZTmAMvVWx+gXikop60DO3rAkDppaS++5eBXAT3FdeA5uUoIG1owQBJFmE3+ZHKTgd4VTfxATCmAWqF6GCdeIUIugWIpH2VGUCEgbBeC7t+jVLDBCk+vpzRrayoQp7Qb+7Zb5FCqg29TvQjmrWvzNpbqp+60Xgbz/PJaoAlJ5uNoovPik8FSsPugJDVBIcliQ8KymqEVz7GtJqFCzluCXF2qm7fQhbuNP2y6WxvaPaGLz49M1A6nHN4ZmtTh1fUwEjrDzB//99cNmrZBkC+8o4KxA61M68k+N1U3k993dFXlseAUKQBIzNZXJr9QMXnJVGsKCHRrz3tVnc3qUgS9vfSmi6xasKqd55AcLL1Mk9jsLnyi6UHekfae08+yjDEb+c1siE5m2C8M7UkC+sIGXJpjbZ4aHJem4x0vaEjI47KjqXmOxmy2Bk4FFQWOWKQyChfeA7PtB1uU23iHKbnrzxBxP7eKGK7XURJgTtczMQvGiRM0NBmRN3EI4TY3yoaotoXWCzI5fmVlQSGZnaS+7Nzd8GxGYeZVG8lUkjbdFwqDpmNh/WRa4N0SyRW+L8ImyQBVKBW3MKbB+iRyffSLV4Yp9VSYu+XJVaQXcrAxrh/lLVPnGyDBCjBahKGbT2DLDLfk+D8+nsGM3cWq2/EUq7f1AZF/DwaSa3xnKkbWSZfwrUsD/gqyldZCrIu97BfwHAyVbFo7YAKoAAAAASUVORK5CYII=;" parent="1" vertex="1">
          <mxGeometry x="580" y="2163.5" width="37.68" height="36.5" as="geometry" />
        </mxCell>
        <mxCell id="MKCzWIRwI4Zgw65z_sEB-228" value="" style="shape=image;aspect=fixed;image=data:image/png,iVBORw0KGgoAAAANSUhEUgAAAEAAAAA+CAYAAACbQR1vAAAMiUlEQVRoge2b228cVx3Hf3NZx/d17CRNc2vSJE1T2lLatNAWSAUUhBASIPGAhMRFvIF4QIK/gncekOAFkHgBXkBcSgWF0gstTa9UuTb31LETx/El9u7M8Pucc8a7WZ9Z79gptik/ebw7Mzsz5/zO9/f9Xc6ZIFOR97GEq92A1Zb/K2C1G7DaEr8XN02VVuZTkZqyS5Kxb4/pIbsvjeOBfg8Dt+n3KAjMJ/uRO96lB7r0eBDc+raWUoCly8w0nu1aXWS8lsqk9vR6InK9rp/1xueM/qimF9WcMurus5Zmdt8poKK9jPVLhS20n7H73qXn+lUTQxU2kaHYft+oW1X3+yJ7ba5AtFRGT0GnXqCuP5usiVy4kcrbU6m8NZ3KmZnMdNIoROyIJu5ueQc2mC1wn4u/g4Y5vXAuFbe574n9DpLmHVpyVEROQd16YFNXIHv7AtnXG8odPaEM6/5gbJF0SxTA2Wnt1XNXE/nD5br8WzvPrYcVl1u6RDZ35aMTmNGpNo1UbxwskAzX0KagZT9/eua2/Jn5fmqQlsm4amG8Zj/HdLui26SibFLPcf6anotVIXf3h/LkpkgerEYyUuEZ7RXRVgGcuao3/tn5mjw9nsht2tlDQ5EcUI1v1SG8bUMgA7EUQC7I/1Ykjdbd3EwQN6v/6DiKGZ3L5Jii8h86ULT5EW3nN3ZWZGd32JY72ioACP76Yl1+eq4mh4dj+cr2WDseGOi9F4S0XDFo0W6odcoxRegvLtTl5WuJfHFrLF/fUZG+uLixhW4Q1j6lNv670brc3RfKt3bFsrsnkJ5obXUesZ5ETU7bdt9gKN/fW5GPDkfyF0Xtm6qQtI2VFyoAMnthIpFJ/fKl22MZ6QqWtKe1IChiRHmI0YeEnx6rGyIt/H3RCZj4zeupbFcb2q8I6JRV14IwUHvVK+xRr/CWIuDd+WUg4JKSynk1qp3d1tWsNyE+2KsDN6NEeXK6GAKFCjgxkxro7NObEIysNwGwxAYEXydniFX8KPAqAN8LAfJ5Z+/6TRf29dmg66wieTrx/8bbuxspwUaqgYUYX79eZdAFZoTls0kJBMyauN7a0WAbH7rWBcslZ5iu2xjB+xvfQeJ7Eprhio2715JkLrMkAXtBo7531V0VuXmaTlg+Q35RxgRQwJQqYJPG+2uJAego5vmGuucfna7JD0/Oy4sTaTHBBWJylBmXWPnEmw5jAlO6beqyN1ltyVwtAWL+q0Z3v9ek7OKc7dCrk4l8SpMfX0cYPJIyBrTIBLwKmKqLQcBmELCKCshMep3JZQ1kCGv/NJbICfXpzXHN8WnrrnuixdfnHMB5+uMTrwLGaqlJMAwCbkVPliHY+ZWayItq57/VfIQaxIxnFCnKELTB9q1CaQQFcOZKrYQCrtZsIIEHaK6v2Dw9W0hMA/eQTqJkV0xadH3ouZiK0cvXUtPxFzUfwSMVBbO4t1OqmQP9i4eKW/dFlsi5h0+8CoBoiP2jljocTT9/I5Mzs6lJlkiL9+uDN3q0v0gclMnZE1cK266x+p29i68FuhRaqrF1w3mVyCcEOEdVAZ/W+7cqM1dwRbdSHAAJhpItsn+Lhkx+crZutE7p6du7u+TJzUuXFhnBP6oN//xczXSGQueXt8Wyq7tiKjnNguL39Ip8Z3dFPj8byTNXEnnuamrsvRXJmPbZGVuDpEbYKpErzd0oEwjNGQR4qjnOrRzoD0RBIKPzYlxS0c2bBa/yisJ6gqgsFVPOen0yNdUbb8OCwNQM79Jc5Gs7VBG3RZrv23NxcHPDR5XlxgoyvryqXIQgfyic2FFoVQD72NShamQ+eeRrqoDcJbWTo0piJ5qyMq7AnNqlqqaGGASm8UenMgN32nB4OJJHN4YLJE05jPv4ilsGAcYESiAAezEI8Jh2aOAZyo5ueymmcHKmfdVlXh9OXj7a0lk4wcC6oHEInTqtkMHfA/eNCvPPbI7kB3u75Ht7uuSzWyJTCeI3PjABGmMCZTgASNO9Imrb3h3IwYFAjs+Iqfm/oPb52MbI64sRYP6Ssjnty2v+s64M/roi6BMjtpE+QWfP6/3PKVpozz39kRxU4t2kaR5E+SFF4zm9GcqsOW5pFmMCQUkOyBFQFANQH3hg0JoBiv3ntcT4WR8EQQZQp5yObNHskhpDLsemmVTJvPE89wPef79SN6Pbr8P1uMJ/2PUS84CTPjAQmRpgr2cAFkiwDAcwMuESU1H3D4SyzZkBidPLE6nXVwPbZ5XFaQC329tra/f5gy/qCfjBd3ViRj9ReNtzu/R5jwwtjk6DwM4u+WqWPAfUlSLBKLDab0dt+H6UwG9JNghYfMVH2P5VZXsUwcBBoPcNNGIHFGMrt4uvhTNwgTSen1viKxebm8kVKc5qvQrojuzEQ7s5Izrz8FDDG1BCgxCbr+H7ETWPi079dBqbvVcVsHmD/Q2jDAKmWiI1cgBcLPfllhRmPqI800nMddN9RMzAdBfYs18BoS2LtUMAJsI8wR5XMsPO32qBMhOjuMmJmoX//YN2NokS+0ElM4M0PQ7BHW8J9K/pNczy5Nc+rNC3szzlNEA/allpBQRmZJby7oaFlQwjsQ95RaFOw3NBKW9cTwwEQQzTVRBVbOAcmXodgpc42YQeiJORx3Q4RGHmUb12YBmT+fTDIKDABopNwM3IthO8wT3kAs4uX1dfzeyxyd/phPr4nMB29tioLrTpkyHDbRsaPEA8MOVcFRbzN7X9PLrjunuV6ZczMZO66fjSCEiXIEGE9hxUe97VbRsGXI84wqNTEOOsi94O9BE8BS66E5PoPDTU8FtvqwJGXUSJMpiV4j6aL8nHRyJvnN+JGA7IyiIg5MJgSQUg1djaNuSEGRATkJgwfX3EQRjoEjd0N/kvTAEvko/MRcLiOWp3mXF9uTK2qdIwnXLLHhqSpDZYK4eAyLJwu/A2F+z5Y8Pxgjd4RzMzihd0PocwXPFQ9eZpauDMnMNuR6I3TFSYyDsa1YEc9rn3YR19Oy9ZruO5EH/OGxMogQDK4amD8ZI60JbdrqO030V3ENq/FAV0Ys5FlB/U0ffVDOCFfb12EQXPe34C6Ks7dbyBx/iwjv5yZ+ZoOyZYd1GkT7wK2OLIidUY/viuIfxSPZoJRbkZZkB8jx3D/jA9eUJrjJ4/PA+pecoZZf5nxpOFWZwHBkODkuXOStP28SYU+sSrAAiKhgPhpTwBQhhKSSpXHC4sT5GZob1DR9pX+kIODdl1PQgJ0tHpPGgSM/r9K5iYoe0kSfSlWnAfrwIgKB5sFNDhw+joAWcGjGCefDxYLQ5fGdmBODDZHVeisporlzHyrPNZieBV6QPPKMpUvQpgFQiw7hQByGDFrs7oabojszL3wPRtppdgZ4iu2UQYsSdGYuNhViKMweUFBZREwECOgA4VgOCuhptGm+yNkLedYBoUV7Z1N66DVA9VV74oI3UIgAB9qTLi1XFvaKE5qrYMlPs6fOAutfWvbo9NWR2B5SlbLSV0+Js7K3LGsf8e9Qx4gJUuSmFGiCV0pO09BW7QqwDsBUjjxnBrIx36IYqYX9haPmTD7X5y061ftTvuqkSDZTmAMvVWx+gXikop60DO3rAkDppaS++5eBXAT3FdeA5uUoIG1owQBJFmE3+ZHKTgd4VTfxATCmAWqF6GCdeIUIugWIpH2VGUCEgbBeC7t+jVLDBCk+vpzRrayoQp7Qb+7Zb5FCqg29TvQjmrWvzNpbqp+60Xgbz/PJaoAlJ5uNoovPik8FSsPugJDVBIcliQ8KymqEVz7GtJqFCzluCXF2qm7fQhbuNP2y6WxvaPaGLz49M1A6nHN4ZmtTh1fUwEjrDzB//99cNmrZBkC+8o4KxA61M68k+N1U3k993dFXlseAUKQBIzNZXJr9QMXnJVGsKCHRrz3tVnc3qUgS9vfSmi6xasKqd55AcLL1Mk9jsLnyi6UHekfae08+yjDEb+c1siE5m2C8M7UkC+sIGXJpjbZ4aHJem4x0vaEjI47KjqXmOxmy2Bk4FFQWOWKQyChfeA7PtB1uU23iHKbnrzxBxP7eKGK7XURJgTtczMQvGiRM0NBmRN3EI4TY3yoaotoXWCzI5fmVlQSGZnaS+7Nzd8GxGYeZVG8lUkjbdFwqDpmNh/WRa4N0SyRW+L8ImyQBVKBW3MKbB+iRyffSLV4Yp9VSYu+XJVaQXcrAxrh/lLVPnGyDBCjBahKGbT2DLDLfk+D8+nsGM3cWq2/EUq7f1AZF/DwaSa3xnKkbWSZfwrUsD/gqyldZCrIu97BfwHAyVbFo7YAKoAAAAASUVORK5CYII=;" parent="1" vertex="1">
          <mxGeometry x="676.71" y="2163.5" width="37.68" height="36.5" as="geometry" />
        </mxCell>
        <mxCell id="MKCzWIRwI4Zgw65z_sEB-229" value="" style="shape=image;aspect=fixed;image=data:image/png,iVBORw0KGgoAAAANSUhEUgAAAEAAAAA+CAYAAACbQR1vAAAMiUlEQVRoge2b228cVx3Hf3NZx/d17CRNc2vSJE1T2lLatNAWSAUUhBASIPGAhMRFvIF4QIK/gncekOAFkHgBXkBcSgWF0gstTa9UuTb31LETx/El9u7M8Pucc8a7WZ9Z79gptik/ebw7Mzsz5/zO9/f9Xc6ZIFOR97GEq92A1Zb/K2C1G7DaEr8XN02VVuZTkZqyS5Kxb4/pIbsvjeOBfg8Dt+n3KAjMJ/uRO96lB7r0eBDc+raWUoCly8w0nu1aXWS8lsqk9vR6InK9rp/1xueM/qimF9WcMurus5Zmdt8poKK9jPVLhS20n7H73qXn+lUTQxU2kaHYft+oW1X3+yJ7ba5AtFRGT0GnXqCuP5usiVy4kcrbU6m8NZ3KmZnMdNIoROyIJu5ueQc2mC1wn4u/g4Y5vXAuFbe574n9DpLmHVpyVEROQd16YFNXIHv7AtnXG8odPaEM6/5gbJF0SxTA2Wnt1XNXE/nD5br8WzvPrYcVl1u6RDZ35aMTmNGpNo1UbxwskAzX0KagZT9/eua2/Jn5fmqQlsm4amG8Zj/HdLui26SibFLPcf6anotVIXf3h/LkpkgerEYyUuEZ7RXRVgGcuao3/tn5mjw9nsht2tlDQ5EcUI1v1SG8bUMgA7EUQC7I/1Ykjdbd3EwQN6v/6DiKGZ3L5Jii8h86ULT5EW3nN3ZWZGd32JY72ioACP76Yl1+eq4mh4dj+cr2WDseGOi9F4S0XDFo0W6odcoxRegvLtTl5WuJfHFrLF/fUZG+uLixhW4Q1j6lNv670brc3RfKt3bFsrsnkJ5obXUesZ5ETU7bdt9gKN/fW5GPDkfyF0Xtm6qQtI2VFyoAMnthIpFJ/fKl22MZ6QqWtKe1IChiRHmI0YeEnx6rGyIt/H3RCZj4zeupbFcb2q8I6JRV14IwUHvVK+xRr/CWIuDd+WUg4JKSynk1qp3d1tWsNyE+2KsDN6NEeXK6GAKFCjgxkxro7NObEIysNwGwxAYEXydniFX8KPAqAN8LAfJ5Z+/6TRf29dmg66wieTrx/8bbuxspwUaqgYUYX79eZdAFZoTls0kJBMyauN7a0WAbH7rWBcslZ5iu2xjB+xvfQeJ7Eprhio2715JkLrMkAXtBo7531V0VuXmaTlg+Q35RxgRQwJQqYJPG+2uJAego5vmGuucfna7JD0/Oy4sTaTHBBWJylBmXWPnEmw5jAlO6beqyN1ltyVwtAWL+q0Z3v9ek7OKc7dCrk4l8SpMfX0cYPJIyBrTIBLwKmKqLQcBmELCKCshMep3JZQ1kCGv/NJbICfXpzXHN8WnrrnuixdfnHMB5+uMTrwLGaqlJMAwCbkVPliHY+ZWayItq57/VfIQaxIxnFCnKELTB9q1CaQQFcOZKrYQCrtZsIIEHaK6v2Dw9W0hMA/eQTqJkV0xadH3ouZiK0cvXUtPxFzUfwSMVBbO4t1OqmQP9i4eKW/dFlsi5h0+8CoBoiP2jljocTT9/I5Mzs6lJlkiL9+uDN3q0v0gclMnZE1cK266x+p29i68FuhRaqrF1w3mVyCcEOEdVAZ/W+7cqM1dwRbdSHAAJhpItsn+Lhkx+crZutE7p6du7u+TJzUuXFhnBP6oN//xczXSGQueXt8Wyq7tiKjnNguL39Ip8Z3dFPj8byTNXEnnuamrsvRXJmPbZGVuDpEbYKpErzd0oEwjNGQR4qjnOrRzoD0RBIKPzYlxS0c2bBa/yisJ6gqgsFVPOen0yNdUbb8OCwNQM79Jc5Gs7VBG3RZrv23NxcHPDR5XlxgoyvryqXIQgfyic2FFoVQD72NShamQ+eeRrqoDcJbWTo0piJ5qyMq7AnNqlqqaGGASm8UenMgN32nB4OJJHN4YLJE05jPv4ilsGAcYESiAAezEI8Jh2aOAZyo5ueymmcHKmfdVlXh9OXj7a0lk4wcC6oHEInTqtkMHfA/eNCvPPbI7kB3u75Ht7uuSzWyJTCeI3PjABGmMCZTgASNO9Imrb3h3IwYFAjs+Iqfm/oPb52MbI64sRYP6Ssjnty2v+s64M/roi6BMjtpE+QWfP6/3PKVpozz39kRxU4t2kaR5E+SFF4zm9GcqsOW5pFmMCQUkOyBFQFANQH3hg0JoBiv3ntcT4WR8EQQZQp5yObNHskhpDLsemmVTJvPE89wPef79SN6Pbr8P1uMJ/2PUS84CTPjAQmRpgr2cAFkiwDAcwMuESU1H3D4SyzZkBidPLE6nXVwPbZ5XFaQC329tra/f5gy/qCfjBd3ViRj9ReNtzu/R5jwwtjk6DwM4u+WqWPAfUlSLBKLDab0dt+H6UwG9JNghYfMVH2P5VZXsUwcBBoPcNNGIHFGMrt4uvhTNwgTSen1viKxebm8kVKc5qvQrojuzEQ7s5Izrz8FDDG1BCgxCbr+H7ETWPi079dBqbvVcVsHmD/Q2jDAKmWiI1cgBcLPfllhRmPqI800nMddN9RMzAdBfYs18BoS2LtUMAJsI8wR5XMsPO32qBMhOjuMmJmoX//YN2NokS+0ElM4M0PQ7BHW8J9K/pNczy5Nc+rNC3szzlNEA/allpBQRmZJby7oaFlQwjsQ95RaFOw3NBKW9cTwwEQQzTVRBVbOAcmXodgpc42YQeiJORx3Q4RGHmUb12YBmT+fTDIKDABopNwM3IthO8wT3kAs4uX1dfzeyxyd/phPr4nMB29tioLrTpkyHDbRsaPEA8MOVcFRbzN7X9PLrjunuV6ZczMZO66fjSCEiXIEGE9hxUe97VbRsGXI84wqNTEOOsi94O9BE8BS66E5PoPDTU8FtvqwJGXUSJMpiV4j6aL8nHRyJvnN+JGA7IyiIg5MJgSQUg1djaNuSEGRATkJgwfX3EQRjoEjd0N/kvTAEvko/MRcLiOWp3mXF9uTK2qdIwnXLLHhqSpDZYK4eAyLJwu/A2F+z5Y8Pxgjd4RzMzihd0PocwXPFQ9eZpauDMnMNuR6I3TFSYyDsa1YEc9rn3YR19Oy9ZruO5EH/OGxMogQDK4amD8ZI60JbdrqO030V3ENq/FAV0Ys5FlB/U0ffVDOCFfb12EQXPe34C6Ks7dbyBx/iwjv5yZ+ZoOyZYd1GkT7wK2OLIidUY/viuIfxSPZoJRbkZZkB8jx3D/jA9eUJrjJ4/PA+pecoZZf5nxpOFWZwHBkODkuXOStP28SYU+sSrAAiKhgPhpTwBQhhKSSpXHC4sT5GZob1DR9pX+kIODdl1PQgJ0tHpPGgSM/r9K5iYoe0kSfSlWnAfrwIgKB5sFNDhw+joAWcGjGCefDxYLQ5fGdmBODDZHVeisporlzHyrPNZieBV6QPPKMpUvQpgFQiw7hQByGDFrs7oabojszL3wPRtppdgZ4iu2UQYsSdGYuNhViKMweUFBZREwECOgA4VgOCuhptGm+yNkLedYBoUV7Z1N66DVA9VV74oI3UIgAB9qTLi1XFvaKE5qrYMlPs6fOAutfWvbo9NWR2B5SlbLSV0+Js7K3LGsf8e9Qx4gJUuSmFGiCV0pO09BW7QqwDsBUjjxnBrIx36IYqYX9haPmTD7X5y061ftTvuqkSDZTmAMvVWx+gXikop60DO3rAkDppaS++5eBXAT3FdeA5uUoIG1owQBJFmE3+ZHKTgd4VTfxATCmAWqF6GCdeIUIugWIpH2VGUCEgbBeC7t+jVLDBCk+vpzRrayoQp7Qb+7Zb5FCqg29TvQjmrWvzNpbqp+60Xgbz/PJaoAlJ5uNoovPik8FSsPugJDVBIcliQ8KymqEVz7GtJqFCzluCXF2qm7fQhbuNP2y6WxvaPaGLz49M1A6nHN4ZmtTh1fUwEjrDzB//99cNmrZBkC+8o4KxA61M68k+N1U3k993dFXlseAUKQBIzNZXJr9QMXnJVGsKCHRrz3tVnc3qUgS9vfSmi6xasKqd55AcLL1Mk9jsLnyi6UHekfae08+yjDEb+c1siE5m2C8M7UkC+sIGXJpjbZ4aHJem4x0vaEjI47KjqXmOxmy2Bk4FFQWOWKQyChfeA7PtB1uU23iHKbnrzxBxP7eKGK7XURJgTtczMQvGiRM0NBmRN3EI4TY3yoaotoXWCzI5fmVlQSGZnaS+7Nzd8GxGYeZVG8lUkjbdFwqDpmNh/WRa4N0SyRW+L8ImyQBVKBW3MKbB+iRyffSLV4Yp9VSYu+XJVaQXcrAxrh/lLVPnGyDBCjBahKGbT2DLDLfk+D8+nsGM3cWq2/EUq7f1AZF/DwaSa3xnKkbWSZfwrUsD/gqyldZCrIu97BfwHAyVbFo7YAKoAAAAASUVORK5CYII=;" parent="1" vertex="1">
          <mxGeometry x="481.82" y="2059.25" width="37.68" height="36.5" as="geometry" />
        </mxCell>
        <mxCell id="MKCzWIRwI4Zgw65z_sEB-230" value="前台系统服务" style="text;html=1;align=center;verticalAlign=middle;resizable=0;points=[];autosize=1;strokeColor=none;fillColor=none;fontSize=15;" parent="1" vertex="1">
          <mxGeometry x="507.68" y="2062.5" width="110" height="30" as="geometry" />
        </mxCell>
        <mxCell id="vXoJfl0hEXksMNZ32TPT-1" value="&lt;p class=&quot;MsoNormal&quot;&gt;&lt;font style=&quot;font-size: 15px;&quot; face=&quot;Segoe UI&quot;&gt;数据分析和报告&lt;/font&gt;&lt;/p&gt;" style="text;html=1;align=center;verticalAlign=middle;resizable=0;points=[];autosize=1;strokeColor=none;fillColor=none;" vertex="1" parent="1">
          <mxGeometry x="349" y="30" width="130" height="60" as="geometry" />
        </mxCell>
        <mxCell id="vXoJfl0hEXksMNZ32TPT-2" value="" style="ellipse;whiteSpace=wrap;html=1;fillColor=#fff2cc;strokeColor=#d6b656;container=0;" vertex="1" parent="1">
          <mxGeometry x="366" width="80" height="50" as="geometry" />
        </mxCell>
        <mxCell id="vXoJfl0hEXksMNZ32TPT-3" style="rounded=0;orthogonalLoop=1;jettySize=auto;html=1;entryX=-0.004;entryY=0.672;entryDx=0;entryDy=0;exitX=0.75;exitY=0.1;exitDx=0;exitDy=0;exitPerimeter=0;entryPerimeter=0;" edge="1" parent="1" source="MKCzWIRwI4Zgw65z_sEB-1" target="vXoJfl0hEXksMNZ32TPT-2">
          <mxGeometry relative="1" as="geometry">
            <mxPoint x="160" y="225" as="sourcePoint" />
            <mxPoint x="388" y="108" as="targetPoint" />
          </mxGeometry>
        </mxCell>
        <mxCell id="vXoJfl0hEXksMNZ32TPT-6" style="edgeStyle=none;rounded=0;orthogonalLoop=1;jettySize=auto;html=1;entryX=0.5;entryY=0;entryDx=0;entryDy=0;fontSize=15;dashed=1;startArrow=none;" edge="1" parent="1" source="vXoJfl0hEXksMNZ32TPT-7">
          <mxGeometry relative="1" as="geometry">
            <mxPoint x="630" y="320" as="targetPoint" />
          </mxGeometry>
        </mxCell>
        <mxCell id="vXoJfl0hEXksMNZ32TPT-7" value="&amp;lt;&amp;lt;include&amp;gt;&amp;gt;" style="text;html=1;strokeColor=none;fillColor=none;align=center;verticalAlign=middle;whiteSpace=wrap;rounded=0;fontSize=15;" vertex="1" parent="1">
          <mxGeometry x="499.68000000000006" y="130" width="60" height="30" as="geometry" />
        </mxCell>
        <mxCell id="vXoJfl0hEXksMNZ32TPT-8" value="" style="edgeStyle=none;rounded=0;orthogonalLoop=1;jettySize=auto;html=1;entryX=0.5;entryY=0;entryDx=0;entryDy=0;fontSize=15;dashed=1;endArrow=none;" edge="1" parent="1" target="vXoJfl0hEXksMNZ32TPT-7">
          <mxGeometry relative="1" as="geometry">
            <mxPoint x="450" y="20" as="sourcePoint" />
            <mxPoint x="630" y="320" as="targetPoint" />
          </mxGeometry>
        </mxCell>
        <mxCell id="vXoJfl0hEXksMNZ32TPT-9" style="edgeStyle=orthogonalEdgeStyle;rounded=0;orthogonalLoop=1;jettySize=auto;html=1;exitX=0.5;exitY=1;exitDx=0;exitDy=0;" edge="1" parent="1" source="MKCzWIRwI4Zgw65z_sEB-214" target="MKCzWIRwI4Zgw65z_sEB-214">
          <mxGeometry relative="1" as="geometry" />
        </mxCell>
      </root>
    </mxGraphModel>
  </diagram>
</mxfile>
